<svg xmlns="http://www.w3.org/2000/svg" viewBox="0 0 490 451.272" fill="#ececec"><!--e5e5e5--><path d="M221.014 205.543H3.986c-2.198 0-3.986-1.789-3.986-3.987V3.987C0 1.8 1.8 0 4 0h217.028 C223.212 0 225 1.8 225 3.987v197.57C225 203.8 223.2 205.5 221 205.543z M3.986 2.7 c-0.733 0-1.329 0.596-1.329 1.329v197.57c0 0.7 0.6 1.3 1.3 1.329h217.028c0.733 0 1.329-0.596 1.329-1.329V3.987 c0-0.733-0.596-1.329-1.329-1.329H3.986z"/><rect x="0.9" y="22.1" width="222.3" height="1.8"/><circle cx="9.3" cy="12.8" r="2.5"/><circle cx="17" cy="12.8" r="2.5"/><circle cx="24.7" cy="12.8" r="2.5"/><rect x="97.4" y="11.5" width="29.2" height="1.8"/><path d="M203.034 16.833c0 0-0.011-2.311 0.002-2.798c0.012-0.487 1.168-1.182 1.168-2.869c0-1.312-0.265-2.554-2.634-2.554 c-2.402 0-2.883 0.972-2.883 2.534c0 0.649-0.651 0.988-0.651 1.282c0 0.3 0.4 0.4 0.4 0.676s-0.073 1.3 0.6 1.3 c1.08 0 1.2 0.4 1.2 1.454c0 0.4 0 1 0 0.964L203.034 16.833L203.034 16.833z"/><path d="M183.366 7.974v8.86l3.543-1.053V9.746L183.366 7.974z M184.446 13.141c-0.372 0-0.673-0.301-0.673-0.673 s0.302-0.673 0.673-0.673s0.673 0.3 0.7 0.709c-0.035 0.343-0.371 0.609-0.725 0.638H184.446z"/><polygon points="180.7,10.5 181.6,11.2 181.6,9.7 182.5,9.7 182.5,8.9 180.7,8.9"/><polygon points="181.6,13.6 180.7,14.3 180.7,15.9 182.5,15.9 182.5,15.1 181.6,15.1"/><polygon points="181.9,12.4 178.9,9.9 178.9,11.5 177.2,11.5 177.2,13.3 178.9,13.3 178.9,14.9"/><path d="M213.428 8.454c-2.425 0-4.392 1.967-4.392 4.393s1.967 4.4 4.4 4.393c2.463-0.037 4.392-1.967 4.392-4.393 s-2.004-4.43-4.461-4.393H213.428z M216.722 12.846c0 0.654-0.197 1.261-0.527 1.774l-0.927-0.58 c0.223-0.344 0.356-0.753 0.356-1.194c0-0.441-0.133-0.85-0.356-1.194l0.927-0.58c0.33 0.5 0.6 1.2 0.6 1.775H216.722z M210.133 12.846c0-0.627 0.186-1.208 0.492-1.708l0.927 0.58c-0.199 0.33-0.321 0.714-0.321 1.128c0 0.4 0.1 0.8 0.4 1.1 l-0.927 0.62c-0.339-0.508-0.54-1.128-0.54-1.748H210.133z M214.526 12.846c0 0.605-0.493 1.099-1.098 1.1 s-1.098-0.493-1.098-1.099s0.493-1.099 1.098-1.099s1.098 0.5 1.1 1.099H214.526z M214.536 11 c-0.327-0.192-0.702-0.31-1.108-0.31c-0.449 0-0.865 0.136-1.214 0.368l-0.58-0.928c0.516-0.338 1.131-0.538 1.793-0.538 c0.619 0 1.2 0.2 1.7 0.443L214.536 10.96z M212.214 14.676c0.348 0.3 0.8 0.4 1.2 0.4 c0.407 0 0.782-0.118 1.108-0.31l0.579 0.886c-0.495 0.299-1.068 0.48-1.688 0.48c-0.662 0-1.276-0.2-1.793-0.538L212.214 14.676z"/><path d="M19.337 40.703l-1.121 2.27h-0.08l-1.082-2.19l-1.522-2.992h-1.95v9.201h2.123v-4.274h0.053l0.828 1.589l0.815 1.418h1.509 l0.801-1.402l0.868-1.656h0.04v4.286h2.123v-9.161h-1.95L19.337 40.703z M24.614 46.992h2.123v-9.201h-2.123V46.992z M35.803 37.8 h-2.377l-1.495 2.684l-1.495-2.684h-2.39l2.764 4.487l-2.937 4.714h2.39l1.669-2.911l1.669 2.911h2.39l-2.937-4.714L35.803 37.792z M36.192 39.701h2.337v7.291h2.123v-7.291h2.324v-1.909h-6.783L36.192 39.701L36.192 39.701z M48.985 43.7 c0 1.055-0.774 1.442-1.469 1.442c-0.694 0-1.481-0.387-1.481-1.442v-5.929h-2.123v6.33c0 2 1.8 2.9 3.6 2.9 c1.86 0 3.605-1.002 3.605-3.018v-6.276h-2.163c-0.001 0.1 0 6 0 6.012L48.985 43.678z M59.682 40.7 c0-1.442-0.788-2.925-2.817-2.925h-4.139v9.201h2.123V43.6h1.308l1.388 3.392h2.27l-1.642-3.753 c0.921-0.536 1.532-1.599 1.532-2.523H59.682z M56.424 41.729h-1.575v-2.056h1.575c0.761 0 1.2 0.4 1.2 1 c-0.043 0.585-0.351 1.028-1.148 1.043L56.424 41.729z M67.227 39.688v-1.897h-6.422v9.201h6.422v-1.883h-4.299v-1.816H66.6V41.41 h-3.672v-1.722H67.227z"/><path d="M203.076 158.587H21.924c-1.221 0-2.215-0.993-2.215-2.215V66.991c0-1.221 0.994-2.215 2.215-2.215h181.152 c1.222 0 2.2 1 2.2 2.215v89.381c0 1.24-1.019 2.215-2.259 2.215H203.076z M21.924 65.662c-0.733 0-1.329 0.596-1.329 1.3 v89.381c0 0.7 0.6 1.3 1.3 1.329h181.152c0.733 0 1.329-0.596 1.329-1.329V66.991c0-0.733-0.596-1.329-1.329-1.329H21.924z"/><rect x="20.2" y="110.3" width="184.7" height="0.9"/><rect x="20.2" y="133.3" width="184.7" height="0.9"/><rect x="20.2" y="87.3" width="184.7" height="0.9"/><path d="M198.61 47.891c-2.5 0-4.535-2.034-4.535-4.535c0-2.501 2.035-4.535 4.535-4.535c2.5 0 4.5 2 4.5 4.5 s-2.018 4.592-4.526 4.552H198.61z M198.61 39.706c-2.012 0-3.649 1.637-3.649 3.649c0 2 1.6 3.6 3.6 3.6 c1.995 0 3.649-1.637 3.649-3.649s-1.62-3.648-3.64-3.632H198.61z"/><path d="M203.556 47.891c-2.5 0-4.534-2.034-4.534-4.535c0-2.501 2.034-4.535 4.534-4.535c2.5 0 4.5 2 4.5 4.5 s-2.018 4.592-4.511 4.552H203.556z M203.556 39.706c-2.012 0-3.648 1.637-3.648 3.649c0 2 1.6 3.6 3.6 3.6 c2.012 0 3.649-1.637 3.649-3.649s-1.621-3.648-3.626-3.632H203.556z"/><path d="M201.083 43.645c-2.5 0-4.535-2.034-4.535-4.535s2.035-4.535 4.535-4.535c2.5 0 4.5 2 4.5 4.5 s-2.018 4.568-4.518 4.568V43.645z M201.083 35.461c-2.012 0-3.649 1.637-3.649 3.649s1.637 3.6 3.6 3.6 c1.995 0 3.649-1.637 3.649-3.649S203.094 35.4 201.1 35.461z"/><path d="M201.083 53.158c-6.35 0-11.516-5.167-11.516-11.518s5.166-11.518 11.516-11.518c6.35 0 11.5 5.1 11.5 11.5 S207.432 53.2 201.1 53.158z M201.083 31.009c-5.862 0-10.63 4.769-10.63 10.632s4.768 10.6 10.6 10.6 c5.862 0 10.63-4.769 10.63-10.632S206.944 31 201.1 31.009z"/><path d="M175.469 178.943c-0.08-0.085-0.182-0.156-0.306-0.212c-0.125-0.056-0.267-0.085-0.425-0.085 c-0.171 0-0.323 0.028-0.456 0.085c-0.133 0.057-0.243 0.128-0.332 0.212c-0.089 0.086-0.157 0.182-0.203 0.3 c-0.049 0.106-0.071 0.213-0.071 0.319h2.037c0-0.106-0.02-0.213-0.061-0.319c-0.043-0.067-0.081-0.156-0.169-0.266H175.469z"/><path d="M135.094 178.943c-0.08-0.085-0.182-0.156-0.306-0.212c-0.124-0.056-0.266-0.085-0.424-0.085 c-0.172 0-0.323 0.028-0.456 0.085c-0.133 0.056-0.244 0.128-0.332 0.212c-0.089 0.086-0.158 0.182-0.204 0.3 c-0.048 0.106-0.071 0.213-0.071 0.319h2.037c0-0.106-0.02-0.213-0.061-0.319c-0.043-0.067-0.099-0.156-0.188-0.266H135.094z"/><path d="M153.155 178.943c-0.08-0.085-0.182-0.156-0.305-0.212c-0.125-0.056-0.267-0.085-0.425-0.085 c-0.171 0-0.323 0.028-0.457 0.085c-0.132 0.056-0.243 0.128-0.332 0.212c-0.089 0.086-0.156 0.182-0.203 0.3 c-0.047 0.106-0.071 0.213-0.071 0.354h2.037c0-0.106-0.02-0.213-0.062-0.319c-0.042-0.106-0.104-0.214-0.178-0.323H153.155z"/><path d="M167.355 179.103c-0.097-0.128-0.22-0.231-0.368-0.311c-0.147-0.08-0.322-0.12-0.523-0.12c-0.201 0-0.376 0.04-0.523 0.1 c-0.148 0.08-0.27 0.183-0.368 0.311c-0.097 0.128-0.17 0.268-0.217 0.424c-0.047 0.156-0.071 0.309-0.071 0.5 c0 0.2 0 0.3 0.1 0.443c0.047 0.2 0.1 0.3 0.2 0.425c0.089 0.2 0.2 0.3 0.4 0.3 c0.147 0.1 0.4 0.1 0.5 0.12c0.177 0 0.376-0.04 0.523-0.12c0.148-0.08 0.27-0.184 0.368-0.314s0.17-0.272 0.217-0.425 c0.047-0.153 0.071-0.307 0.071-0.461c0-0.148-0.024-0.3-0.071-0.457s-0.093-0.248-0.213-0.376H167.355z"/><path d="M182.702 170.253h-60.679c-0.974 0-1.772 0.797-1.772 1.772v14.47c0 1 0.8 1.8 1.8 1.772h60.679 c0.974 0 1.772-0.797 1.772-1.772v-14.47c0-0.945-0.842-1.743-1.816-1.772H182.702z M130.97 182.066h-1.116v-4.926h-2.003v-0.983 h5.12v0.983h-2.002L130.97 182.066L130.97 182.066z M136.408 180.303h-3.1c0 0.2 0 0.3 0.1 0.4 c0.067 0.1 0.2 0.3 0.3 0.354c0.11 0.1 0.3 0.2 0.4 0.204c0.139 0.1 0.3 0.1 0.4 0.1 c0.201 0 0.376-0.019 0.526-0.058c0.151-0.038 0.279-0.082 0.386-0.133c0.106-0.05 0.194-0.103 0.261-0.159 c0.067-0.057 0.12-0.102 0.156-0.137l0.567 0.62c-0.019 0.018-0.066 0.066-0.146 0.146c-0.08 0.08-0.196 0.164-0.346 0.3 c-0.151 0.089-0.343 0.168-0.575 0.266c-0.234 0.071-0.513 0.106-0.837 0.106c-0.33 0-0.632-0.056-0.904-0.168 c-0.272-0.112-0.503-0.268-0.694-0.464c-0.192-0.198-0.34-0.436-0.443-0.714c-0.103-0.276-0.155-0.584-0.155-0.921 c0-0.307 0.052-0.592 0.155-0.855c0.103-0.262 0.248-0.492 0.433-0.686c0.187-0.196 0.408-0.349 0.664-0.462 c0.258-0.112 0.542-0.167 0.856-0.167c0.378 0 0.7 0.1 1 0.207c0.263 0.2 0.4 0.4 0.6 0.5 c0.159 0.3 0.3 0.4 0.4 0.797c0.07 0.3 0.1 0.5 0.1 0.867v0.151L136.408 180.303L136.408 180.303z M138.26 182.1 h-1.045v-5.909h1.045V182.066z M140.333 182.066h-1.045v-5.909h1.045V182.066z M149.502 182.066h-1.046v-2.516 c0-0.266-0.066-0.47-0.199-0.616c-0.133-0.144-0.314-0.217-0.545-0.217c-0.142 0-0.272 0.028-0.389 0.1 c-0.117 0.057-0.22 0.134-0.306 0.266c-0.085 0.1-0.151 0.217-0.194 0.35c-0.045 0.133-0.067 0.276-0.067 0.43v2.25h-1.045v-2.516 c0-0.266-0.066-0.47-0.199-0.616c-0.133-0.144-0.314-0.217-0.545-0.217c-0.142 0-0.272 0.028-0.389 0.1 c-0.119 0.056-0.221 0.134-0.306 0.266c-0.085 0.1-0.151 0.217-0.195 0.35s-0.066 0.276-0.066 0.43v2.25h-1.045v-4.155h1.001 l0.027 0.443c0.053-0.058 0.113-0.122 0.182-0.19c0.067-0.067 0.151-0.128 0.247-0.182c0.097-0.053 0.209-0.097 0.337-0.133 c0.127-0.035 0.273-0.053 0.438-0.053c0.55 0 1 0.2 1.2 0.602c0.213-0.218 0.43-0.373 0.651-0.464 c0.221-0.091 0.48-0.137 0.775-0.137c0.525 0 0.9 0.2 1.2 0.465c0.281 0.3 0.4 0.7 0.4 1.254v2.522L149.502 182.1 L149.502 182.066z M154.47 180.293h-3.1c0 0.2 0 0.3 0.1 0.417c0.068 0.1 0.2 0.3 0.3 0.3 c0.109 0.1 0.3 0.2 0.4 0.177c0.138 0.1 0.3 0.1 0.4 0.071c0.201 0 0.377-0.019 0.528-0.058 c0.151-0.038 0.278-0.082 0.385-0.133c0.106-0.05 0.193-0.103 0.261-0.159s0.12-0.102 0.155-0.137l0.568 0.6 c-0.018 0.018-0.066 0.066-0.146 0.177c-0.081 0.08-0.195 0.164-0.345 0.252c-0.151 0.089-0.343 0.168-0.576 0.2 c-0.233 0.072-0.512 0.106-0.837 0.106c-0.33 0-0.632-0.056-0.904-0.168c-0.272-0.112-0.503-0.268-0.695-0.464 c-0.192-0.198-0.34-0.436-0.443-0.714c-0.104-0.276-0.156-0.584-0.156-0.921c0-0.307 0.052-0.592 0.156-0.855 c0.103-0.262 0.247-0.492 0.434-0.686c0.185-0.196 0.407-0.349 0.664-0.462c0.256-0.112 0.541-0.167 0.855-0.167 c0.377 0 0.7 0.1 1 0.207c0.262 0.2 0.4 0.4 0.6 0.532c0.16 0.3 0.3 0.4 0.4 0.8 c0.071 0.3 0.1 0.5 0.1 0.867v0.151l0.007 0.019l0 0V180.293z M163.417 182.066h-1.045v-2.516 c0-0.266-0.066-0.47-0.199-0.616c-0.133-0.144-0.314-0.217-0.545-0.217c-0.142 0-0.272 0.028-0.39 0.1 c-0.118 0.056-0.22 0.134-0.306 0.235s-0.151 0.217-0.195 0.35c-0.045 0.133-0.066 0.276-0.066 0.43v2.25h-1.045v-2.516 c0-0.266-0.066-0.47-0.2-0.616c-0.132-0.144-0.314-0.217-0.545-0.217c-0.141 0-0.272 0.028-0.389 0.1 c-0.117 0.057-0.22 0.134-0.306 0.266c-0.086 0.132-0.151 0.217-0.195 0.35c-0.045 0.133-0.067 0.276-0.067 0.43v2.25h-1.045v-4.155 h1.002l0.026 0.443c0.054-0.058 0.114-0.122 0.182-0.19c0.067-0.067 0.151-0.128 0.248-0.182c0.097-0.053 0.209-0.097 0.337-0.133 c0.127-0.035 0.274-0.053 0.438-0.053c0.549 0 1 0.2 1.2 0.602c0.213-0.218 0.431-0.373 0.652-0.464 c0.221-0.091 0.479-0.137 0.775-0.137c0.525 0 0.9 0.2 1.2 0.443c0.281 0.3 0.4 0.7 0.4 1.254v2.522L163.417 182.1 L163.417 182.066z M168.533 180.839c-0.109 0.268-0.261 0.504-0.456 0.709c-0.196 0.203-0.43 0.365-0.704 0.5 c-0.275 0.119-0.578 0.177-0.908 0.177s-0.633-0.058-0.908-0.177c-0.275-0.118-0.508-0.279-0.704-0.483 c-0.195-0.204-0.346-0.44-0.456-0.709c-0.11-0.269-0.164-0.554-0.164-0.855c0-0.302 0.054-0.587 0.164-0.856 c0.11-0.268 0.261-0.502 0.456-0.704c0.196-0.201 0.43-0.36 0.704-0.478c0.275-0.118 0.578-0.176 0.908-0.176 s0.633 0.1 0.9 0.176c0.275 0.1 0.5 0.3 0.7 0.443c0.195 0.2 0.4 0.4 0.4 0.7 c0.11 0.3 0.2 0.5 0.2 0.856c0.017 0.345-0.018 0.61-0.106 0.89H168.533z M172.107 178.9 c-0.071-0.029-0.144-0.051-0.217-0.062c-0.074-0.012-0.161-0.018-0.261-0.018c-0.142 0-0.277 0.023-0.407 0.1 s-0.242 0.115-0.337 0.203c-0.095 0.089-0.169 0.196-0.227 0.319c-0.055 0.124-0.084 0.263-0.084 0.416v2.241h-1.045v-4.155h1.001 l0.027 0.524c0.048-0.059 0.107-0.125 0.181-0.196c0.074-0.071 0.161-0.136 0.262-0.195c0.1-0.058 0.217-0.109 0.35-0.151 c0.133-0.042 0.284-0.062 0.456-0.062c0.1 0 0.2 0 0.3 0.019c0.089 0 0.2 0 0.3 0.061L172.107 178.894z M176.784 180.303h-3.1c0 0.2 0 0.3 0.1 0.417c0.067 0.1 0.2 0.3 0.3 0.318c0.11 0.1 0.3 0.2 0.4 0.2 c0.139 0.1 0.3 0.1 0.4 0.071c0.201 0 0.376-0.019 0.527-0.058c0.151-0.038 0.278-0.082 0.386-0.133 c0.105-0.05 0.193-0.103 0.261-0.159c0.067-0.056 0.12-0.102 0.155-0.137l0.567 0.639c-0.018 0.018-0.066 0.066-0.145 0.2 c-0.081 0.08-0.196 0.164-0.346 0.252c-0.151 0.089-0.343 0.168-0.576 0.24c-0.233 0.072-0.512 0.106-0.837 0.1 c-0.33 0-0.632-0.056-0.904-0.168c-0.272-0.112-0.503-0.268-0.695-0.464c-0.192-0.198-0.339-0.436-0.443-0.714 c-0.103-0.276-0.155-0.584-0.155-0.921c0-0.307 0.052-0.592 0.155-0.855c0.104-0.262 0.248-0.492 0.434-0.686 c0.186-0.196 0.408-0.349 0.664-0.462c0.257-0.112 0.541-0.167 0.855-0.167c0.378 0 0.7 0.1 1 0.2 c0.262 0.2 0.4 0.4 0.6 0.532c0.159 0.3 0.3 0.4 0.4 0.762c0.07 0.3 0.1 0.5 0.1 0.867v0.151 L176.784 180.303L176.784 180.303z"/><path d="M90.324 178.535c-0.077-0.082-0.177-0.151-0.298-0.205s-0.259-0.082-0.415-0.082c-0.168 0-0.316 0.027-0.446 0.1 c-0.13 0.058-0.238 0.124-0.325 0.205c-0.087 0.083-0.153 0.176-0.199 0.279s-0.07 0.206-0.07 0.309h1.989 c0-0.103-0.021-0.206-0.06-0.309c-0.04-0.147-0.072-0.233-0.158-0.283H90.324z"/><path d="M65.734 178.691c-0.095-0.124-0.215-0.224-0.358-0.302c-0.144-0.077-0.314-0.116-0.51-0.116s-0.366 0.039-0.51 0.1 c-0.144 0.077-0.264 0.178-0.359 0.302c-0.095 0.124-0.166 0.26-0.212 0.411c-0.046 0.152-0.07 0.3-0.07 0.4 c0 0.2 0 0.3 0.1 0.447c0.046 0.2 0.1 0.3 0.2 0.412s0.215 0.3 0.3 0.304c0.144 0.1 0.3 0.1 0.5 0.1 c0.196 0 0.366-0.039 0.51-0.116c0.144-0.077 0.264-0.179 0.358-0.304c0.095-0.125 0.166-0.264 0.212-0.412s0.07-0.298 0.07-0.447 c0-0.143-0.023-0.291-0.07-0.443c-0.012-0.1-0.051-0.186-0.137-0.338H65.734z"/><path d="M103.817 170.253H44.57c-0.952 0-1.73 0.773-1.73 1.69v13.801c0 0.9 0.8 1.7 1.7 1.69h59.247 c0.964 0 1.742-0.773 1.742-1.69v-13.801c0-0.917-0.773-1.69-1.718-1.69H103.817z M58.141 179.5 c0.083 0.3 0.2 0.4 0.3 0.617c0.155 0.2 0.3 0.3 0.5 0.43c0.216 0.1 0.4 0.2 0.8 0.2 c0.248 0 0.46-0.028 0.636-0.084c0.176-0.056 0.326-0.127 0.45-0.211c0.125-0.085 0.228-0.174 0.311-0.266 c0.083-0.093 0.16-0.174 0.229-0.241l0.761 0.643c-0.086 0.13-0.206 0.261-0.359 0.429c-0.152 0.136-0.332 0.261-0.54 0.4 c-0.207 0.115-0.436 0.21-0.683 0.283c-0.248 0.073-0.51 0.11-0.787 0.086c-0.432 0-0.828-0.073-1.185-0.22 c-0.357-0.147-0.666-0.35-0.925-0.613c-0.259-0.261-0.461-0.57-0.606-0.925c-0.144-0.355-0.216-0.743-0.216-1.166 c0-0.411 0.072-0.797 0.216-1.158c0.144-0.361 0.348-0.676 0.61-0.947c0.262-0.271 0.576-0.484 0.938-0.642 c0.363-0.157 0.764-0.237 1.203-0.237c0.283 0 0.5 0 0.8 0.089c0.236 0.1 0.4 0.2 0.7 0.3 c0.193 0.1 0.3 0.3 0.5 0.36c0.15 0.2 0.3 0.3 0.4 0.443l-0.77 0.667c-0.185-0.259-0.399-0.467-0.644-0.625 c-0.301-0.183-0.624-0.269-0.968-0.277c-0.283 0-0.536 0.054-0.761 0.164c-0.225 0.111-0.417 0.257-0.576 0.4 c-0.159 0.183-0.28 0.397-0.363 0.642c-0.083 0.245-0.125 0.503-0.125 0.773s0.034 0.5 0.1 0.771H58.141z M66.886 180.4 c-0.107 0.256-0.255 0.481-0.445 0.676c-0.191 0.194-0.42 0.348-0.688 0.46c-0.268 0.113-0.564 0.169-0.886 0.2 c-0.323 0-0.618-0.056-0.886-0.169c-0.268-0.113-0.497-0.266-0.687-0.46c-0.191-0.195-0.338-0.42-0.446-0.676 c-0.107-0.257-0.16-0.528-0.16-0.815c0-0.288 0.053-0.559 0.16-0.816c0.107-0.256 0.255-0.479 0.446-0.672 c0.19-0.192 0.419-0.344 0.687-0.456c0.268-0.113 0.564-0.168 0.886-0.168s0.601 0.1 0.9 0.2 c0.268 0.1 0.5 0.3 0.7 0.456c0.19 0.2 0.3 0.4 0.4 0.672c0.107 0.3 0.2 0.5 0.2 0.8 c0.032 0.251-0.035 0.594-0.121 0.813L66.886 180.389z M71.638 181.519h-1.02v-2.399c0-0.253-0.07-0.449-0.212-0.588 c-0.142-0.137-0.325-0.207-0.549-0.207c-0.138 0-0.268 0.027-0.389 0.081c-0.121 0.053-0.225 0.128-0.311 0.3 c-0.087 0.095-0.155 0.207-0.203 0.333c-0.05 0.127-0.074 0.264-0.074 0.41v2.146H67.86v-3.997h0.978l0.026 0.4 c0.052-0.056 0.113-0.115 0.186-0.178c0.072-0.062 0.158-0.119 0.259-0.174c0.101-0.054 0.215-0.097 0.342-0.131 c0.126-0.033 0.271-0.051 0.432-0.051c0.507 0 0.9 0.2 1.2 0.444c0.265 0.3 0.4 0.7 0.4 1.196v2.428H71.638z M74.976 181.506c-0.196 0.07-0.415 0.106-0.657 0.106c-0.248 0-0.459-0.035-0.631-0.106c-0.174-0.071-0.313-0.171-0.419-0.301 c-0.107-0.13-0.183-0.285-0.229-0.469c-0.046-0.183-0.07-0.385-0.07-0.604v-1.765h-0.691v-0.811h0.691v-1.283h1.021v1.284h1.089 v0.811H73.99v1.733c0 0.3 0 0.4 0.1 0.519c0.077 0.1 0.2 0.2 0.3 0.182c0.161 0 0.289-0.023 0.385-0.068 c0.095-0.046 0.186-0.099 0.273-0.161l0.432 0.617c-0.138 0.144-0.371 0.316-0.543 0.351L74.976 181.506z M77.165 181.519h-1.021 v-3.963h1.02L77.165 181.519L77.165 181.519z M77.2 176.932h-1.09v-1.048h1.09V176.932z M81.991 181.519h-1.02v-2.399 c0-0.253-0.07-0.449-0.212-0.588c-0.142-0.137-0.325-0.207-0.549-0.207c-0.138 0-0.268 0.027-0.389 0.1 c-0.121 0.053-0.225 0.128-0.311 0.258c-0.087 0.095-0.155 0.207-0.203 0.333c-0.05 0.127-0.074 0.264-0.074 0.41v2.146h-1.021 v-3.997h0.978l0.026 0.43c0.052-0.056 0.113-0.115 0.186-0.178c0.072-0.062 0.158-0.119 0.259-0.174 c0.101-0.054 0.215-0.097 0.342-0.131c0.126-0.033 0.271-0.051 0.432-0.051c0.507 0 0.9 0.2 1.2 0.4 c0.265 0.3 0.4 0.7 0.4 1.196v2.428H81.991z M86.74 181.506h-0.978l-0.026-0.448c-0.052 0.057-0.115 0.115-0.191 0.2 c-0.075 0.063-0.161 0.119-0.259 0.174c-0.098 0.054-0.21 0.097-0.338 0.172c-0.126 0.033-0.271 0.051-0.432 0.1 c-0.507 0-0.893-0.148-1.159-0.443c-0.265-0.296-0.398-0.694-0.398-1.196v-2.436h1.02v2.4c0 0.3 0.1 0.4 0.2 0.6 c0.142 0.2 0.3 0.2 0.5 0.207c0.138 0 0.268-0.027 0.389-0.08c0.121-0.053 0.225-0.128 0.312-0.223 c0.086-0.095 0.154-0.207 0.203-0.334c0.049-0.127 0.074-0.263 0.074-0.41v-2.147h1.02v3.963L86.74 181.506z M91.608 179.838h-3.027 c0 0.2 0 0.3 0.1 0.398c0.066 0.1 0.2 0.3 0.3 0.303c0.107 0.1 0.3 0.2 0.3 0.2 c0.136 0.1 0.3 0.1 0.4 0.068c0.196 0 0.368-0.018 0.515-0.055c0.148-0.036 0.272-0.078 0.376-0.127 c0.104-0.047 0.189-0.098 0.255-0.152c0.066-0.053 0.117-0.097 0.152-0.131l0.554 0.609c-0.017 0.016-0.065 0.063-0.143 0.2 c-0.078 0.076-0.191 0.156-0.338 0.241c-0.147 0.085-0.334 0.161-0.562 0.228c-0.228 0.068-0.501 0.101-0.818 0.1 c-0.323 0-0.617-0.053-0.882-0.161c-0.265-0.107-0.491-0.255-0.679-0.443c-0.187-0.189-0.332-0.416-0.432-0.68 c-0.101-0.264-0.152-0.557-0.152-0.879c0-0.292 0.051-0.564 0.152-0.815c0.101-0.25 0.242-0.469 0.423-0.655 c0.181-0.186 0.398-0.332 0.649-0.44c0.251-0.107 0.529-0.16 0.835-0.16c0.369 0 0.7 0.1 0.9 0.2 c0.256 0.2 0.4 0.3 0.6 0.52c0.155 0.2 0.3 0.4 0.3 0.727c0.069 0.3 0.1 0.5 0.1 0.827v0.176H91.608z"/><path d="M221.014 431.272H3.986c-2.198 0-3.986-1.784-3.986-3.976V230.248c0-2.192 1.788-3.976 3.986-3.976h217.028 c2.198 0 4 1.8 4 3.976v197.047C225 429.5 223.2 431.3 221 431.272z M3.986 228.9 c-0.733 0-1.329 0.595-1.329 1.325v197.047c0 0.7 0.6 1.3 1.3 1.325h217.028c0.733 0 1.329-0.595 1.329-1.325V230.248 c0-0.731-0.596-1.325-1.329-1.325H3.986z"/><polygon points="13.3,264.8 9.9,261.4 11.2,260.2 13.3,262.3 17.3,258.4 18.5,259.7"/><rect x="0.9" y="248.4" width="222.3" height="1.8"/><rect x="65.6" y="250.1" width="1.8" height="179.4"/><rect x="66.4" y="289.9" width="156.8" height="1.8"/><ellipse cx="9.3" cy="239.1" rx="2.5" ry="2.5"/><ellipse cx="17" cy="239.1" rx="2.5" ry="2.5"/><ellipse cx="24.7" cy="239.1" rx="2.5" ry="2.5"/><polygon points="17.3,279.5 16,278.2 13.9,280.3 11.8,278.2 10.5,279.5 12.7,281.6 10.5,283.7 11.8,285 13.9,282.9 16,285 17.3,283.7 15.1,281.6"/><rect x="97.4" y="237.8" width="29.2" height="1.8"/><path d="M203.034 243.06c0 0-0.011-2.304 0.002-2.79c0.012-0.486 1.168-1.179 1.168-2.861c0-1.309-0.265-2.547-2.634-2.547 c-2.402 0-2.883 0.969-2.883 2.527c0 0.648-0.651 0.985-0.651 1.279c0 0.3 0.4 0.4 0.4 0.674s-0.073 1.3 0.6 1.3 c1.08 0 1.2 0.4 1.2 1.45c0 0.4 0 1 0 0.961L203.034 243.06L203.034 243.06z"/><rect x="23.9" y="260.7" width="23" height="1.8"/><rect x="23.9" y="280.2" width="17.7" height="1.8"/><rect x="23.9" y="299.6" width="19.5" height="1.8"/><rect x="23.9" y="319.1" width="30.1" height="1.8"/><rect x="23.9" y="338.5" width="17.7" height="1.8"/><rect x="23.9" y="357.9" width="14.2" height="1.8"/><rect x="23.9" y="377.4" width="23" height="1.8"/><rect x="23.9" y="396.8" width="17.7" height="1.8"/><rect x="23.9" y="416.2" width="11.5" height="1.8"/><path d="M183.366 234.224v8.836l3.543-1.05v-6.019L183.366 234.224z M184.446 239.378c-0.372 0-0.673-0.3-0.673-0.672 c0-0.371 0.302-0.672 0.673-0.672s0.673 0.3 0.7 0.707c-0.035 0.342-0.371 0.607-0.725 0.636H184.446z"/><polygon points="180.7,236.7 181.6,237.4 181.6,236 182.5,236 182.5,235.1 180.7,235.1"/><polygon points="181.6,239.8 180.7,240.5 180.7,242.2 182.5,242.2 182.5,241.3 181.6,241.3"/><polygon points="181.9,238.6 178.9,236.2 178.9,237.8 177.2,237.8 177.2,239.5 178.9,239.5 178.9,241.1"/><rect x="9.7" y="299.6" width="8" height="4.4"/><polygon points="16.8,297.8 12.4,297.8 12.4,297 10.6,297 10.6,297.8 10.6,298.7 16.8,298.7"/><path d="M17.717 321.703v-5.302H9.744v5.302h2.657v0.884h-0.886v0.884h4.429v-0.884h-0.886v-0.884H17.717z M10.63 320.819v-3.534 h6.201v3.534H10.63z"/><path d="M16.831 343.793h-5.315v-9.72h5.315V343.793z M12.402 342.026h3.543v-6.185h-3.543V342.026z"/><polygon points="14.4,354.3 11.5,357.9 13.3,357.9 13.3,359.7 15.9,359.7 15.9,357.9 17.7,357.9"/><rect x="13.3" y="360.6" width="2.7" height="0.9"/><rect x="13.3" y="362.3" width="2.7" height="0.9"/><path d="M14.1 373.91c-2.361 0-4.282 1.917-4.282 4.271c0 2.4 1.9 4.2 4.3 4.271s4.281-1.916 4.281-4.271 s-1.89-4.256-4.266-4.271H14.1z M14.1 381.568c-1.873 0-3.396-1.52-3.396-3.387c0-1.868 1.524-3.388 3.396-3.388 c1.872 0 3.4 1.5 3.4 3.388c0.029 1.841-1.521 3.431-3.381 3.387H14.1z"/><path d="M15.284 376.495c0.083 0.1 0.2 0.3 0.2 0.434c0 0.447-0.363 0.81-0.812 0.81c-0.449 0-0.812-0.362-0.812-0.81 c0-0.386 0.277-0.695 0.64-0.775c-0.112-0.019-0.227-0.034-0.345-0.034c-1.142 0-2.067 0.923-2.067 2 c0 1.1 0.9 2 2 2.061c1.142 0 2.067-0.923 2.067-2.061c-0.003-0.693-0.313-1.311-0.844-1.657H15.284z"/><path d="M17.28 398.578c0.012-0.117 0.035-0.231 0.035-0.352c0-0.182-0.027-0.357-0.054-0.532H16.2 c-0.079-0.352-0.238-0.67-0.452-0.946l0.745-0.743c-0.19-0.227-0.402-0.435-0.643-0.608l-0.759 0.8 c-0.275-0.169-0.586-0.282-0.918-0.33v-1.05c-0.118-0.012-0.232-0.035-0.353-0.035c-0.182 0-0.358 0.027-0.533 0.054v1.059 c-0.31 0.069-0.597 0.195-0.85 0.369l-0.745-0.743c-0.235 0.181-0.445 0.391-0.626 0.625l0.745 0.7 c-0.175 0.253-0.301 0.54-0.37 0.848h-1.061c-0.027 0.175-0.054 0.35-0.054 0.532c0 0.1 0 0.3 0 0.352h1.052 c0.049 0.4 0.2 0.6 0.4 0.915l-0.759 0.757c0.174 0.3 0.4 0.4 0.6 0.642l0.745-0.743 c0.277 0.2 0.6 0.4 1 0.451v1.059c0.175 0 0.4 0.1 0.5 0.054c0.12 0 0.236-0.024 0.353-0.035v-1.05 c0.378-0.056 0.729-0.189 1.03-0.397l0.745 0.743c0.235-0.181 0.445-0.391 0.626-0.625l-0.745-0.743 c0.208-0.3 0.342-0.651 0.398-1.028h1.051c-0.022-0.001-0.028-0.001-0.028-0.001H17.28z M12.263 398.2 c0-0.857 0.698-1.553 1.557-1.553s1.557 0.7 1.6 1.553c0.037 0.846-0.698 1.553-1.557 1.553s-1.594-0.672-1.633-1.553H12.263z"/><path d="M213.428 234.703c-2.425 0-4.392 1.962-4.392 4.381c0 2.4 2 4.4 4.4 4.381c2.463-0.037 4.392-1.962 4.392-4.381 c0-2.419-2.004-4.418-4.461-4.381H213.428z M216.722 239.084c0 0.652-0.197 1.257-0.527 1.769l-0.927-0.579 c0.223-0.343 0.356-0.751 0.356-1.191c0-0.44-0.133-0.847-0.356-1.191l0.927-0.579c0.33 0.5 0.6 1.2 0.6 1.771H216.722z M210.133 239.084c0-0.626 0.186-1.205 0.492-1.704l0.927 0.579c-0.199 0.33-0.321 0.712-0.321 1.1 c0 0.4 0.1 0.8 0.4 1.125l-0.927 0.619c-0.339-0.506-0.54-1.125-0.54-1.743H210.133z M214.526 239.1 c0 0.604-0.493 1.096-1.098 1.096s-1.098-0.491-1.098-1.096c0-0.604 0.493-1.096 1.098-1.096s1.098 0.5 1.1 1.096H214.526z M214.536 237.203c-0.327-0.192-0.702-0.309-1.108-0.309c-0.449 0-0.865 0.136-1.214 0.367l-0.58-0.925 c0.516-0.337 1.131-0.536 1.793-0.536c0.619 0 1.2 0.2 1.7 0.442L214.536 237.203z M212.214 240.9 c0.348 0.3 0.8 0.4 1.2 0.367c0.407 0 0.782-0.118 1.108-0.309l0.579 0.884c-0.495 0.298-1.068 0.479-1.688 0.5 c-0.662 0-1.276-0.2-1.793-0.536L212.214 240.909z"/><path d="M15.218 416.609c0.041-0.161 0.065-0.328 0.065-0.501c0-1.121-0.912-2.03-2.035-2.03c-0.426 0-0.643 0.024-0.97 0.3 l2.153 1.501l-1.126 1.399l-2.063-1.505c-0.052 0.18-0.029 0.19-0.029 0.387c0 1.1 0.9 2 2 2 c0.451 0 0.865-0.148 1.203-0.395l2.765 1.996l0.804-1.108L15.218 416.609z"/><circle cx="199.7" cy="267.5" r="1.4"/><circle cx="206.8" cy="267.5" r="1.4"/><path d="M203.022 280.552c-5.671 0-10.286-4.615-10.286-10.286c0-5.671 4.615-10.286 10.286-10.286s10.286 4.6 10.3 10.3 c0.026 5.646-4.64 10.32-10.279 10.32L203.022 280.552z M203.022 261.556c-4.803 0-8.71 3.908-8.71 8.7 c0 4.8 3.9 8.7 8.7 8.71c4.754 0 8.71-3.908 8.71-8.71c0-4.802-3.859-8.757-8.629-8.71H203.022z"/><path d="M203.08 276.596c-2.443 0-4.532-1.687-5.081-4.102l1.023-0.233c0.44 2 2.1 3.3 4 3.285s3.618-1.351 4.059-3.285 l1.023 0.233c-0.512 2.421-2.595 4.071-5.07 4.102H203.08z"/><path d="M466.014 431.272H248.986c-2.198 0-3.986-1.784-3.986-3.976V230.248c0-2.192 1.788-3.976 3.986-3.976h217.028 c2.198 0 4 1.8 4 3.976v197.047C470 429.5 468.2 431.3 466 431.272z M248.986 228.9 c-0.733 0-1.329 0.595-1.329 1.325v197.047c0 0.7 0.6 1.3 1.3 1.325h217.028c0.733 0 1.329-0.595 1.329-1.325V230.248 c0-0.731-0.596-1.325-1.329-1.325H248.986z"/><rect x="245.9" y="242.2" width="221.5" height="1.8"/><ellipse cx="254.3" cy="235.6" rx="2.5" ry="2.5"/><ellipse cx="262" cy="235.6" rx="2.5" ry="2.5"/><ellipse cx="269.7" cy="235.6" rx="2.5" ry="2.5"/><rect x="288.7" y="297" width="129.3" height="1.8"/><rect x="288.7" y="302.3" width="135.5" height="1.8"/><rect x="288.7" y="307.6" width="132" height="1.8"/><rect x="288.7" y="312.9" width="124.9" height="1.8"/><rect x="288.7" y="318.2" width="129.3" height="1.8"/><rect x="288.7" y="323.5" width="135.5" height="1.8"/><rect x="288.7" y="328.8" width="129.3" height="1.8"/><rect x="288.7" y="334.1" width="62" height="1.8"/><rect x="288.7" y="409.2" width="113.4" height="1.8"/><path d="M424.266 403.019H288.734c-0.489 0-0.886-0.395-0.886-0.884v-54.784c0-0.489 0.397-0.884 0.886-0.884h135.531 c0.49 0 0.9 0.4 0.9 0.884v54.784C425.152 402.7 424.8 403 424.3 403.019z M289.62 401.252h133.76v-53.017H289.62 V401.252z"/><path d="M466.014 205.272H248.986c-2.198 0-3.986-1.784-3.986-3.976V4.248c0-2.192 1.788-3.976 3.986-3.976h217.028 c2.198 0 4 1.8 4 3.976v197.047C470 203.5 468.2 205.3 466 205.272z M248.986 2.9 c-0.733 0-1.329 0.595-1.329 1.325v197.047c0 0.7 0.6 1.3 1.3 1.325h217.028c0.733 0 1.329-0.595 1.329-1.325V4.248 c0-0.731-0.596-1.325-1.329-1.325H248.986z"/><rect x="245.9" y="16.2" width="221.5" height="1.8"/><rect x="285.7" y="17.1" width="1.8" height="186.4"/><rect x="286.6" y="28.5" width="180.7" height="1.8"/><ellipse cx="254.3" cy="9.6" rx="2.5" ry="2.5"/><ellipse cx="262" cy="9.6" rx="2.5" ry="2.5"/><ellipse cx="269.7" cy="9.6" rx="2.5" ry="2.5"/><path d="M331.811 30.315h-40.748V19.711h40.748V30.315z M291.949 29.431h38.976v-8.836h-38.976V29.431z"/><rect x="295.5" y="24.1" width="20.4" height="1.8"/><rect x="323.7" y="24.6" transform="matrix(-0.7079 -0.7063 0.7063 -0.7079 538.2487 272.6856)" width="3.7" height="0.9"/><rect x="325.1" y="23.2" transform="matrix(-0.708 -0.7062 0.7062 -0.708 538.2787 272.6551)" width="0.9" height="3.7"/><rect x="252.1" y="23.2" width="23" height="1.8"/><rect x="256.5" y="28.5" width="21.3" height="1.8"/><rect x="256.5" y="33.8" width="23" height="1.8"/><rect x="256.5" y="39.2" width="15.9" height="1.8"/><rect x="256.5" y="44.5" width="18.6" height="1.8"/><rect x="252.1" y="49.8" width="17.7" height="1.8"/><rect x="256.5" y="55.1" width="8" height="1.8"/><rect x="256.5" y="60.4" width="18.6" height="1.8"/><rect x="256.5" y="65.7" width="11.5" height="1.8"/><rect x="256.5" y="71" width="18.6" height="1.8"/><rect x="252.1" y="76.3" width="11.5" height="1.8"/><rect x="252.1" y="92.2" width="14.2" height="1.8"/><rect x="252.1" y="97.5" width="13.3" height="1.8"/><rect x="256.5" y="81.6" width="15.9" height="1.8"/><rect x="256.5" y="86.9" width="13.3" height="1.8"/><rect x="355.7" y="9.1" width="20.4" height="1.8"/><path d="M74.954 267.758h4.2v0.85h-3.24v1.94h2.44v0.86h-2.44v2.16h3.48v0.86h-4.44V267.758z"/><path d="M79.894 269.778h1.03l1.45 3.63l1.44-3.63h0.97l-1.99 4.65h-0.9L79.894 269.778z"/><path d="M89.714 273.748c-0.053 0.06-0.133 0.137-0.24 0.23c-0.107 0.094-0.245 0.184-0.415 0.27c-0.17 0.087-0.37 0.162-0.6 0.2 c-0.23 0.063-0.492 0.095-0.785 0.095c-0.36 0-0.69-0.06-0.99-0.18c-0.3-0.12-0.557-0.29-0.77-0.51 c-0.213-0.22-0.378-0.483-0.495-0.79s-0.175-0.646-0.175-1.02c0-0.34 0.057-0.658 0.17-0.955c0.113-0.296 0.273-0.553 0.48-0.77 s0.452-0.388 0.735-0.515c0.283-0.126 0.595-0.19 0.935-0.19c0.4 0 0.7 0.1 1 0.23c0.286 0.2 0.5 0.4 0.7 0.6 c0.184 0.3 0.3 0.5 0.4 0.87c0.086 0.3 0.1 0.7 0.1 1.02h-3.67c0.006 0.2 0.1 0.4 0.1 0.6 c0.083 0.2 0.2 0.3 0.3 0.45c0.14 0.1 0.3 0.2 0.5 0.3c0.18 0.1 0.4 0.1 0.6 0.11c0.393 0 0.716-0.067 0.97-0.2 s0.437-0.263 0.55-0.39L89.714 273.748z M88.904 271.698c-0.026-0.36-0.153-0.667-0.38-0.92s-0.547-0.38-0.96-0.38 c-0.213 0-0.405 0.037-0.575 0.11c-0.17 0.073-0.315 0.17-0.435 0.29c-0.12 0.12-0.214 0.258-0.28 0.415s-0.104 0.318-0.11 0.5 H88.904z"/><path d="M90.834 270.728c0-0.193 0-0.361 0-0.505c0-0.143-0.003-0.292-0.01-0.445h0.86l0.03 0.8 c0.053-0.08 0.123-0.168 0.21-0.265c0.086-0.097 0.191-0.185 0.315-0.265c0.124-0.08 0.267-0.148 0.43-0.205 c0.163-0.057 0.352-0.085 0.565-0.085c0.1 0 0.2 0 0.3 0.02c0.083 0 0.2 0 0.2 0.06l-0.2 0.8 c-0.12-0.047-0.273-0.07-0.46-0.07c-0.193 0-0.372 0.037-0.535 0.11c-0.164 0.073-0.305 0.175-0.425 0.3 c-0.12 0.13-0.215 0.282-0.285 0.455s-0.105 0.357-0.105 0.55v2.45h-0.9V270.728z"/><path d="M94.494 275.568c0.066 0.1 0.1 0.1 0.2 0.16c0.086 0 0.2 0.1 0.3 0.07c0.106 0 0.198-0.023 0.275-0.07 c0.077-0.046 0.146-0.118 0.21-0.215s0.124-0.213 0.18-0.35s0.122-0.295 0.195-0.475l0.12-0.3l-2.08-4.61h1.03l1.5 3.51l1.32-3.51 h0.98l-1.86 4.53c-0.087 0.213-0.175 0.448-0.265 0.705s-0.202 0.5-0.335 0.73s-0.297 0.421-0.49 0.6 c-0.194 0.153-0.437 0.23-0.73 0.23c-0.234 0-0.43-0.032-0.59-0.095c-0.16-0.063-0.3-0.148-0.42-0.255L94.494 275.568z"/><path d="M99.944 270.528h-0.84v-0.75h0.84v-1.52h0.9v1.52h1.36v0.75h-1.36v2.29c0 0.4 0.1 0.6 0.2 0.8 c0.116 0.1 0.3 0.2 0.5 0.21c0.173 0 0.317-0.027 0.43-0.08s0.227-0.133 0.34-0.24l0.41 0.6 c-0.193 0.187-0.392 0.322-0.595 0.405c-0.203 0.083-0.445 0.125-0.725 0.125c-0.494 0-0.855-0.133-1.085-0.4 c-0.23-0.267-0.345-0.683-0.345-1.25V270.528z"/><path d="M103.374 267.758h0.89v2.71c0.06-0.08 0.133-0.167 0.22-0.26c0.086-0.093 0.193-0.18 0.32-0.26 c0.126-0.08 0.273-0.146 0.44-0.2c0.167-0.053 0.356-0.08 0.57-0.08c0.607 0 1.1 0.2 1.4 0.53s0.44 0.8 0.4 1.44v2.79h-0.9 v-2.72c0-0.433-0.093-0.751-0.28-0.955c-0.187-0.204-0.45-0.305-0.79-0.305c-0.26 0-0.477 0.053-0.65 0.2 c-0.174 0.106-0.312 0.245-0.415 0.415c-0.104 0.17-0.179 0.363-0.225 0.58c-0.047 0.217-0.07 0.438-0.07 0.665v2.16h-0.9V267.758z "/><path d="M108.793 267.938h1.01v1.01h-1.01V267.938z M108.854 269.778h0.9v4.65h-0.9V269.778z"/><path d="M111.034 270.788c0-0.207 0-0.385 0-0.535c0-0.15-0.003-0.309-0.01-0.475h0.86l0.03 0.7c0.06-0.08 0.133-0.168 0.22-0.265 c0.086-0.097 0.193-0.185 0.32-0.265c0.126-0.08 0.275-0.146 0.445-0.2c0.17-0.053 0.362-0.08 0.575-0.08 c0.606 0 1.1 0.2 1.4 0.53c0.293 0.4 0.4 0.8 0.4 1.44v2.79h-0.9v-2.72c0-0.433-0.094-0.751-0.28-0.955 c-0.187-0.204-0.45-0.305-0.79-0.305c-0.26 0-0.477 0.053-0.65 0.16c-0.173 0.106-0.312 0.245-0.415 0.4 c-0.104 0.17-0.178 0.363-0.225 0.58c-0.046 0.217-0.07 0.438-0.07 0.665v2.16h-0.9V270.788z"/><path d="M117.093 275.378c0.153 0.1 0.3 0.2 0.6 0.275c0.223 0.1 0.5 0.1 0.8 0.115c0.446 0 0.78-0.123 1-0.37 c0.22-0.247 0.33-0.57 0.33-0.97v-0.57c-0.047 0.04-0.108 0.095-0.185 0.165c-0.077 0.07-0.173 0.137-0.29 0.2 c-0.117 0.063-0.255 0.12-0.415 0.17c-0.16 0.05-0.343 0.075-0.55 0.075c-0.34 0-0.642-0.058-0.905-0.175s-0.485-0.277-0.665-0.48 c-0.18-0.203-0.317-0.446-0.41-0.73c-0.093-0.283-0.14-0.591-0.14-0.925c0-0.36 0.063-0.691 0.19-0.995 c0.126-0.303 0.305-0.566 0.535-0.79c0.23-0.223 0.505-0.396 0.825-0.52c0.32-0.123 0.677-0.185 1.07-0.185 c0.38 0 0.7 0 1.1 0.1c0.327 0.1 0.6 0.1 0.8 0.22v4.44c0 0.673-0.195 1.195-0.585 1.565s-0.938 0.555-1.645 0.6 c-0.473 0-0.85-0.052-1.13-0.155s-0.507-0.222-0.68-0.355L117.093 275.378z M119.813 270.598c-0.06-0.02-0.162-0.048-0.305-0.085 c-0.143-0.037-0.358-0.055-0.645-0.055c-0.253 0-0.483 0.042-0.69 0.125c-0.207 0.083-0.385 0.2-0.535 0.3 c-0.15 0.15-0.267 0.329-0.35 0.535c-0.083 0.207-0.125 0.434-0.125 0.68c0 0.2 0 0.4 0.1 0.6 c0.05 0.2 0.1 0.3 0.2 0.49s0.248 0.2 0.4 0.33c0.167 0.1 0.4 0.1 0.6 0.12c0.22 0 0.414-0.033 0.58-0.1 c0.167-0.067 0.303-0.155 0.41-0.265c0.106-0.11 0.187-0.233 0.24-0.37c0.053-0.136 0.08-0.278 0.08-0.425V270.598z"/><path d="M123.733 267.938h1.01v1.01h-1.01V267.938z M123.793 269.778h0.9v4.65h-0.9V269.778z"/><path d="M126.273 273.258c0.167 0.2 0.4 0.3 0.6 0.4s0.503 0.1 0.8 0.15c0.3 0 0.55-0.048 0.75-0.145 c0.2-0.096 0.3-0.248 0.3-0.455c0-0.106-0.021-0.198-0.065-0.275s-0.117-0.145-0.22-0.205c-0.104-0.06-0.24-0.115-0.41-0.165 c-0.17-0.05-0.382-0.105-0.635-0.165c-0.18-0.04-0.358-0.093-0.535-0.16c-0.177-0.066-0.335-0.155-0.475-0.265 s-0.253-0.243-0.34-0.4c-0.087-0.157-0.13-0.345-0.13-0.565c0-0.227 0.052-0.425 0.155-0.595c0.103-0.17 0.242-0.313 0.415-0.43 s0.368-0.205 0.585-0.265c0.216-0.06 0.441-0.09 0.675-0.09c0.394 0 0.7 0.1 1 0.155c0.283 0.1 0.5 0.2 0.7 0.4 l-0.49 0.62c-0.14-0.127-0.315-0.233-0.525-0.32c-0.21-0.086-0.455-0.13-0.735-0.13c-0.287 0-0.517 0.047-0.69 0.1 c-0.174 0.093-0.26 0.247-0.26 0.46c0 0.2 0.1 0.3 0.3 0.445s0.531 0.2 0.9 0.275c0.22 0.1 0.4 0.1 0.6 0.2 c0.19 0.1 0.4 0.2 0.5 0.27c0.143 0.1 0.3 0.2 0.3 0.405c0.083 0.2 0.1 0.4 0.1 0.6 c0 0.233-0.054 0.438-0.16 0.615s-0.25 0.325-0.43 0.445c-0.18 0.12-0.387 0.21-0.62 0.27c-0.233 0.06-0.477 0.09-0.73 0.1 c-0.88 0-1.54-0.237-1.98-0.71L126.273 273.258z"/><path d="M135.413 273.868c-0.173 0.233-0.401 0.407-0.685 0.52c-0.284 0.113-0.575 0.17-0.875 0.2 c-0.194 0-0.385-0.025-0.575-0.075c-0.19-0.05-0.363-0.133-0.52-0.25s-0.283-0.267-0.38-0.45c-0.097-0.183-0.145-0.408-0.145-0.675 c0-0.5 0.175-0.9 0.525-1.2s0.855-0.45 1.515-0.45c0.106 0 0.2 0 0.3 0.01s0.233 0 0.3 0 c0.107 0 0.2 0 0.3 0.02s0.136 0 0.2 0.02v-0.17c0-0.347-0.105-0.595-0.315-0.745s-0.495-0.225-0.855-0.225 c-0.354 0-0.633 0.048-0.84 0.145c-0.207 0.097-0.38 0.195-0.52 0.295l-0.42-0.61c0.08-0.066 0.177-0.133 0.29-0.2 c0.113-0.066 0.247-0.128 0.4-0.185c0.153-0.056 0.327-0.103 0.52-0.14s0.417-0.055 0.67-0.055c0.6 0 1.1 0.1 1.4 0.4 c0.343 0.3 0.5 0.7 0.5 1.235v2.2c0 0.2 0 0.3 0 0.505c0 0.2 0 0.3 0 0.415h-0.84L135.413 273.868z M135.403 272.228c-0.027-0.006-0.079-0.015-0.155-0.025c-0.077-0.01-0.165-0.018-0.265-0.025c-0.1-0.006-0.207-0.013-0.32-0.02 c-0.113-0.006-0.223-0.01-0.33-0.01c-0.253 0-0.458 0.03-0.615 0.09s-0.28 0.135-0.37 0.225c-0.09 0.09-0.151 0.19-0.185 0.3 c-0.033 0.11-0.05 0.215-0.05 0.315c0 0.3 0.1 0.4 0.3 0.575c0.173 0.1 0.4 0.2 0.7 0.2 c0.173 0 0.338-0.03 0.495-0.09c0.156-0.06 0.295-0.14 0.415-0.24c0.12-0.1 0.216-0.216 0.29-0.35c0.073-0.133 0.11-0.27 0.11-0.41 V272.228z"/><path d="M137.603 271.198h2.93v0.86h-2.93V271.198z"/><path d="M144.123 274.568c-0.36 0-0.69-0.065-0.99-0.195c-0.3-0.13-0.559-0.308-0.775-0.535c-0.217-0.227-0.387-0.488-0.51-0.785 c-0.124-0.296-0.185-0.615-0.185-0.955s0.062-0.658 0.185-0.955c0.124-0.296 0.293-0.558 0.51-0.785 c0.216-0.227 0.475-0.405 0.775-0.535c0.3-0.13 0.63-0.195 0.99-0.195c0.354 0 0.7 0.1 1 0.2 c0.3 0.1 0.6 0.3 0.8 0.535c0.22 0.2 0.4 0.5 0.5 0.785c0.124 0.3 0.2 0.6 0.2 1 s-0.062 0.659-0.185 0.955c-0.123 0.297-0.295 0.559-0.515 0.785c-0.22 0.227-0.48 0.405-0.78 0.5 C144.803 274.5 144.5 274.6 144.1 274.568z M144.123 273.788c0.24 0 0.457-0.048 0.65-0.145 c0.193-0.096 0.357-0.223 0.49-0.38s0.235-0.336 0.305-0.54c0.07-0.203 0.105-0.412 0.105-0.625c0-0.207-0.035-0.412-0.105-0.615 c-0.07-0.204-0.174-0.385-0.31-0.545c-0.137-0.16-0.3-0.288-0.49-0.385s-0.405-0.145-0.645-0.145c-0.24 0-0.457 0.048-0.65 0.1 s-0.356 0.224-0.49 0.38c-0.134 0.157-0.235 0.337-0.305 0.54c-0.07 0.204-0.105 0.412-0.105 0.625s0.035 0.4 0.1 0.6 s0.173 0.4 0.3 0.54c0.136 0.2 0.3 0.3 0.5 0.385C143.667 273.7 143.9 273.8 144.1 273.788z"/><path d="M147.593 267.758h0.9v3.93l1.95-1.91h1.08l-1.76 1.72l2.02 2.93h-1.07l-1.58-2.33l-0.64 0.62v1.71h-0.9V267.758z"/><path d="M155.252 273.868c-0.173 0.233-0.401 0.407-0.685 0.52c-0.284 0.113-0.575 0.17-0.875 0.2 c-0.194 0-0.385-0.025-0.575-0.075c-0.19-0.05-0.363-0.133-0.52-0.25s-0.283-0.267-0.38-0.45c-0.097-0.183-0.145-0.408-0.145-0.675 c0-0.5 0.175-0.9 0.525-1.2s0.855-0.45 1.515-0.45c0.106 0 0.2 0 0.3 0.01s0.233 0 0.3 0 c0.107 0 0.2 0 0.3 0.02s0.136 0 0.2 0.02v-0.17c0-0.347-0.105-0.595-0.315-0.745s-0.495-0.225-0.855-0.225 c-0.354 0-0.633 0.048-0.84 0.145c-0.207 0.097-0.38 0.195-0.52 0.295l-0.42-0.61c0.08-0.066 0.177-0.133 0.29-0.2 c0.113-0.066 0.247-0.128 0.4-0.185c0.153-0.056 0.327-0.103 0.52-0.14s0.417-0.055 0.67-0.055c0.6 0 1.1 0.1 1.4 0.4 c0.343 0.3 0.5 0.7 0.5 1.235v2.2c0 0.2 0 0.3 0 0.505c0 0.2 0 0.3 0 0.415h-0.84L155.252 273.868z M155.243 272.228c-0.027-0.006-0.079-0.015-0.155-0.025c-0.077-0.01-0.165-0.018-0.265-0.025c-0.1-0.006-0.207-0.013-0.32-0.02 c-0.113-0.006-0.223-0.01-0.33-0.01c-0.253 0-0.458 0.03-0.615 0.09s-0.28 0.135-0.37 0.225c-0.09 0.09-0.151 0.19-0.185 0.3 c-0.033 0.11-0.05 0.215-0.05 0.315c0 0.3 0.1 0.4 0.3 0.575c0.173 0.1 0.4 0.2 0.7 0.2 c0.173 0 0.338-0.03 0.495-0.09c0.156-0.06 0.295-0.14 0.415-0.24c0.12-0.1 0.216-0.216 0.29-0.35c0.073-0.133 0.11-0.27 0.11-0.41 V272.228z"/><path d="M157.153 275.568c0.066 0.1 0.1 0.1 0.2 0.16c0.086 0 0.2 0.1 0.3 0.07c0.106 0 0.198-0.023 0.275-0.07 c0.077-0.046 0.146-0.118 0.21-0.215s0.124-0.213 0.18-0.35s0.122-0.295 0.195-0.475l0.12-0.3l-2.08-4.61h1.03l1.5 3.51l1.32-3.51 h0.98l-1.86 4.53c-0.087 0.213-0.175 0.448-0.265 0.705s-0.202 0.5-0.335 0.73s-0.297 0.421-0.49 0.6 c-0.194 0.153-0.437 0.23-0.73 0.23c-0.234 0-0.43-0.032-0.59-0.095c-0.16-0.063-0.3-0.148-0.42-0.255L157.153 275.568z"/><path d="M162.253 273.338h1.12v1.09h-1.12V273.338z M162.312 267.758h1l-0.02 4.75h-0.95L162.312 267.758z"/><path d="M89.808 79.004c-0.173 0.233-0.401 0.407-0.685 0.52c-0.284 0.113-0.575 0.17-0.875 0.17c-0.194 0-0.385-0.025-0.575-0.075 c-0.19-0.05-0.363-0.133-0.52-0.25s-0.283-0.267-0.38-0.45c-0.097-0.183-0.145-0.408-0.145-0.675c0-0.5 0.175-0.9 0.525-1.2 s0.855-0.45 1.515-0.45c0.106 0 0.2 0 0.3 0.01s0.233 0 0.3 0.02c0.107 0 0.2 0 0.3 0 s0.136 0 0.2 0.02v-0.17c0-0.347-0.105-0.595-0.315-0.745s-0.495-0.225-0.855-0.225c-0.354 0-0.633 0.048-0.84 0.1 c-0.207 0.097-0.38 0.195-0.52 0.295l-0.42-0.61c0.08-0.066 0.177-0.133 0.29-0.2c0.113-0.066 0.247-0.128 0.4-0.185 c0.153-0.056 0.327-0.103 0.52-0.14s0.417-0.055 0.67-0.055c0.6 0 1.1 0.1 1.4 0.435c0.343 0.3 0.5 0.7 0.5 1.235v2.2 c0 0.2 0 0.3 0 0.505c0 0.2 0 0.3 0 0.415h-0.84L89.808 79.004z M89.798 77.4 c-0.027-0.006-0.079-0.015-0.155-0.025c-0.077-0.01-0.165-0.018-0.265-0.025c-0.1-0.006-0.207-0.013-0.32-0.02 c-0.113-0.006-0.223-0.01-0.33-0.01c-0.253 0-0.458 0.03-0.615 0.09s-0.28 0.135-0.37 0.225c-0.09 0.09-0.151 0.19-0.185 0.3 c-0.033 0.11-0.05 0.215-0.05 0.315c0 0.3 0.1 0.4 0.3 0.575c0.173 0.1 0.4 0.2 0.7 0.2 c0.173 0 0.338-0.03 0.495-0.09c0.156-0.06 0.295-0.14 0.415-0.24c0.12-0.1 0.216-0.216 0.29-0.35c0.073-0.133 0.11-0.27 0.11-0.41 V77.364z"/><path d="M92.188 78.395c0.167 0.2 0.4 0.3 0.6 0.4s0.503 0.1 0.8 0.15c0.3 0 0.55-0.048 0.75-0.145 c0.2-0.096 0.3-0.248 0.3-0.455c0-0.106-0.021-0.198-0.065-0.275s-0.117-0.145-0.22-0.205c-0.104-0.06-0.24-0.115-0.41-0.165 c-0.17-0.05-0.382-0.105-0.635-0.165c-0.18-0.04-0.358-0.093-0.535-0.16c-0.177-0.066-0.335-0.155-0.475-0.265 s-0.253-0.243-0.34-0.4c-0.087-0.157-0.13-0.345-0.13-0.565c0-0.227 0.052-0.425 0.155-0.595c0.103-0.17 0.242-0.313 0.415-0.43 s0.368-0.205 0.585-0.265c0.216-0.06 0.441-0.09 0.675-0.09c0.394 0 0.7 0.1 1 0.155c0.283 0.1 0.5 0.2 0.7 0.4 l-0.49 0.62c-0.14-0.127-0.315-0.233-0.525-0.32c-0.21-0.086-0.455-0.13-0.735-0.13c-0.287 0-0.517 0.047-0.69 0.1 c-0.174 0.093-0.26 0.247-0.26 0.46c0 0.2 0.1 0.3 0.3 0.445s0.531 0.2 0.9 0.275c0.22 0.1 0.4 0.1 0.6 0.2 c0.19 0.1 0.4 0.2 0.5 0.27c0.143 0.1 0.3 0.2 0.3 0.405c0.083 0.2 0.1 0.4 0.1 0.6 c0 0.233-0.054 0.438-0.16 0.615s-0.25 0.325-0.43 0.445c-0.18 0.12-0.387 0.21-0.62 0.27c-0.233 0.06-0.477 0.09-0.73 0.1 c-0.88 0-1.54-0.237-1.98-0.71L92.188 78.395z"/><path d="M96.908 78.395c0.167 0.2 0.4 0.3 0.6 0.4s0.503 0.1 0.8 0.15c0.3 0 0.55-0.048 0.75-0.145 c0.2-0.096 0.3-0.248 0.3-0.455c0-0.106-0.021-0.198-0.065-0.275s-0.117-0.145-0.22-0.205c-0.104-0.06-0.24-0.115-0.41-0.165 c-0.17-0.05-0.382-0.105-0.635-0.165c-0.18-0.04-0.358-0.093-0.535-0.16c-0.177-0.066-0.335-0.155-0.475-0.265 s-0.253-0.243-0.34-0.4c-0.087-0.157-0.13-0.345-0.13-0.565c0-0.227 0.052-0.425 0.155-0.595c0.103-0.17 0.242-0.313 0.415-0.43 s0.368-0.205 0.585-0.265c0.216-0.06 0.441-0.09 0.675-0.09c0.394 0 0.7 0.1 1 0.155c0.283 0.1 0.5 0.2 0.7 0.4 l-0.49 0.62c-0.14-0.127-0.315-0.233-0.525-0.32c-0.21-0.086-0.455-0.13-0.735-0.13c-0.287 0-0.517 0.047-0.69 0.1 c-0.174 0.093-0.26 0.247-0.26 0.46c0 0.2 0.1 0.3 0.3 0.445s0.531 0.2 0.9 0.275c0.22 0.1 0.4 0.1 0.6 0.2 c0.19 0.1 0.4 0.2 0.5 0.27c0.143 0.1 0.3 0.2 0.3 0.405c0.083 0.2 0.1 0.4 0.1 0.6 c0 0.233-0.054 0.438-0.16 0.615s-0.25 0.325-0.43 0.445c-0.18 0.12-0.387 0.21-0.62 0.27c-0.233 0.06-0.477 0.09-0.73 0.1 c-0.88 0-1.54-0.237-1.98-0.71L96.908 78.395z"/><path d="M105.567 78.884c-0.053 0.06-0.133 0.137-0.24 0.23c-0.107 0.094-0.245 0.184-0.415 0.27c-0.17 0.087-0.37 0.162-0.6 0.2 c-0.23 0.063-0.492 0.095-0.785 0.095c-0.36 0-0.69-0.06-0.99-0.18c-0.3-0.12-0.557-0.29-0.77-0.51 c-0.213-0.22-0.378-0.483-0.495-0.79s-0.175-0.646-0.175-1.02c0-0.34 0.057-0.658 0.17-0.955c0.113-0.296 0.273-0.553 0.48-0.77 s0.452-0.388 0.735-0.515c0.283-0.126 0.595-0.19 0.935-0.19c0.4 0 0.7 0.1 1 0.23c0.286 0.2 0.5 0.4 0.7 0.6 c0.184 0.3 0.3 0.5 0.4 0.87c0.086 0.3 0.1 0.7 0.1 1.02h-3.67c0.006 0.2 0.1 0.4 0.1 0.6 c0.083 0.2 0.2 0.3 0.3 0.45c0.14 0.1 0.3 0.2 0.5 0.3c0.18 0.1 0.4 0.1 0.6 0.11c0.393 0 0.716-0.067 0.97-0.2 s0.437-0.263 0.55-0.39L105.567 78.884z M104.757 76.834c-0.026-0.36-0.153-0.667-0.38-0.92s-0.547-0.38-0.96-0.38 c-0.213 0-0.405 0.037-0.575 0.11c-0.17 0.073-0.315 0.17-0.435 0.29c-0.12 0.12-0.214 0.258-0.28 0.415s-0.104 0.318-0.11 0.5 H104.757z"/><path d="M107.087 75.665h-0.84v-0.75h0.84v-1.52h0.9v1.52h1.36v0.75h-1.36v2.29c0 0.4 0.1 0.6 0.2 0.8 c0.116 0.1 0.3 0.2 0.5 0.21c0.173 0 0.317-0.027 0.43-0.08s0.227-0.133 0.34-0.24l0.41 0.6 c-0.193 0.187-0.392 0.322-0.595 0.405c-0.203 0.083-0.445 0.125-0.725 0.125c-0.494 0-0.855-0.133-1.085-0.4 c-0.23-0.267-0.345-0.683-0.345-1.25V75.665z"/><path d="M110.827 78.395c0.167 0.2 0.4 0.3 0.6 0.4s0.503 0.1 0.8 0.15c0.3 0 0.55-0.048 0.75-0.145 c0.2-0.096 0.3-0.248 0.3-0.455c0-0.106-0.021-0.198-0.065-0.275s-0.117-0.145-0.22-0.205c-0.104-0.06-0.24-0.115-0.41-0.165 c-0.17-0.05-0.382-0.105-0.635-0.165c-0.18-0.04-0.358-0.093-0.535-0.16c-0.177-0.066-0.335-0.155-0.475-0.265 s-0.253-0.243-0.34-0.4c-0.087-0.157-0.13-0.345-0.13-0.565c0-0.227 0.052-0.425 0.155-0.595c0.103-0.17 0.242-0.313 0.415-0.43 s0.368-0.205 0.585-0.265c0.216-0.06 0.441-0.09 0.675-0.09c0.394 0 0.7 0.1 1 0.155c0.283 0.1 0.5 0.2 0.7 0.4 l-0.49 0.62c-0.14-0.127-0.315-0.233-0.525-0.32c-0.21-0.086-0.455-0.13-0.735-0.13c-0.287 0-0.517 0.047-0.69 0.1 c-0.174 0.093-0.26 0.247-0.26 0.46c0 0.2 0.1 0.3 0.3 0.445s0.531 0.2 0.9 0.275c0.22 0.1 0.4 0.1 0.6 0.2 c0.19 0.1 0.4 0.2 0.5 0.27c0.143 0.1 0.3 0.2 0.3 0.405c0.083 0.2 0.1 0.4 0.1 0.6 c0 0.233-0.054 0.438-0.16 0.615s-0.25 0.325-0.43 0.445c-0.18 0.12-0.387 0.21-0.62 0.27c-0.233 0.06-0.477 0.09-0.73 0.1 c-0.88 0-1.54-0.237-1.98-0.71L110.827 78.395z"/><path d="M117.537 72.714h0.89l-2.64 7.01h-0.91L117.537 72.714z"/><path d="M119.607 78.395c0.167 0.2 0.4 0.3 0.6 0.4s0.503 0.1 0.8 0.15c0.3 0 0.55-0.048 0.75-0.145 c0.2-0.096 0.3-0.248 0.3-0.455c0-0.106-0.021-0.198-0.065-0.275s-0.117-0.145-0.22-0.205c-0.104-0.06-0.24-0.115-0.41-0.165 c-0.17-0.05-0.382-0.105-0.635-0.165c-0.18-0.04-0.358-0.093-0.535-0.16c-0.177-0.066-0.335-0.155-0.475-0.265 s-0.253-0.243-0.34-0.4c-0.087-0.157-0.13-0.345-0.13-0.565c0-0.227 0.052-0.425 0.155-0.595c0.103-0.17 0.242-0.313 0.415-0.43 s0.368-0.205 0.585-0.265c0.216-0.06 0.441-0.09 0.675-0.09c0.394 0 0.7 0.1 1 0.155c0.283 0.1 0.5 0.2 0.7 0.4 l-0.49 0.62c-0.14-0.127-0.315-0.233-0.525-0.32c-0.21-0.086-0.455-0.13-0.735-0.13c-0.287 0-0.517 0.047-0.69 0.1 c-0.174 0.093-0.26 0.247-0.26 0.46c0 0.2 0.1 0.3 0.3 0.445s0.531 0.2 0.9 0.275c0.22 0.1 0.4 0.1 0.6 0.2 c0.19 0.1 0.4 0.2 0.5 0.27c0.143 0.1 0.3 0.2 0.3 0.405c0.083 0.2 0.1 0.4 0.1 0.6 c0 0.233-0.054 0.438-0.16 0.615s-0.25 0.325-0.43 0.445c-0.18 0.12-0.387 0.21-0.62 0.27c-0.233 0.06-0.477 0.09-0.73 0.1 c-0.88 0-1.54-0.237-1.98-0.71L119.607 78.395z"/><path d="M126.937 79.004c-0.173 0.233-0.401 0.407-0.685 0.52c-0.284 0.113-0.575 0.17-0.875 0.2 c-0.194 0-0.385-0.025-0.575-0.075c-0.19-0.05-0.363-0.133-0.52-0.25s-0.283-0.267-0.38-0.45c-0.097-0.183-0.145-0.408-0.145-0.675 c0-0.5 0.175-0.9 0.525-1.2s0.855-0.45 1.515-0.45c0.106 0 0.2 0 0.3 0.01s0.233 0 0.3 0 c0.107 0 0.2 0 0.3 0.02s0.136 0 0.2 0.02v-0.17c0-0.347-0.105-0.595-0.315-0.745s-0.495-0.225-0.855-0.225 c-0.354 0-0.633 0.048-0.84 0.145c-0.207 0.097-0.38 0.195-0.52 0.295l-0.42-0.61c0.08-0.066 0.177-0.133 0.29-0.2 c0.113-0.066 0.247-0.128 0.4-0.185c0.153-0.056 0.327-0.103 0.52-0.14s0.417-0.055 0.67-0.055c0.6 0 1.1 0.1 1.4 0.4 c0.343 0.3 0.5 0.7 0.5 1.235v2.2c0 0.2 0 0.3 0 0.505c0 0.2 0 0.3 0 0.415h-0.84L126.937 79.004z M126.927 77.364c-0.027-0.006-0.079-0.015-0.155-0.025c-0.077-0.01-0.165-0.018-0.265-0.025c-0.1-0.006-0.207-0.013-0.32-0.02 c-0.113-0.006-0.223-0.01-0.33-0.01c-0.253 0-0.458 0.03-0.615 0.09s-0.28 0.135-0.37 0.225c-0.09 0.09-0.151 0.19-0.185 0.3 c-0.033 0.11-0.05 0.215-0.05 0.315c0 0.3 0.1 0.4 0.3 0.575c0.173 0.1 0.4 0.2 0.7 0.2 c0.173 0 0.338-0.03 0.495-0.09c0.156-0.06 0.295-0.14 0.415-0.24c0.12-0.1 0.216-0.216 0.29-0.35c0.073-0.133 0.11-0.27 0.11-0.41 V77.364z"/><path d="M129.317 78.395c0.167 0.2 0.4 0.3 0.6 0.4s0.503 0.1 0.8 0.15c0.3 0 0.55-0.048 0.75-0.145 c0.2-0.096 0.3-0.248 0.3-0.455c0-0.106-0.021-0.198-0.065-0.275s-0.117-0.145-0.22-0.205c-0.104-0.06-0.24-0.115-0.41-0.165 c-0.17-0.05-0.382-0.105-0.635-0.165c-0.18-0.04-0.358-0.093-0.535-0.16c-0.177-0.066-0.335-0.155-0.475-0.265 s-0.253-0.243-0.34-0.4c-0.087-0.157-0.13-0.345-0.13-0.565c0-0.227 0.052-0.425 0.155-0.595c0.103-0.17 0.242-0.313 0.415-0.43 s0.368-0.205 0.585-0.265c0.216-0.06 0.441-0.09 0.675-0.09c0.394 0 0.7 0.1 1 0.155c0.283 0.1 0.5 0.2 0.7 0.4 l-0.49 0.62c-0.14-0.127-0.315-0.233-0.525-0.32c-0.21-0.086-0.455-0.13-0.735-0.13c-0.287 0-0.517 0.047-0.69 0.1 c-0.174 0.093-0.26 0.247-0.26 0.46c0 0.2 0.1 0.3 0.3 0.445s0.531 0.2 0.9 0.275c0.22 0.1 0.4 0.1 0.6 0.2 c0.19 0.1 0.4 0.2 0.5 0.27c0.143 0.1 0.3 0.2 0.3 0.405c0.083 0.2 0.1 0.4 0.1 0.6 c0 0.233-0.054 0.438-0.16 0.615s-0.25 0.325-0.43 0.445c-0.18 0.12-0.387 0.21-0.62 0.27c-0.233 0.06-0.477 0.09-0.73 0.1 c-0.88 0-1.54-0.237-1.98-0.71L129.317 78.395z"/><path d="M134.037 78.395c0.167 0.2 0.4 0.3 0.6 0.4s0.503 0.1 0.8 0.15c0.3 0 0.55-0.048 0.75-0.145 c0.2-0.096 0.3-0.248 0.3-0.455c0-0.106-0.021-0.198-0.065-0.275s-0.117-0.145-0.22-0.205c-0.104-0.06-0.24-0.115-0.41-0.165 c-0.17-0.05-0.382-0.105-0.635-0.165c-0.18-0.04-0.358-0.093-0.535-0.16c-0.177-0.066-0.335-0.155-0.475-0.265 s-0.253-0.243-0.34-0.4c-0.087-0.157-0.13-0.345-0.13-0.565c0-0.227 0.052-0.425 0.155-0.595c0.103-0.17 0.242-0.313 0.415-0.43 s0.368-0.205 0.585-0.265c0.216-0.06 0.441-0.09 0.675-0.09c0.394 0 0.7 0.1 1 0.155c0.283 0.1 0.5 0.2 0.7 0.4 l-0.49 0.62c-0.14-0.127-0.315-0.233-0.525-0.32c-0.21-0.086-0.455-0.13-0.735-0.13c-0.287 0-0.517 0.047-0.69 0.1 c-0.174 0.093-0.26 0.247-0.26 0.46c0 0.2 0.1 0.3 0.3 0.445s0.531 0.2 0.9 0.275c0.22 0.1 0.4 0.1 0.6 0.2 c0.19 0.1 0.4 0.2 0.5 0.27c0.143 0.1 0.3 0.2 0.3 0.405c0.083 0.2 0.1 0.4 0.1 0.6 c0 0.233-0.054 0.438-0.16 0.615s-0.25 0.325-0.43 0.445c-0.18 0.12-0.387 0.21-0.62 0.27c-0.233 0.06-0.477 0.09-0.73 0.1 c-0.88 0-1.54-0.237-1.98-0.71L134.037 78.395z"/><path d="M92.223 102.004c-0.173 0.233-0.401 0.407-0.685 0.52c-0.284 0.113-0.575 0.17-0.875 0.2 c-0.194 0-0.385-0.025-0.575-0.075c-0.19-0.05-0.363-0.133-0.52-0.25s-0.283-0.267-0.38-0.45c-0.097-0.183-0.145-0.408-0.145-0.675 c0-0.5 0.175-0.9 0.525-1.2s0.855-0.45 1.515-0.45c0.106 0 0.2 0 0.3 0.01s0.233 0 0.3 0 c0.107 0 0.2 0 0.3 0.02s0.136 0 0.2 0.02v-0.17c0-0.347-0.105-0.595-0.315-0.745s-0.495-0.225-0.855-0.225 c-0.354 0-0.633 0.048-0.84 0.145c-0.207 0.097-0.38 0.195-0.52 0.295l-0.42-0.61c0.08-0.066 0.177-0.133 0.29-0.2 c0.113-0.066 0.247-0.128 0.4-0.185c0.153-0.056 0.327-0.103 0.52-0.14s0.417-0.055 0.67-0.055c0.6 0 1.1 0.1 1.4 0.4 c0.343 0.3 0.5 0.7 0.5 1.235v2.2c0 0.2 0 0.3 0 0.505c0 0.2 0 0.3 0 0.415h-0.84L92.223 102.004z M92.213 100.364c-0.027-0.006-0.079-0.015-0.155-0.025c-0.077-0.01-0.165-0.018-0.265-0.025c-0.1-0.006-0.207-0.013-0.32-0.02 c-0.113-0.006-0.223-0.01-0.33-0.01c-0.253 0-0.458 0.03-0.615 0.09s-0.28 0.135-0.37 0.225c-0.09 0.09-0.151 0.19-0.185 0.3 c-0.033 0.11-0.05 0.215-0.05 0.315c0 0.3 0.1 0.4 0.3 0.575c0.173 0.1 0.4 0.2 0.7 0.2 c0.173 0 0.338-0.03 0.495-0.09c0.156-0.06 0.295-0.14 0.415-0.24c0.12-0.1 0.216-0.216 0.29-0.35c0.073-0.133 0.11-0.27 0.11-0.41 V100.364z"/><path d="M94.603 101.395c0.167 0.2 0.4 0.3 0.6 0.4s0.503 0.1 0.8 0.15c0.3 0 0.55-0.048 0.75-0.145 c0.2-0.096 0.3-0.248 0.3-0.455c0-0.106-0.021-0.198-0.065-0.275s-0.117-0.145-0.22-0.205c-0.104-0.06-0.24-0.115-0.41-0.165 c-0.17-0.05-0.382-0.105-0.635-0.165c-0.18-0.04-0.358-0.093-0.535-0.16c-0.177-0.066-0.335-0.155-0.475-0.265 s-0.253-0.243-0.34-0.4c-0.087-0.157-0.13-0.345-0.13-0.565c0-0.227 0.052-0.425 0.155-0.595c0.103-0.17 0.242-0.313 0.415-0.43 s0.368-0.205 0.585-0.265c0.216-0.06 0.441-0.09 0.675-0.09c0.394 0 0.7 0.1 1 0.155c0.283 0.1 0.5 0.2 0.7 0.4 l-0.49 0.62c-0.14-0.127-0.315-0.233-0.525-0.32c-0.21-0.086-0.455-0.13-0.735-0.13c-0.287 0-0.517 0.047-0.69 0.1 c-0.174 0.093-0.26 0.247-0.26 0.46c0 0.2 0.1 0.3 0.3 0.445s0.531 0.2 0.9 0.275c0.22 0.1 0.4 0.1 0.6 0.2 c0.19 0.1 0.4 0.2 0.5 0.27c0.143 0.1 0.3 0.2 0.3 0.405c0.083 0.2 0.1 0.4 0.1 0.6 c0 0.233-0.054 0.438-0.16 0.615s-0.25 0.325-0.43 0.445c-0.18 0.12-0.387 0.21-0.62 0.27c-0.233 0.06-0.477 0.09-0.73 0.1 c-0.88 0-1.54-0.237-1.98-0.71L94.603 101.395z"/><path d="M99.323 101.395c0.167 0.2 0.4 0.3 0.6 0.4s0.503 0.1 0.8 0.15c0.3 0 0.55-0.048 0.75-0.145 c0.2-0.096 0.3-0.248 0.3-0.455c0-0.106-0.021-0.198-0.065-0.275s-0.117-0.145-0.22-0.205c-0.104-0.06-0.24-0.115-0.41-0.165 c-0.17-0.05-0.382-0.105-0.635-0.165c-0.18-0.04-0.358-0.093-0.535-0.16c-0.177-0.066-0.335-0.155-0.475-0.265 s-0.253-0.243-0.34-0.4c-0.087-0.157-0.13-0.345-0.13-0.565c0-0.227 0.052-0.425 0.155-0.595c0.103-0.17 0.242-0.313 0.415-0.43 s0.368-0.205 0.585-0.265c0.216-0.06 0.441-0.09 0.675-0.09c0.394 0 0.7 0.1 1 0.155c0.283 0.1 0.5 0.2 0.7 0.4 l-0.49 0.62c-0.14-0.127-0.315-0.233-0.525-0.32c-0.21-0.086-0.455-0.13-0.735-0.13c-0.287 0-0.517 0.047-0.69 0.1 c-0.174 0.093-0.26 0.247-0.26 0.46c0 0.2 0.1 0.3 0.3 0.445s0.531 0.2 0.9 0.275c0.22 0.1 0.4 0.1 0.6 0.2 c0.19 0.1 0.4 0.2 0.5 0.27c0.143 0.1 0.3 0.2 0.3 0.405c0.083 0.2 0.1 0.4 0.1 0.6 c0 0.233-0.054 0.438-0.16 0.615s-0.25 0.325-0.43 0.445c-0.18 0.12-0.387 0.21-0.62 0.27c-0.233 0.06-0.477 0.09-0.73 0.1 c-0.88 0-1.54-0.237-1.98-0.71L99.323 101.395z"/><path d="M107.982 101.884c-0.053 0.06-0.133 0.137-0.24 0.23c-0.107 0.094-0.245 0.184-0.415 0.3 c-0.17 0.087-0.37 0.162-0.6 0.225c-0.23 0.063-0.492 0.095-0.785 0.095c-0.36 0-0.69-0.06-0.99-0.18 c-0.3-0.12-0.557-0.29-0.77-0.51c-0.213-0.22-0.378-0.483-0.495-0.79s-0.175-0.646-0.175-1.02c0-0.34 0.057-0.658 0.17-0.955 c0.113-0.296 0.273-0.553 0.48-0.77s0.452-0.388 0.735-0.515c0.283-0.126 0.595-0.19 0.935-0.19c0.4 0 0.7 0.1 1 0.2 c0.286 0.2 0.5 0.4 0.7 0.61c0.184 0.3 0.3 0.5 0.4 0.87c0.086 0.3 0.1 0.7 0.1 1.02h-3.67 c0.006 0.2 0.1 0.4 0.1 0.57c0.083 0.2 0.2 0.3 0.3 0.45c0.14 0.1 0.3 0.2 0.5 0.3 c0.18 0.1 0.4 0.1 0.6 0.11c0.393 0 0.716-0.067 0.97-0.2s0.437-0.263 0.55-0.39L107.982 101.884z M107.172 99.8 c-0.026-0.36-0.153-0.667-0.38-0.92s-0.547-0.38-0.96-0.38c-0.213 0-0.405 0.037-0.575 0.11c-0.17 0.073-0.315 0.17-0.435 0.3 c-0.12 0.12-0.214 0.258-0.28 0.415s-0.104 0.318-0.11 0.485H107.172z"/><path d="M109.502 98.665h-0.84v-0.75h0.84v-1.52h0.9v1.52h1.36v0.75h-1.36v2.29c0 0.4 0.1 0.6 0.2 0.8 c0.116 0.1 0.3 0.2 0.5 0.21c0.173 0 0.317-0.027 0.43-0.08s0.227-0.133 0.34-0.24l0.41 0.6 c-0.193 0.187-0.392 0.322-0.595 0.405c-0.203 0.083-0.445 0.125-0.725 0.125c-0.494 0-0.855-0.133-1.085-0.4 c-0.23-0.267-0.345-0.683-0.345-1.25V98.665z"/><path d="M113.242 101.395c0.167 0.2 0.4 0.3 0.6 0.4s0.503 0.1 0.8 0.15c0.3 0 0.55-0.048 0.75-0.145 c0.2-0.096 0.3-0.248 0.3-0.455c0-0.106-0.021-0.198-0.065-0.275s-0.117-0.145-0.22-0.205c-0.104-0.06-0.24-0.115-0.41-0.165 c-0.17-0.05-0.382-0.105-0.635-0.165c-0.18-0.04-0.358-0.093-0.535-0.16c-0.177-0.066-0.335-0.155-0.475-0.265 s-0.253-0.243-0.34-0.4c-0.087-0.157-0.13-0.345-0.13-0.565c0-0.227 0.052-0.425 0.155-0.595c0.103-0.17 0.242-0.313 0.415-0.43 s0.368-0.205 0.585-0.265c0.216-0.06 0.441-0.09 0.675-0.09c0.394 0 0.7 0.1 1 0.155c0.283 0.1 0.5 0.2 0.7 0.4 l-0.49 0.62c-0.14-0.127-0.315-0.233-0.525-0.32c-0.21-0.086-0.455-0.13-0.735-0.13c-0.287 0-0.517 0.047-0.69 0.1 c-0.174 0.093-0.26 0.247-0.26 0.46c0 0.2 0.1 0.3 0.3 0.445s0.531 0.2 0.9 0.275c0.22 0.1 0.4 0.1 0.6 0.2 c0.19 0.1 0.4 0.2 0.5 0.27c0.143 0.1 0.3 0.2 0.3 0.405c0.083 0.2 0.1 0.4 0.1 0.6 c0 0.233-0.054 0.438-0.16 0.615s-0.25 0.325-0.43 0.445c-0.18 0.12-0.387 0.21-0.62 0.27c-0.233 0.06-0.477 0.09-0.73 0.1 c-0.88 0-1.54-0.237-1.98-0.71L113.242 101.395z"/><path d="M119.952 95.714h0.89l-2.64 7.01h-0.91L119.952 95.714z"/><path d="M125.762 101.924c-0.207 0.233-0.462 0.422-0.765 0.565c-0.303 0.144-0.655 0.215-1.055 0.2 c-0.373 0-0.711-0.062-1.015-0.185c-0.304-0.124-0.56-0.293-0.77-0.51c-0.21-0.216-0.372-0.477-0.485-0.78s-0.17-0.635-0.17-0.995 c0-0.34 0.06-0.66 0.18-0.96s0.288-0.562 0.505-0.785c0.217-0.223 0.473-0.4 0.77-0.53c0.296-0.13 0.625-0.195 0.985-0.195 c0.394 0 0.7 0.1 1 0.21c0.3 0.1 0.6 0.3 0.8 0.57l-0.59 0.57c-0.14-0.173-0.31-0.31-0.51-0.41 c-0.2-0.1-0.437-0.15-0.71-0.15c-0.24 0-0.455 0.045-0.645 0.135s-0.35 0.213-0.48 0.37c-0.13 0.157-0.23 0.336-0.3 0.5 c-0.07 0.203-0.105 0.415-0.105 0.635c0 0.2 0 0.4 0.1 0.625c0.07 0.2 0.2 0.4 0.3 0.5 c0.13 0.2 0.3 0.3 0.5 0.375s0.405 0.1 0.6 0.14c0.273 0 0.519-0.052 0.735-0.155c0.216-0.103 0.395-0.241 0.535-0.415 L125.762 101.924z"/><path d="M126.902 101.395c0.167 0.2 0.4 0.3 0.6 0.4s0.503 0.1 0.8 0.15c0.3 0 0.55-0.048 0.75-0.145 c0.2-0.096 0.3-0.248 0.3-0.455c0-0.106-0.021-0.198-0.065-0.275s-0.117-0.145-0.22-0.205c-0.104-0.06-0.24-0.115-0.41-0.165 c-0.17-0.05-0.382-0.105-0.635-0.165c-0.18-0.04-0.358-0.093-0.535-0.16c-0.177-0.066-0.335-0.155-0.475-0.265 s-0.253-0.243-0.34-0.4c-0.087-0.157-0.13-0.345-0.13-0.565c0-0.227 0.052-0.425 0.155-0.595c0.103-0.17 0.242-0.313 0.415-0.43 s0.368-0.205 0.585-0.265c0.216-0.06 0.441-0.09 0.675-0.09c0.394 0 0.7 0.1 1 0.155c0.283 0.1 0.5 0.2 0.7 0.4 l-0.49 0.62c-0.14-0.127-0.315-0.233-0.525-0.32c-0.21-0.086-0.455-0.13-0.735-0.13c-0.287 0-0.517 0.047-0.69 0.1 c-0.174 0.093-0.26 0.247-0.26 0.46c0 0.2 0.1 0.3 0.3 0.445s0.531 0.2 0.9 0.275c0.22 0.1 0.4 0.1 0.6 0.2 c0.19 0.1 0.4 0.2 0.5 0.27c0.143 0.1 0.3 0.2 0.3 0.405c0.083 0.2 0.1 0.4 0.1 0.6 c0 0.233-0.054 0.438-0.16 0.615s-0.25 0.325-0.43 0.445c-0.18 0.12-0.387 0.21-0.62 0.27c-0.233 0.06-0.477 0.09-0.73 0.1 c-0.88 0-1.54-0.237-1.98-0.71L126.902 101.395z"/><path d="M131.622 101.395c0.167 0.2 0.4 0.3 0.6 0.4s0.503 0.1 0.8 0.15c0.3 0 0.55-0.048 0.75-0.145 c0.2-0.096 0.3-0.248 0.3-0.455c0-0.106-0.021-0.198-0.065-0.275s-0.117-0.145-0.22-0.205c-0.104-0.06-0.24-0.115-0.41-0.165 c-0.17-0.05-0.382-0.105-0.635-0.165c-0.18-0.04-0.358-0.093-0.535-0.16c-0.177-0.066-0.335-0.155-0.475-0.265 s-0.253-0.243-0.34-0.4c-0.087-0.157-0.13-0.345-0.13-0.565c0-0.227 0.052-0.425 0.155-0.595c0.103-0.17 0.242-0.313 0.415-0.43 s0.368-0.205 0.585-0.265c0.216-0.06 0.441-0.09 0.675-0.09c0.394 0 0.7 0.1 1 0.155c0.283 0.1 0.5 0.2 0.7 0.4 l-0.49 0.62c-0.14-0.127-0.315-0.233-0.525-0.32c-0.21-0.086-0.455-0.13-0.735-0.13c-0.287 0-0.517 0.047-0.69 0.1 c-0.174 0.093-0.26 0.247-0.26 0.46c0 0.2 0.1 0.3 0.3 0.445s0.531 0.2 0.9 0.275c0.22 0.1 0.4 0.1 0.6 0.2 c0.19 0.1 0.4 0.2 0.5 0.27c0.143 0.1 0.3 0.2 0.3 0.405c0.083 0.2 0.1 0.4 0.1 0.6 c0 0.233-0.054 0.438-0.16 0.615s-0.25 0.325-0.43 0.445c-0.18 0.12-0.387 0.21-0.62 0.27c-0.233 0.06-0.477 0.09-0.73 0.1 c-0.88 0-1.54-0.237-1.98-0.71L131.622 101.395z"/><path d="M95.913 126.004c-0.173 0.233-0.401 0.407-0.685 0.52c-0.284 0.113-0.575 0.17-0.875 0.2 c-0.194 0-0.385-0.025-0.575-0.075c-0.19-0.05-0.363-0.133-0.52-0.25s-0.283-0.267-0.38-0.45c-0.097-0.183-0.145-0.408-0.145-0.675 c0-0.5 0.175-0.9 0.525-1.2s0.855-0.45 1.515-0.45c0.106 0 0.2 0 0.3 0.01s0.233 0 0.3 0 c0.107 0 0.2 0 0.3 0.02s0.136 0 0.2 0.02v-0.17c0-0.347-0.105-0.595-0.315-0.745s-0.495-0.225-0.855-0.225 c-0.354 0-0.633 0.048-0.84 0.145c-0.207 0.097-0.38 0.195-0.52 0.295l-0.42-0.61c0.08-0.066 0.177-0.133 0.29-0.2 c0.113-0.066 0.247-0.128 0.4-0.185c0.153-0.056 0.327-0.103 0.52-0.14s0.417-0.055 0.67-0.055c0.6 0 1.1 0.1 1.4 0.4 c0.343 0.3 0.5 0.7 0.5 1.235v2.2c0 0.2 0 0.3 0 0.505c0 0.2 0 0.3 0 0.415h-0.84L95.913 126.004z M95.903 124.364c-0.027-0.006-0.079-0.015-0.155-0.025c-0.077-0.01-0.165-0.018-0.265-0.025c-0.1-0.006-0.207-0.013-0.32-0.02 c-0.113-0.006-0.223-0.01-0.33-0.01c-0.253 0-0.458 0.03-0.615 0.09s-0.28 0.135-0.37 0.225c-0.09 0.09-0.151 0.19-0.185 0.3 c-0.033 0.11-0.05 0.215-0.05 0.315c0 0.3 0.1 0.4 0.3 0.575c0.173 0.1 0.4 0.2 0.7 0.2 c0.173 0 0.338-0.03 0.495-0.09c0.156-0.06 0.295-0.14 0.415-0.24c0.12-0.1 0.216-0.216 0.29-0.35c0.073-0.133 0.11-0.27 0.11-0.41 V124.364z"/><path d="M98.292 125.395c0.167 0.2 0.4 0.3 0.6 0.4s0.503 0.1 0.8 0.15c0.3 0 0.55-0.048 0.75-0.145 c0.2-0.096 0.3-0.248 0.3-0.455c0-0.106-0.021-0.198-0.065-0.275s-0.117-0.145-0.22-0.205c-0.104-0.06-0.24-0.115-0.41-0.165 c-0.17-0.05-0.382-0.105-0.635-0.165c-0.18-0.04-0.358-0.093-0.535-0.16c-0.177-0.066-0.335-0.155-0.475-0.265 s-0.253-0.243-0.34-0.4c-0.087-0.157-0.13-0.345-0.13-0.565c0-0.227 0.052-0.425 0.155-0.595c0.103-0.17 0.242-0.313 0.415-0.43 s0.368-0.205 0.585-0.265c0.216-0.06 0.441-0.09 0.675-0.09c0.394 0 0.7 0.1 1 0.155c0.283 0.1 0.5 0.2 0.7 0.4 l-0.49 0.62c-0.14-0.127-0.315-0.233-0.525-0.32c-0.21-0.086-0.455-0.13-0.735-0.13c-0.287 0-0.517 0.047-0.69 0.1 c-0.174 0.093-0.26 0.247-0.26 0.46c0 0.2 0.1 0.3 0.3 0.445s0.531 0.2 0.9 0.275c0.22 0.1 0.4 0.1 0.6 0.2 c0.19 0.1 0.4 0.2 0.5 0.27c0.143 0.1 0.3 0.2 0.3 0.405c0.083 0.2 0.1 0.4 0.1 0.6 c0 0.233-0.054 0.438-0.16 0.615s-0.25 0.325-0.43 0.445c-0.18 0.12-0.387 0.21-0.62 0.27c-0.233 0.06-0.477 0.09-0.73 0.1 c-0.88 0-1.54-0.237-1.98-0.71L98.292 125.395z"/><path d="M103.013 125.395c0.167 0.2 0.4 0.3 0.6 0.4s0.503 0.1 0.8 0.15c0.3 0 0.55-0.048 0.75-0.145 c0.2-0.096 0.3-0.248 0.3-0.455c0-0.106-0.021-0.198-0.065-0.275s-0.117-0.145-0.22-0.205c-0.104-0.06-0.24-0.115-0.41-0.165 c-0.17-0.05-0.382-0.105-0.635-0.165c-0.18-0.04-0.358-0.093-0.535-0.16c-0.177-0.066-0.335-0.155-0.475-0.265 s-0.253-0.243-0.34-0.4c-0.087-0.157-0.13-0.345-0.13-0.565c0-0.227 0.052-0.425 0.155-0.595c0.103-0.17 0.242-0.313 0.415-0.43 s0.368-0.205 0.585-0.265c0.216-0.06 0.441-0.09 0.675-0.09c0.394 0 0.7 0.1 1 0.155c0.283 0.1 0.5 0.2 0.7 0.4 l-0.49 0.62c-0.14-0.127-0.315-0.233-0.525-0.32c-0.21-0.086-0.455-0.13-0.735-0.13c-0.287 0-0.517 0.047-0.69 0.1 c-0.174 0.093-0.26 0.247-0.26 0.46c0 0.2 0.1 0.3 0.3 0.445s0.531 0.2 0.9 0.275c0.22 0.1 0.4 0.1 0.6 0.2 c0.19 0.1 0.4 0.2 0.5 0.27c0.143 0.1 0.3 0.2 0.3 0.405c0.083 0.2 0.1 0.4 0.1 0.6 c0 0.233-0.054 0.438-0.16 0.615s-0.25 0.325-0.43 0.445c-0.18 0.12-0.387 0.21-0.62 0.27c-0.233 0.06-0.477 0.09-0.73 0.1 c-0.88 0-1.54-0.237-1.98-0.71L103.013 125.395z"/><path d="M111.672 125.884c-0.053 0.06-0.133 0.137-0.24 0.23c-0.107 0.094-0.245 0.184-0.415 0.3 c-0.17 0.087-0.37 0.162-0.6 0.225c-0.23 0.063-0.492 0.095-0.785 0.095c-0.36 0-0.69-0.06-0.99-0.18 c-0.3-0.12-0.557-0.29-0.77-0.51c-0.213-0.22-0.378-0.483-0.495-0.79s-0.175-0.646-0.175-1.02c0-0.34 0.057-0.658 0.17-0.955 c0.113-0.296 0.273-0.553 0.48-0.77s0.452-0.388 0.735-0.515c0.283-0.126 0.595-0.19 0.935-0.19c0.4 0 0.7 0.1 1 0.2 c0.286 0.2 0.5 0.4 0.7 0.61c0.184 0.3 0.3 0.5 0.4 0.87c0.086 0.3 0.1 0.7 0.1 1.02h-3.67 c0.006 0.2 0.1 0.4 0.1 0.57c0.083 0.2 0.2 0.3 0.3 0.45c0.14 0.1 0.3 0.2 0.5 0.3 c0.18 0.1 0.4 0.1 0.6 0.11c0.393 0 0.716-0.067 0.97-0.2s0.437-0.263 0.55-0.39L111.672 125.884z M110.862 123.8 c-0.026-0.36-0.153-0.667-0.38-0.92s-0.547-0.38-0.96-0.38c-0.213 0-0.405 0.037-0.575 0.11c-0.17 0.073-0.315 0.17-0.435 0.3 c-0.12 0.12-0.214 0.258-0.28 0.415s-0.104 0.318-0.11 0.485H110.862z"/><path d="M113.192 122.665h-0.84v-0.75h0.84v-1.52h0.9v1.52h1.36v0.75h-1.36v2.29c0 0.4 0.1 0.6 0.2 0.8 c0.116 0.1 0.3 0.2 0.5 0.21c0.173 0 0.317-0.027 0.43-0.08s0.227-0.133 0.34-0.24l0.41 0.6 c-0.193 0.187-0.392 0.322-0.595 0.405c-0.203 0.083-0.445 0.125-0.725 0.125c-0.494 0-0.855-0.133-1.085-0.4 c-0.23-0.267-0.345-0.683-0.345-1.25V122.665z"/><path d="M116.932 125.395c0.167 0.2 0.4 0.3 0.6 0.4s0.503 0.1 0.8 0.15c0.3 0 0.55-0.048 0.75-0.145 c0.2-0.096 0.3-0.248 0.3-0.455c0-0.106-0.021-0.198-0.065-0.275s-0.117-0.145-0.22-0.205c-0.104-0.06-0.24-0.115-0.41-0.165 c-0.17-0.05-0.382-0.105-0.635-0.165c-0.18-0.04-0.358-0.093-0.535-0.16c-0.177-0.066-0.335-0.155-0.475-0.265 s-0.253-0.243-0.34-0.4c-0.087-0.157-0.13-0.345-0.13-0.565c0-0.227 0.052-0.425 0.155-0.595c0.103-0.17 0.242-0.313 0.415-0.43 s0.368-0.205 0.585-0.265c0.216-0.06 0.441-0.09 0.675-0.09c0.394 0 0.7 0.1 1 0.155c0.283 0.1 0.5 0.2 0.7 0.4 l-0.49 0.62c-0.14-0.127-0.315-0.233-0.525-0.32c-0.21-0.086-0.455-0.13-0.735-0.13c-0.287 0-0.517 0.047-0.69 0.1 c-0.174 0.093-0.26 0.247-0.26 0.46c0 0.2 0.1 0.3 0.3 0.445s0.531 0.2 0.9 0.275c0.22 0.1 0.4 0.1 0.6 0.2 c0.19 0.1 0.4 0.2 0.5 0.27c0.143 0.1 0.3 0.2 0.3 0.405c0.083 0.2 0.1 0.4 0.1 0.6 c0 0.233-0.054 0.438-0.16 0.615s-0.25 0.325-0.43 0.445c-0.18 0.12-0.387 0.21-0.62 0.27c-0.233 0.06-0.477 0.09-0.73 0.1 c-0.88 0-1.54-0.237-1.98-0.71L116.932 125.395z"/><path d="M123.642 119.714h0.89l-2.64 7.01h-0.91L123.642 119.714z"/><path d="M124.262 127.574c0.08 0.1 0.2 0.1 0.3 0.15c0.09 0 0.2 0.1 0.3 0.06c0.233 0 0.394-0.112 0.48-0.335 c0.087-0.223 0.13-0.582 0.13-1.075v-4.46h0.9v4.71c0 0.253-0.019 0.497-0.055 0.73s-0.105 0.44-0.205 0.6 c-0.1 0.18-0.243 0.323-0.43 0.43c-0.187 0.107-0.43 0.16-0.73 0.16c-0.247 0-0.455-0.04-0.625-0.12s-0.309-0.163-0.415-0.25 L124.262 127.574z M125.392 120.074h1.01v1.01h-1.01V120.074z"/><path d="M127.932 125.395c0.167 0.2 0.4 0.3 0.6 0.4s0.503 0.1 0.8 0.15c0.3 0 0.55-0.048 0.75-0.145 c0.2-0.096 0.3-0.248 0.3-0.455c0-0.106-0.021-0.198-0.065-0.275s-0.117-0.145-0.22-0.205c-0.104-0.06-0.24-0.115-0.41-0.165 c-0.17-0.05-0.382-0.105-0.635-0.165c-0.18-0.04-0.358-0.093-0.535-0.16c-0.177-0.066-0.335-0.155-0.475-0.265 s-0.253-0.243-0.34-0.4c-0.087-0.157-0.13-0.345-0.13-0.565c0-0.227 0.052-0.425 0.155-0.595c0.103-0.17 0.242-0.313 0.415-0.43 s0.368-0.205 0.585-0.265c0.216-0.06 0.441-0.09 0.675-0.09c0.394 0 0.7 0.1 1 0.155c0.283 0.1 0.5 0.2 0.7 0.4 l-0.49 0.62c-0.14-0.127-0.315-0.233-0.525-0.32c-0.21-0.086-0.455-0.13-0.735-0.13c-0.287 0-0.517 0.047-0.69 0.1 c-0.174 0.093-0.26 0.247-0.26 0.46c0 0.2 0.1 0.3 0.3 0.445s0.531 0.2 0.9 0.275c0.22 0.1 0.4 0.1 0.6 0.2 c0.19 0.1 0.4 0.2 0.5 0.27c0.143 0.1 0.3 0.2 0.3 0.405c0.083 0.2 0.1 0.4 0.1 0.6 c0 0.233-0.054 0.438-0.16 0.615s-0.25 0.325-0.43 0.445c-0.18 0.12-0.387 0.21-0.62 0.27c-0.233 0.06-0.477 0.09-0.73 0.1 c-0.88 0-1.54-0.237-1.98-0.71L127.932 125.395z"/><path d="M80.683 142.895h0.9v6.67h-0.9V142.895z"/><path d="M85.062 149.705c-0.36 0-0.69-0.065-0.99-0.195c-0.3-0.13-0.559-0.308-0.775-0.535c-0.217-0.227-0.387-0.488-0.51-0.785 c-0.124-0.296-0.185-0.615-0.185-0.955s0.062-0.658 0.185-0.955c0.124-0.296 0.293-0.558 0.51-0.785 c0.216-0.227 0.475-0.405 0.775-0.535c0.3-0.13 0.63-0.195 0.99-0.195c0.354 0 0.7 0.1 1 0.2 c0.3 0.1 0.6 0.3 0.8 0.535c0.22 0.2 0.4 0.5 0.5 0.785c0.124 0.3 0.2 0.6 0.2 1 s-0.062 0.659-0.185 0.955c-0.123 0.297-0.295 0.559-0.515 0.785c-0.22 0.227-0.48 0.405-0.78 0.5 C85.743 149.6 85.4 149.7 85.1 149.705z M85.062 148.924c0.24 0 0.457-0.048 0.65-0.145c0.193-0.096 0.357-0.223 0.49-0.38 s0.235-0.336 0.305-0.54c0.07-0.203 0.105-0.412 0.105-0.625c0-0.207-0.035-0.412-0.105-0.615c-0.07-0.204-0.174-0.385-0.31-0.545 c-0.137-0.16-0.3-0.288-0.49-0.385s-0.405-0.145-0.645-0.145c-0.24 0-0.457 0.048-0.65 0.145s-0.356 0.224-0.49 0.4 c-0.134 0.157-0.235 0.337-0.305 0.54c-0.07 0.204-0.105 0.412-0.105 0.625s0.035 0.4 0.1 0.62s0.173 0.4 0.3 0.5 c0.136 0.2 0.3 0.3 0.5 0.385C84.607 148.9 84.8 148.9 85.1 148.924z"/><path d="M92.583 148.924c-0.207 0.233-0.462 0.422-0.765 0.565c-0.303 0.144-0.655 0.215-1.055 0.2 c-0.373 0-0.711-0.062-1.015-0.185c-0.304-0.124-0.56-0.293-0.77-0.51c-0.21-0.216-0.372-0.477-0.485-0.78s-0.17-0.635-0.17-0.995 c0-0.34 0.06-0.66 0.18-0.96s0.288-0.562 0.505-0.785c0.217-0.223 0.473-0.4 0.77-0.53c0.296-0.13 0.625-0.195 0.985-0.195 c0.394 0 0.7 0.1 1 0.21c0.3 0.1 0.6 0.3 0.8 0.57l-0.59 0.57c-0.14-0.173-0.31-0.31-0.51-0.41 c-0.2-0.1-0.437-0.15-0.71-0.15c-0.24 0-0.455 0.045-0.645 0.135s-0.35 0.213-0.48 0.37c-0.13 0.157-0.23 0.336-0.3 0.5 c-0.07 0.203-0.105 0.415-0.105 0.635c0 0.2 0 0.4 0.1 0.625c0.07 0.2 0.2 0.4 0.3 0.5 c0.13 0.2 0.3 0.3 0.5 0.375s0.405 0.1 0.6 0.14c0.273 0 0.519-0.052 0.735-0.155c0.216-0.103 0.395-0.241 0.535-0.415 L92.583 148.924z"/><path d="M96.382 149.004c-0.173 0.233-0.401 0.407-0.685 0.52c-0.284 0.113-0.575 0.17-0.875 0.2 c-0.194 0-0.385-0.025-0.575-0.075c-0.19-0.05-0.363-0.133-0.52-0.25s-0.283-0.267-0.38-0.45c-0.097-0.183-0.145-0.408-0.145-0.675 c0-0.5 0.175-0.9 0.525-1.2s0.855-0.45 1.515-0.45c0.106 0 0.2 0 0.3 0.01s0.233 0 0.3 0 c0.107 0 0.2 0 0.3 0.02s0.136 0 0.2 0.02v-0.17c0-0.347-0.105-0.595-0.315-0.745s-0.495-0.225-0.855-0.225 c-0.354 0-0.633 0.048-0.84 0.145c-0.207 0.097-0.38 0.195-0.52 0.295l-0.42-0.61c0.08-0.066 0.177-0.133 0.29-0.2 c0.113-0.066 0.247-0.128 0.4-0.185c0.153-0.056 0.327-0.103 0.52-0.14s0.417-0.055 0.67-0.055c0.6 0 1.1 0.1 1.4 0.4 c0.343 0.3 0.5 0.7 0.5 1.235v2.2c0 0.2 0 0.3 0 0.505c0 0.2 0 0.3 0 0.415h-0.84L96.382 149.004z M96.372 147.364c-0.027-0.006-0.079-0.015-0.155-0.025c-0.077-0.01-0.165-0.018-0.265-0.025c-0.1-0.006-0.207-0.013-0.32-0.02 c-0.113-0.006-0.223-0.01-0.33-0.01c-0.253 0-0.458 0.03-0.615 0.09s-0.28 0.135-0.37 0.225c-0.09 0.09-0.151 0.19-0.185 0.3 c-0.033 0.11-0.05 0.215-0.05 0.315c0 0.3 0.1 0.4 0.3 0.575c0.173 0.1 0.4 0.2 0.7 0.2 c0.173 0 0.338-0.03 0.495-0.09c0.156-0.06 0.295-0.14 0.415-0.24c0.12-0.1 0.216-0.216 0.29-0.35c0.073-0.133 0.11-0.27 0.11-0.41 V147.364z"/><path d="M98.462 142.895h0.9v6.67h-0.9V142.895z"/><path d="M100.592 142.895h0.89v2.71c0.06-0.08 0.133-0.167 0.22-0.26c0.086-0.093 0.193-0.18 0.32-0.26 c0.126-0.08 0.273-0.146 0.44-0.2c0.167-0.053 0.356-0.08 0.57-0.08c0.607 0 1.1 0.2 1.4 0.53s0.44 0.8 0.4 1.44v2.79h-0.9 v-2.72c0-0.433-0.093-0.751-0.28-0.955c-0.187-0.204-0.45-0.305-0.79-0.305c-0.26 0-0.477 0.053-0.65 0.2 c-0.174 0.106-0.312 0.245-0.415 0.415c-0.104 0.17-0.179 0.363-0.225 0.58c-0.047 0.217-0.07 0.438-0.07 0.665v2.16h-0.9V142.895z "/><path d="M108.272 149.705c-0.36 0-0.69-0.065-0.99-0.195c-0.3-0.13-0.559-0.308-0.775-0.535c-0.217-0.227-0.387-0.488-0.51-0.785 c-0.124-0.296-0.185-0.615-0.185-0.955s0.062-0.658 0.185-0.955c0.124-0.296 0.293-0.558 0.51-0.785 c0.216-0.227 0.475-0.405 0.775-0.535c0.3-0.13 0.63-0.195 0.99-0.195c0.354 0 0.7 0.1 1 0.2 c0.3 0.1 0.6 0.3 0.8 0.535c0.22 0.2 0.4 0.5 0.5 0.785c0.124 0.3 0.2 0.6 0.2 1 s-0.062 0.659-0.185 0.955c-0.123 0.297-0.295 0.559-0.515 0.785c-0.22 0.227-0.48 0.405-0.78 0.5 C108.952 149.6 108.6 149.7 108.3 149.705z M108.272 148.924c0.24 0 0.457-0.048 0.65-0.145 c0.193-0.096 0.357-0.223 0.49-0.38s0.235-0.336 0.305-0.54c0.07-0.203 0.105-0.412 0.105-0.625c0-0.207-0.035-0.412-0.105-0.615 c-0.07-0.204-0.174-0.385-0.31-0.545c-0.137-0.16-0.3-0.288-0.49-0.385s-0.405-0.145-0.645-0.145c-0.24 0-0.457 0.048-0.65 0.1 s-0.356 0.224-0.49 0.38c-0.134 0.157-0.235 0.337-0.305 0.54c-0.07 0.204-0.105 0.412-0.105 0.625s0.035 0.4 0.1 0.6 s0.173 0.4 0.3 0.54c0.136 0.2 0.3 0.3 0.5 0.385C107.817 148.9 108 148.9 108.3 148.924z"/><path d="M112.052 148.395c0.167 0.2 0.4 0.3 0.6 0.4s0.503 0.1 0.8 0.15c0.3 0 0.55-0.048 0.75-0.145 c0.2-0.096 0.3-0.248 0.3-0.455c0-0.106-0.021-0.198-0.065-0.275s-0.117-0.145-0.22-0.205c-0.104-0.06-0.24-0.115-0.41-0.165 c-0.17-0.05-0.382-0.105-0.635-0.165c-0.18-0.04-0.358-0.093-0.535-0.16c-0.177-0.066-0.335-0.155-0.475-0.265 s-0.253-0.243-0.34-0.4c-0.087-0.157-0.13-0.345-0.13-0.565c0-0.227 0.052-0.425 0.155-0.595c0.103-0.17 0.242-0.313 0.415-0.43 s0.368-0.205 0.585-0.265c0.216-0.06 0.441-0.09 0.675-0.09c0.394 0 0.7 0.1 1 0.155c0.283 0.1 0.5 0.2 0.7 0.4 l-0.49 0.62c-0.14-0.127-0.315-0.233-0.525-0.32c-0.21-0.086-0.455-0.13-0.735-0.13c-0.287 0-0.517 0.047-0.69 0.1 c-0.174 0.093-0.26 0.247-0.26 0.46c0 0.2 0.1 0.3 0.3 0.445s0.531 0.2 0.9 0.275c0.22 0.1 0.4 0.1 0.6 0.2 c0.19 0.1 0.4 0.2 0.5 0.27c0.143 0.1 0.3 0.2 0.3 0.405c0.083 0.2 0.1 0.4 0.1 0.6 c0 0.233-0.054 0.438-0.16 0.615s-0.25 0.325-0.43 0.445c-0.18 0.12-0.387 0.21-0.62 0.27c-0.233 0.06-0.477 0.09-0.73 0.1 c-0.88 0-1.54-0.237-1.98-0.71L112.052 148.395z"/><path d="M116.872 145.665h-0.84v-0.75h0.84v-1.52h0.9v1.52h1.36v0.75h-1.36v2.29c0 0.4 0.1 0.6 0.2 0.8 c0.116 0.1 0.3 0.2 0.5 0.21c0.173 0 0.317-0.027 0.43-0.08s0.227-0.133 0.34-0.24l0.41 0.6 c-0.193 0.187-0.392 0.322-0.595 0.405c-0.203 0.083-0.445 0.125-0.725 0.125c-0.494 0-0.855-0.133-1.085-0.4 c-0.23-0.267-0.345-0.683-0.345-1.25V145.665z"/><path d="M120.422 144.904h1.13v1.12h-1.13V144.904z M120.422 148.455h1.13v1.12h-1.13V148.455z"/><path d="M124.011 146.125c-0.267-0.14-0.493-0.327-0.68-0.56c-0.187-0.233-0.28-0.52-0.28-0.86c0-0.233 0.045-0.45 0.135-0.65 c0.09-0.2 0.218-0.372 0.385-0.515s0.369-0.255 0.605-0.335c0.237-0.08 0.505-0.12 0.805-0.12c0.313 0 0.6 0 0.8 0.1 c0.24 0.1 0.4 0.2 0.6 0.33c0.16 0.1 0.3 0.3 0.4 0.495s0.125 0.4 0.1 0.615c0 0.313-0.086 0.597-0.26 0.8 s-0.42 0.453-0.74 0.6c0.12 0.1 0.3 0.1 0.4 0.22s0.305 0.2 0.4 0.36c0.14 0.1 0.3 0.3 0.4 0.5 c0.096 0.2 0.1 0.4 0.1 0.675c0 0.214-0.042 0.43-0.125 0.65c-0.083 0.22-0.216 0.42-0.4 0.6 c-0.183 0.18-0.42 0.327-0.71 0.44s-0.638 0.17-1.045 0.17c-0.42 0-0.775-0.057-1.065-0.17s-0.525-0.26-0.705-0.44 c-0.18-0.18-0.312-0.378-0.395-0.595s-0.125-0.432-0.125-0.645c0-0.22 0.037-0.42 0.11-0.6s0.172-0.343 0.295-0.49 c0.123-0.147 0.265-0.275 0.425-0.385S123.845 146.2 124 146.125z M124.941 146.544c-0.18 0.047-0.35 0.112-0.51 0.2 c-0.16 0.083-0.3 0.18-0.42 0.29c-0.12 0.11-0.215 0.233-0.285 0.37c-0.07 0.137-0.105 0.285-0.105 0.4 c0 0.2 0 0.4 0.1 0.515c0.083 0.1 0.2 0.3 0.3 0.35s0.275 0.2 0.4 0.195s0.32 0.1 0.5 0.06s0.32-0.02 0.48-0.06 s0.305-0.105 0.435-0.195s0.235-0.207 0.315-0.35c0.08-0.143 0.12-0.315 0.12-0.515c0-0.16-0.039-0.308-0.115-0.445 s-0.18-0.26-0.31-0.37c-0.13-0.11-0.278-0.207-0.445-0.29C125.295 146.7 125.1 146.6 124.9 146.544z M124.981 145.8 c0.32-0.1 0.577-0.247 0.77-0.44s0.29-0.42 0.29-0.68c0-0.247-0.097-0.451-0.29-0.615s-0.45-0.245-0.77-0.245 s-0.577 0.082-0.77 0.245s-0.29 0.385-0.29 0.665c0 0.2 0.1 0.4 0.3 0.63C124.38 145.5 124.6 145.7 125 145.774z "/><path d="M129.461 146.125c-0.267-0.14-0.493-0.327-0.68-0.56c-0.187-0.233-0.28-0.52-0.28-0.86c0-0.233 0.045-0.45 0.135-0.65 c0.09-0.2 0.218-0.372 0.385-0.515s0.369-0.255 0.605-0.335c0.237-0.08 0.505-0.12 0.805-0.12c0.313 0 0.6 0 0.8 0.1 c0.24 0.1 0.4 0.2 0.6 0.33c0.16 0.1 0.3 0.3 0.4 0.495s0.125 0.4 0.1 0.615c0 0.313-0.086 0.597-0.26 0.8 s-0.42 0.453-0.74 0.6c0.12 0.1 0.3 0.1 0.4 0.22s0.305 0.2 0.4 0.36c0.14 0.1 0.3 0.3 0.4 0.5 c0.096 0.2 0.1 0.4 0.1 0.675c0 0.214-0.042 0.43-0.125 0.65c-0.083 0.22-0.216 0.42-0.4 0.6 c-0.183 0.18-0.42 0.327-0.71 0.44s-0.638 0.17-1.045 0.17c-0.42 0-0.775-0.057-1.065-0.17s-0.525-0.26-0.705-0.44 c-0.18-0.18-0.312-0.378-0.395-0.595s-0.125-0.432-0.125-0.645c0-0.22 0.037-0.42 0.11-0.6s0.172-0.343 0.295-0.49 c0.123-0.147 0.265-0.275 0.425-0.385S129.295 146.2 129.5 146.125z M130.392 146.544c-0.18 0.047-0.35 0.112-0.51 0.2 c-0.16 0.083-0.3 0.18-0.42 0.29c-0.12 0.11-0.215 0.233-0.285 0.37c-0.07 0.137-0.105 0.285-0.105 0.4 c0 0.2 0 0.4 0.1 0.515c0.083 0.1 0.2 0.3 0.3 0.35s0.275 0.2 0.4 0.195s0.32 0.1 0.5 0.06s0.32-0.02 0.48-0.06 s0.305-0.105 0.435-0.195s0.235-0.207 0.315-0.35c0.08-0.143 0.12-0.315 0.12-0.515c0-0.16-0.039-0.308-0.115-0.445 s-0.18-0.26-0.31-0.37c-0.13-0.11-0.278-0.207-0.445-0.29C130.745 146.7 130.6 146.6 130.4 146.544z M130.432 145.8 c0.32-0.1 0.577-0.247 0.77-0.44s0.29-0.42 0.29-0.68c0-0.247-0.097-0.451-0.29-0.615s-0.45-0.245-0.77-0.245 s-0.577 0.082-0.77 0.245s-0.29 0.385-0.29 0.665c0 0.2 0.1 0.4 0.3 0.63C129.83 145.5 130.1 145.7 130.4 145.774z "/><path d="M134.912 146.125c-0.267-0.14-0.493-0.327-0.68-0.56c-0.187-0.233-0.28-0.52-0.28-0.86c0-0.233 0.045-0.45 0.135-0.65 c0.09-0.2 0.218-0.372 0.385-0.515s0.369-0.255 0.605-0.335c0.237-0.08 0.505-0.12 0.805-0.12c0.313 0 0.6 0 0.8 0.1 c0.24 0.1 0.4 0.2 0.6 0.33c0.16 0.1 0.3 0.3 0.4 0.495s0.125 0.4 0.1 0.615c0 0.313-0.086 0.597-0.26 0.8 s-0.42 0.453-0.74 0.6c0.12 0.1 0.3 0.1 0.4 0.22s0.305 0.2 0.4 0.36c0.14 0.1 0.3 0.3 0.4 0.5 c0.096 0.2 0.1 0.4 0.1 0.675c0 0.214-0.042 0.43-0.125 0.65c-0.083 0.22-0.216 0.42-0.4 0.6 c-0.183 0.18-0.42 0.327-0.71 0.44s-0.638 0.17-1.045 0.17c-0.42 0-0.775-0.057-1.065-0.17s-0.525-0.26-0.705-0.44 c-0.18-0.18-0.312-0.378-0.395-0.595s-0.125-0.432-0.125-0.645c0-0.22 0.037-0.42 0.11-0.6s0.172-0.343 0.295-0.49 c0.123-0.147 0.265-0.275 0.425-0.385S134.745 146.2 134.9 146.125z M135.842 146.544c-0.18 0.047-0.35 0.112-0.51 0.2 c-0.16 0.083-0.3 0.18-0.42 0.29c-0.12 0.11-0.215 0.233-0.285 0.37c-0.07 0.137-0.105 0.285-0.105 0.4 c0 0.2 0 0.4 0.1 0.515c0.083 0.1 0.2 0.3 0.3 0.35s0.275 0.2 0.4 0.195s0.32 0.1 0.5 0.06s0.32-0.02 0.48-0.06 s0.305-0.105 0.435-0.195s0.235-0.207 0.315-0.35c0.08-0.143 0.12-0.315 0.12-0.515c0-0.16-0.039-0.308-0.115-0.445 s-0.18-0.26-0.31-0.37c-0.13-0.11-0.278-0.207-0.445-0.29C136.195 146.7 136 146.6 135.8 146.544z M135.882 145.8 c0.32-0.1 0.577-0.247 0.77-0.44s0.29-0.42 0.29-0.68c0-0.247-0.097-0.451-0.29-0.615s-0.45-0.245-0.77-0.245 s-0.577 0.082-0.77 0.245s-0.29 0.385-0.29 0.665c0 0.2 0.1 0.4 0.3 0.63C135.28 145.5 135.5 145.7 135.9 145.774z "/><path d="M140.361 146.125c-0.267-0.14-0.493-0.327-0.68-0.56c-0.187-0.233-0.28-0.52-0.28-0.86c0-0.233 0.045-0.45 0.135-0.65 c0.09-0.2 0.218-0.372 0.385-0.515s0.369-0.255 0.605-0.335c0.237-0.08 0.505-0.12 0.805-0.12c0.313 0 0.6 0 0.8 0.1 c0.24 0.1 0.4 0.2 0.6 0.33c0.16 0.1 0.3 0.3 0.4 0.495s0.125 0.4 0.1 0.615c0 0.313-0.086 0.597-0.26 0.8 s-0.42 0.453-0.74 0.6c0.12 0.1 0.3 0.1 0.4 0.22s0.305 0.2 0.4 0.36c0.14 0.1 0.3 0.3 0.4 0.5 c0.096 0.2 0.1 0.4 0.1 0.675c0 0.214-0.042 0.43-0.125 0.65c-0.083 0.22-0.216 0.42-0.4 0.6 c-0.183 0.18-0.42 0.327-0.71 0.44s-0.638 0.17-1.045 0.17c-0.42 0-0.775-0.057-1.065-0.17s-0.525-0.26-0.705-0.44 c-0.18-0.18-0.312-0.378-0.395-0.595s-0.125-0.432-0.125-0.645c0-0.22 0.037-0.42 0.11-0.6s0.172-0.343 0.295-0.49 c0.123-0.147 0.265-0.275 0.425-0.385S140.195 146.2 140.4 146.125z M141.292 146.544c-0.18 0.047-0.35 0.112-0.51 0.2 c-0.16 0.083-0.3 0.18-0.42 0.29c-0.12 0.11-0.215 0.233-0.285 0.37c-0.07 0.137-0.105 0.285-0.105 0.4 c0 0.2 0 0.4 0.1 0.515c0.083 0.1 0.2 0.3 0.3 0.35s0.275 0.2 0.4 0.195s0.32 0.1 0.5 0.06s0.32-0.02 0.48-0.06 s0.305-0.105 0.435-0.195s0.235-0.207 0.315-0.35c0.08-0.143 0.12-0.315 0.12-0.515c0-0.16-0.039-0.308-0.115-0.445 s-0.18-0.26-0.31-0.37c-0.13-0.11-0.278-0.207-0.445-0.29C141.645 146.7 141.5 146.6 141.3 146.544z M141.332 145.8 c0.32-0.1 0.577-0.247 0.77-0.44s0.29-0.42 0.29-0.68c0-0.247-0.097-0.451-0.29-0.615s-0.45-0.245-0.77-0.245 s-0.577 0.082-0.77 0.245s-0.29 0.385-0.29 0.665c0 0.2 0.1 0.4 0.3 0.63C140.73 145.5 141 145.7 141.3 145.774z "/><path d="M297.824 44.68c0-0.342-0.243-0.684-1.287-0.693v-0.541c1.044-0.009 1.287-0.351 1.287-0.693 c0-0.567-0.081-1.062-0.081-1.684c0-0.945 0.531-1.225 1.666-1.225h0.585v0.504h-0.441c-0.873 0-1.062 0.198-1.062 0.8 c0 0.5 0.1 1 0.1 1.584c0 0.603-0.216 0.891-0.846 1v0.036c0.63 0.1 0.8 0.4 0.8 1 c0 0.594-0.054 1.053-0.054 1.584c0 0.6 0.2 0.8 1.1 0.765h0.441v0.504h-0.585c-1.134 0-1.666-0.279-1.666-1.224 C297.743 45.7 297.8 45.3 297.8 44.68z"/><path d="M301.126 41.844c0-0.927 0.531-1.467 1.27-1.467s1.278 0.5 1.3 1.467c0 0.937-0.54 1.513-1.278 1.5 S301.126 42.8 301.1 41.844z M301.126 45.473l1.657-1.666l0.333 0.315l-1.495 1.818L301.126 45.473z M303.026 41.8 c0-0.693-0.279-0.954-0.63-0.954c-0.342 0-0.63 0.261-0.63 0.954c0 0.7 0.3 1 0.6 1 C302.747 42.8 303 42.5 303 41.844z M303.512 44.824c0-0.936 0.541-1.477 1.278-1.477c0.738 0 1.3 0.5 1.3 1.5 c0 0.937-0.531 1.503-1.27 1.503C304.052 46.3 303.5 45.8 303.5 44.824z M306.069 41.07l-1.657 1.666l-0.333-0.315 l1.494-1.818L306.069 41.07z M305.42 44.824c0-0.693-0.288-0.963-0.63-0.963c-0.351 0-0.63 0.27-0.63 1 c0 0.7 0.3 1 0.6 0.99C305.132 45.8 305.4 45.5 305.4 44.824z"/><path d="M312.376 39.837h2.332v4.897c0 0.6 0.3 0.9 0.8 0.864c0.234 0 0.477-0.063 0.792-0.189l0.216 0.7 c-0.414 0.135-0.72 0.252-1.225 0.252c-0.981 0-1.503-0.585-1.503-1.647v-4.132h-1.44V39.837z"/><path d="M320.882 43.42c-0.027-0.54-0.315-0.981-1.098-0.981c-0.54 0-1.062 0.243-1.495 0.495l-0.333-0.603 c0.486-0.297 1.215-0.621 1.98-0.621c1.215 0 1.8 0.7 1.8 1.863v2.647h-0.729l-0.072-0.567h-0.027 c-0.468 0.36-1.08 0.675-1.684 0.675c-0.846 0-1.485-0.495-1.485-1.269C317.776 44.1 318.7 43.6 320.9 43.42z M319.514 45.617c0.468 0 0.918-0.216 1.368-0.585v-1.044c-1.729 0.135-2.242 0.477-2.242 1 C318.64 45.4 319 45.6 319.5 45.617z"/><path d="M323.653 47.345c0.585 0 0.937-0.36 1.135-0.846l0.117-0.306l-2.007-4.375h0.891l0.99 2.3 c0.162 0.4 0.3 0.9 0.5 1.287h0.036c0.144-0.423 0.306-0.882 0.45-1.287l0.873-2.296h0.846l-1.881 4.7 c-0.351 0.936-0.891 1.566-1.917 1.566c-0.216 0-0.441-0.036-0.604-0.09l0.18-0.693C323.383 47.3 323.5 47.3 323.7 47.345z "/><path d="M330.592 41.709c1.152 0 2.2 0.8 2.2 2.313c0 1.458-1.044 2.305-2.197 2.305s-2.197-0.846-2.197-2.305 C328.396 42.6 329.4 41.7 330.6 41.709z M330.592 45.599c0.783 0 1.278-0.63 1.278-1.576s-0.495-1.575-1.278-1.575 s-1.278 0.63-1.278 1.575S329.809 45.6 330.6 45.599z"/><path d="M337.883 46.22h-0.729l-0.072-0.729h-0.036c-0.432 0.495-0.927 0.837-1.593 0.837c-1.035 0-1.503-0.63-1.503-1.782v-2.728 h0.891v2.611c0 0.8 0.3 1.1 0.9 1.134c0.459 0 0.801-0.207 1.233-0.729v-3.016h0.891V46.22z"/><path d="M340.474 42.538h-1.207v-0.675l1.242-0.045l0.117-1.215h0.738v1.215h2.08v0.72h-2.08v1.945 c0 0.8 0.3 1.1 1.1 1.125c0.387 0 0.711-0.072 1.008-0.189l0.18 0.657c-0.396 0.135-0.9 0.252-1.395 0.3 c-1.306 0-1.747-0.747-1.747-1.845V42.538z"/><path d="M350.571 41.106l-0.018-1.062h1.125l-0.018 1.062l-0.252 2.052h-0.585L350.571 41.106z M352.723 41.106l-0.018-1.062h1.125 l-0.018 1.062l-0.252 2.052h-0.585L352.723 41.106z"/><path d="M355.684 39.837h0.891v1.692l-0.054 0.99c0.441-0.45 0.937-0.81 1.621-0.81c1.026 0 1.5 0.6 1.5 1.782v2.728h-0.892 v-2.611c0-0.765-0.252-1.125-0.918-1.125c-0.468 0-0.801 0.234-1.251 0.703v3.034h-0.891V39.837z"/><path d="M362.992 41.709c1.152 0 2.2 0.8 2.2 2.313c0 1.458-1.044 2.305-2.197 2.305s-2.197-0.846-2.197-2.305 C360.795 42.6 361.8 41.7 363 41.709z M362.992 45.599c0.783 0 1.278-0.63 1.278-1.576s-0.495-1.575-1.278-1.575 s-1.278 0.63-1.278 1.575S362.208 45.6 363 45.599z"/><path d="M366.177 41.817h0.684l0.072 0.576h0.027c0.207-0.396 0.468-0.684 0.972-0.684c0.432 0 0.7 0.3 0.8 0.7 c0.234-0.441 0.531-0.747 1.017-0.747c0.612 0 1 0.5 1 1.377v3.133h-0.846v-3.061c0-0.45-0.126-0.675-0.414-0.675 c-0.279 0-0.468 0.198-0.667 0.604v3.133h-0.702v-3.061c0-0.45-0.144-0.675-0.432-0.675c-0.27 0-0.45 0.198-0.648 0.604v3.133 h-0.846V41.817z"/><path d="M373.927 41.709c1.287 0 2 0.9 2 2.08c0 0.18-0.027 0.351-0.045 0.459h-3.313 c0.054 0.9 0.7 1.4 1.6 1.377c0.477 0 0.882-0.144 1.278-0.378l0.315 0.567c-0.459 0.288-1.036 0.513-1.711 0.5 c-1.323 0-2.386-0.855-2.386-2.305C371.676 42.6 372.8 41.7 373.9 41.709z M375.124 43.6 c0-0.783-0.423-1.224-1.179-1.224c-0.657 0-1.243 0.441-1.359 1.224H375.124z"/><path d="M377.571 41.106l-0.018-1.062h1.125l-0.018 1.062l-0.252 2.052h-0.585L377.571 41.106z M379.723 41.106l-0.018-1.062h1.125 l-0.018 1.062l-0.252 2.052h-0.585L379.723 41.106z"/><path d="M387.525 41.844c0-0.927 0.531-1.467 1.27-1.467s1.278 0.5 1.3 1.467c0 0.937-0.54 1.513-1.278 1.5 S387.525 42.8 387.5 41.844z M387.525 45.473l1.657-1.666l0.333 0.315l-1.495 1.818L387.525 45.473z M389.425 41.8 c0-0.693-0.279-0.954-0.63-0.954c-0.342 0-0.63 0.261-0.63 0.954c0 0.7 0.3 1 0.6 1 C389.146 42.8 389.4 42.5 389.4 41.844z M389.911 44.824c0-0.936 0.541-1.477 1.278-1.477c0.738 0 1.3 0.5 1.3 1.5 c0 0.937-0.531 1.503-1.27 1.503C390.451 46.3 389.9 45.8 389.9 44.824z M392.468 41.07l-1.657 1.666l-0.333-0.315 l1.495-1.818L392.468 41.07z M391.819 44.824c0-0.693-0.288-0.963-0.63-0.963c-0.351 0-0.63 0.27-0.63 1 c0 0.7 0.3 1 0.6 0.99C391.531 45.8 391.8 45.5 391.8 44.824z"/><path d="M394.032 47.084c0.874 0 1.071-0.198 1.071-0.765c0-0.531-0.054-0.99-0.054-1.584c0-0.604 0.207-0.892 0.837-1v-0.036 c-0.63-0.108-0.837-0.396-0.837-1c0-0.549 0.054-1.081 0.054-1.584c0-0.567-0.198-0.765-1.071-0.765h-0.441v-0.504h0.585 c1.144 0 1.7 0.3 1.7 1.225c0 0.621-0.081 1.116-0.081 1.684c0 0.3 0.2 0.7 1.3 0.693v0.541 c-1.044 0.009-1.288 0.351-1.288 0.693c0 0.6 0.1 1 0.1 1.684c0 0.945-0.522 1.224-1.666 1.224h-0.585v-0.504H394.032z"/><path d="M319.542 270.225h1.56l3.036 8.004h-1.68l-0.696-2.028h-2.976l-0.696 2.028h-1.584L319.542 270.225z M321.33 275 l-1.056-3.108l-1.068 3.108H321.33z"/><path d="M323.958 272.601h1.56l1.08 3.912l1.188-3.912h1.188l1.2 3.912l1.068-3.912h1.488l-1.908 5.628h-1.368l-1.152-3.396 l-1.116 3.396h-1.32L323.958 272.601z"/><path d="M338.682 277.413c-0.024 0.024-0.09 0.09-0.198 0.198c-0.108 0.108-0.264 0.222-0.468 0.3 c-0.204 0.12-0.464 0.228-0.78 0.324c-0.316 0.096-0.694 0.144-1.134 0.144c-0.448 0-0.856-0.076-1.224-0.228 c-0.368-0.152-0.682-0.362-0.942-0.63c-0.26-0.268-0.46-0.59-0.6-0.966c-0.14-0.376-0.21-0.792-0.21-1.248 c0-0.416 0.07-0.802 0.21-1.158c0.14-0.356 0.336-0.666 0.588-0.93c0.252-0.264 0.552-0.472 0.9-0.624 c0.348-0.152 0.734-0.228 1.158-0.228c0.512 0 0.9 0.1 1.3 0.282s0.642 0.4 0.9 0.7 c0.216 0.3 0.4 0.6 0.5 1.032c0.096 0.4 0.1 0.8 0.1 1.176v0.204h-4.2c0 0.2 0 0.4 0.1 0.6 c0.092 0.2 0.2 0.3 0.4 0.432s0.316 0.2 0.5 0.276c0.188 0.1 0.4 0.1 0.6 0.096c0.272 0 0.51-0.026 0.714-0.078 c0.204-0.052 0.378-0.112 0.522-0.18c0.144-0.068 0.262-0.14 0.354-0.216c0.092-0.076 0.162-0.138 0.21-0.186L338.682 277.413z M337.302 274.82c0-0.144-0.028-0.288-0.084-0.432s-0.138-0.274-0.246-0.39c-0.108-0.116-0.246-0.212-0.414-0.288 c-0.168-0.076-0.36-0.114-0.576-0.114c-0.232 0-0.438 0.038-0.618 0.114c-0.18 0.076-0.33 0.172-0.45 0.3 c-0.12 0.116-0.212 0.246-0.276 0.39s-0.096 0.288-0.096 0.432H337.302z"/><path d="M340.422 276.621c0.176 0.2 0.4 0.3 0.7 0.438c0.268 0.1 0.6 0.2 0.9 0.174c0.304 0 0.548-0.04 0.732-0.12 c0.184-0.08 0.276-0.211 0.276-0.396c0-0.08-0.016-0.154-0.048-0.222s-0.1-0.134-0.204-0.198c-0.104-0.064-0.248-0.128-0.432-0.192 c-0.184-0.064-0.432-0.132-0.744-0.204c-0.192-0.048-0.392-0.112-0.6-0.192s-0.402-0.19-0.582-0.33 c-0.18-0.14-0.328-0.308-0.444-0.504c-0.116-0.196-0.174-0.43-0.174-0.702c0-0.28 0.068-0.53 0.204-0.75 c0.136-0.22 0.314-0.404 0.534-0.552c0.22-0.148 0.468-0.262 0.744-0.342c0.276-0.08 0.554-0.12 0.834-0.12 c0.496 0 0.9 0.1 1.3 0.156c0.348 0.1 0.7 0.3 0.9 0.468l-0.732 0.996c-0.152-0.112-0.353-0.214-0.6-0.306 c-0.248-0.092-0.54-0.138-0.876-0.138s-0.57 0.05-0.702 0.15c-0.132 0.1-0.198 0.222-0.198 0.366c0 0.2 0.1 0.3 0.3 0.4 c0.22 0.1 0.6 0.2 1 0.318c0.288 0.1 0.5 0.1 0.8 0.24c0.228 0.1 0.4 0.2 0.6 0.36s0.29 0.3 0.4 0.5 c0.088 0.2 0.1 0.4 0.1 0.702s-0.064 0.518-0.192 0.738c-0.128 0.22-0.302 0.406-0.522 0.6 c-0.22 0.152-0.476 0.27-0.768 0.354s-0.602 0.126-0.93 0.126c-0.528 0-1.004-0.074-1.428-0.222s-0.764-0.366-1.02-0.654 L340.422 276.621z"/><path d="M345.318 275.409c0-0.408 0.074-0.794 0.222-1.158c0.148-0.364 0.354-0.682 0.618-0.954s0.582-0.488 0.954-0.648 c0.372-0.16 0.782-0.24 1.23-0.24c0.448 0 0.9 0.1 1.2 0.24c0.372 0.2 0.7 0.4 1 0.6 c0.264 0.3 0.5 0.6 0.6 0.954c0.148 0.4 0.2 0.8 0.2 1.158c0 0.408-0.074 0.794-0.222 1.2 c-0.148 0.364-0.354 0.684-0.618 0.96c-0.264 0.276-0.582 0.494-0.954 0.654c-0.372 0.16-0.782 0.24-1.23 0.2 c-0.448 0-0.858-0.08-1.23-0.24c-0.372-0.16-0.69-0.378-0.954-0.654c-0.264-0.276-0.47-0.596-0.618-0.96 C345.392 276.2 345.3 275.8 345.3 275.409z M348.342 277.196c0.272 0 0.508-0.054 0.708-0.162 c0.2-0.108 0.366-0.25 0.498-0.426c0.132-0.176 0.23-0.368 0.294-0.576s0.096-0.416 0.096-0.624c0-0.2-0.032-0.406-0.096-0.618 s-0.162-0.404-0.294-0.576c-0.132-0.172-0.298-0.312-0.498-0.42c-0.2-0.108-0.436-0.162-0.708-0.162s-0.508 0.054-0.708 0.2 c-0.2 0.108-0.366 0.248-0.498 0.42c-0.132 0.172-0.23 0.364-0.294 0.576s-0.096 0.418-0.096 0.6 c0 0.2 0 0.4 0.1 0.624s0.162 0.4 0.3 0.576c0.132 0.2 0.3 0.3 0.5 0.4 C347.833 277.1 348.1 277.2 348.3 277.196z"/><path d="M352.494 272.601h1.356l0.036 0.636c0.072-0.08 0.154-0.166 0.246-0.258c0.092-0.092 0.204-0.174 0.336-0.246 c0.132-0.072 0.284-0.132 0.456-0.18c0.172-0.048 0.37-0.072 0.594-0.072c0.744 0 1.3 0.3 1.7 0.8 c0.288-0.296 0.582-0.506 0.882-0.63c0.3-0.124 0.65-0.186 1.05-0.186c0.712 0 1.3 0.2 1.6 0.63s0.57 1 0.6 1.698v3.42 h-1.416v-3.408c0-0.36-0.09-0.638-0.27-0.834c-0.18-0.196-0.426-0.294-0.738-0.294c-0.192 0-0.368 0.038-0.528 0.1 c-0.16 0.076-0.298 0.182-0.414 0.318c-0.116 0.136-0.204 0.294-0.264 0.474c-0.06 0.18-0.09 0.374-0.09 0.582v3.048h-1.416v-3.408 c0-0.36-0.09-0.638-0.27-0.834c-0.18-0.196-0.426-0.294-0.738-0.294c-0.192 0-0.368 0.038-0.528 0.114s-0.298 0.182-0.414 0.3 c-0.116 0.136-0.204 0.294-0.264 0.474c-0.06 0.18-0.09 0.374-0.09 0.582v3.048h-1.416V272.601z"/><path d="M368.009 277.413c-0.024 0.024-0.09 0.09-0.198 0.198c-0.108 0.108-0.264 0.222-0.468 0.3 c-0.204 0.12-0.464 0.228-0.78 0.324c-0.316 0.096-0.694 0.144-1.134 0.144c-0.448 0-0.856-0.076-1.224-0.228 c-0.368-0.152-0.682-0.362-0.942-0.63c-0.26-0.268-0.46-0.59-0.6-0.966c-0.14-0.376-0.21-0.792-0.21-1.248 c0-0.416 0.07-0.802 0.21-1.158c0.14-0.356 0.336-0.666 0.588-0.93c0.252-0.264 0.552-0.472 0.9-0.624 c0.348-0.152 0.734-0.228 1.158-0.228c0.512 0 0.9 0.1 1.3 0.282s0.642 0.4 0.9 0.7 c0.216 0.3 0.4 0.6 0.5 1.032c0.096 0.4 0.1 0.8 0.1 1.176v0.204h-4.2c0 0.2 0 0.4 0.1 0.6 c0.092 0.2 0.2 0.3 0.4 0.432s0.316 0.2 0.5 0.276c0.188 0.1 0.4 0.1 0.6 0.096c0.272 0 0.51-0.026 0.714-0.078 c0.204-0.052 0.378-0.112 0.522-0.18c0.144-0.068 0.262-0.14 0.354-0.216c0.092-0.076 0.162-0.138 0.21-0.186L368.009 277.413z M366.629 274.82c0-0.144-0.028-0.288-0.084-0.432s-0.138-0.274-0.246-0.39c-0.108-0.116-0.246-0.212-0.414-0.288 c-0.168-0.076-0.36-0.114-0.576-0.114c-0.232 0-0.438 0.038-0.618 0.114c-0.18 0.076-0.33 0.172-0.45 0.3 c-0.12 0.116-0.212 0.246-0.276 0.39s-0.096 0.288-0.096 0.432H366.629z"/><path d="M371.921 276.621c0.176 0.2 0.4 0.3 0.7 0.438c0.268 0.1 0.6 0.2 0.9 0.174c0.304 0 0.548-0.04 0.732-0.12 c0.184-0.08 0.276-0.211 0.276-0.396c0-0.08-0.016-0.154-0.048-0.222s-0.1-0.134-0.204-0.198c-0.104-0.064-0.248-0.128-0.432-0.192 c-0.184-0.064-0.432-0.132-0.744-0.204c-0.192-0.048-0.392-0.112-0.6-0.192s-0.402-0.19-0.582-0.33 c-0.18-0.14-0.328-0.308-0.444-0.504c-0.116-0.196-0.174-0.43-0.174-0.702c0-0.28 0.068-0.53 0.204-0.75 c0.136-0.22 0.314-0.404 0.534-0.552c0.22-0.148 0.468-0.262 0.744-0.342c0.276-0.08 0.554-0.12 0.834-0.12 c0.496 0 0.9 0.1 1.3 0.156c0.348 0.1 0.7 0.3 0.9 0.468l-0.732 0.996c-0.152-0.112-0.353-0.214-0.6-0.306 c-0.248-0.092-0.54-0.138-0.876-0.138s-0.57 0.05-0.702 0.15c-0.132 0.1-0.198 0.222-0.198 0.366c0 0.2 0.1 0.3 0.3 0.4 c0.22 0.1 0.6 0.2 1 0.318c0.288 0.1 0.5 0.1 0.8 0.24c0.228 0.1 0.4 0.2 0.6 0.36s0.29 0.3 0.4 0.5 c0.088 0.2 0.1 0.4 0.1 0.702s-0.064 0.518-0.192 0.738c-0.128 0.22-0.302 0.406-0.522 0.6 c-0.22 0.152-0.476 0.27-0.768 0.354s-0.602 0.126-0.93 0.126c-0.528 0-1.004-0.074-1.428-0.222s-0.764-0.366-1.02-0.654 L371.921 276.621z"/><path d="M377.093 270.225h1.512v1.488h-1.512V270.225z M377.141 272.601h1.416v5.628h-1.416V272.601z"/><path d="M380.489 273.752h-0.96v-1.152h0.96v-1.824h1.416v1.824h1.512v1.152h-1.512v2.46c0 0.3 0.1 0.6 0.2 0.7 s0.282 0.3 0.5 0.258c0.224 0 0.402-0.032 0.534-0.096c0.132-0.064 0.258-0.14 0.378-0.228l0.6 0.9 c-0.28 0.232-0.556 0.398-0.828 0.498c-0.272 0.1-0.576 0.15-0.912 0.15c-0.344 0-0.636-0.05-0.876-0.15 c-0.24-0.1-0.434-0.242-0.582-0.426s-0.254-0.406-0.318-0.666c-0.064-0.26-0.096-0.546-0.096-0.858V273.752z"/><path d="M389.885 277.413c-0.024 0.024-0.09 0.09-0.198 0.198c-0.108 0.108-0.264 0.222-0.468 0.3 c-0.204 0.12-0.464 0.228-0.78 0.324c-0.316 0.096-0.694 0.144-1.134 0.144c-0.448 0-0.856-0.076-1.224-0.228 c-0.368-0.152-0.682-0.362-0.942-0.63c-0.26-0.268-0.46-0.59-0.6-0.966c-0.14-0.376-0.21-0.792-0.21-1.248 c0-0.416 0.07-0.802 0.21-1.158c0.14-0.356 0.336-0.666 0.588-0.93c0.252-0.264 0.552-0.472 0.9-0.624 c0.348-0.152 0.734-0.228 1.158-0.228c0.512 0 0.9 0.1 1.3 0.282s0.642 0.4 0.9 0.7 c0.216 0.3 0.4 0.6 0.5 1.032c0.096 0.4 0.1 0.8 0.1 1.176v0.204h-4.2c0 0.2 0 0.4 0.1 0.6 c0.092 0.2 0.2 0.3 0.4 0.432s0.316 0.2 0.5 0.276c0.188 0.1 0.4 0.1 0.6 0.096c0.272 0 0.51-0.026 0.714-0.078 c0.204-0.052 0.378-0.112 0.522-0.18c0.144-0.068 0.262-0.14 0.354-0.216c0.092-0.076 0.162-0.138 0.21-0.186L389.885 277.413z M388.505 274.82c0-0.144-0.028-0.288-0.084-0.432s-0.138-0.274-0.246-0.39c-0.108-0.116-0.246-0.212-0.414-0.288 c-0.168-0.076-0.36-0.114-0.576-0.114c-0.232 0-0.438 0.038-0.618 0.114c-0.18 0.076-0.33 0.172-0.45 0.3 c-0.12 0.116-0.212 0.246-0.276 0.39s-0.096 0.288-0.096 0.432H388.505z"/></svg>
