<svg xmlns="http://www.w3.org/2000/svg" viewBox="0 0 163 41"><path d="M160.5 0H2.5C1.122 0 0 1.1 0 2.5v36C0 39.9 1.1 41 2.5 41h158c1.379 0 2.5-1.121 2.5-2.5v-36 C163 1.1 161.9 0 160.5 0z M2.5 1h158c0.827 0 1.5 0.7 1.5 1.5V27H1V2.5C1 1.7 1.7 1 2.5 1z M160.5 40H2.5 C1.673 40 1 39.3 1 38.5V28h161v10.5C162 39.3 161.3 40 160.5 40z"/><path d="M156.153 32c-0.565 0-1.063 1.391-1.358 1.803C154.5 33.4 154 32 153.4 32c-0.907 0-1.642 0.696-1.642 1.6 c0 1.6 2.6 3 3 3.445c0.479-0.494 3-1.703 3-3.445C157.795 32.7 157.1 32 156.2 32z"/><path d="M5.085 20.5h15c0.276 0 0.5-0.224 0.5-0.5V5c0-0.276-0.224-0.5-0.5-0.5h-15c-0.276 0-0.5 0.224-0.5 0.5v15 C4.585 20.3 4.8 20.5 5.1 20.5z M13.309 17.581l2.023 1.919h-4.396L13.309 17.581z M13.361 16.253l-1.04 0.841l-1.67-3.067 l1.951-3.731l5.209 9.204h-1.026L13.361 16.253z M11.531 17.733L9.345 19.5H7.187l2.381-5.37L11.531 17.733z M5.585 5.5h14v14 h-0.626L12.568 8.204l-2.493 4.766l-0.599-1.1L6.093 19.5H5.585V5.5z"/></svg>
