<svg xmlns="http://www.w3.org/2000/svg" viewBox="0 0 163 41"><path fill="#FFFFFF" d="M160.5 41H2.5C1.122 41 0 39.9 0 38.5v-36C0 1.1 1.1 0 2.5 0h158c1.379 0 2.5 1.1 2.5 2.5v36 C163 39.9 161.9 41 160.5 41z M2.5 1C1.673 1 1 1.7 1 2.5v36C1 39.3 1.7 40 2.5 40h158c0.827 0 1.5-0.673 1.5-1.5v-36 c0-0.827-0.673-1.5-1.5-1.5H2.5z"/><path fill="#FFFFFF" d="M17.5 8.833c-6.904 0-12.5 5.596-12.5 12.5s5.596 12.5 12.5 12.5S30 28.2 30 21.333S24.404 8.8 17.5 8.833z M17.5 32.643c-6.246 0-11.31-5.063-11.31-11.31c0-6.246 5.063-11.31 11.31-11.31s11.31 5.1 11.3 11.3 C28.81 27.6 23.7 32.6 17.5 32.643z"/><path fill="#FFFFFF" d="M17.5 11.661c-5.342 0-9.673 4.331-9.673 9.673s4.331 9.7 9.7 9.673s9.673-4.331 9.673-9.673S22.842 11.7 17.5 11.7 z M17.5 29.898c-4.73 0-8.565-3.835-8.565-8.565s3.835-8.565 8.565-8.565s8.565 3.8 8.6 8.565S22.23 29.9 17.5 29.898z"/><path fill="#FFFFFF" d="M18.5 16.167c-2.393 0-4.333 1.94-4.333 4.333s1.94 4.3 4.3 4.333s4.333-1.94 4.333-4.333S20.893 16.2 18.5 16.167z M19.5 21.167c-0.92 0-1.667-0.746-1.667-1.667s0.746-1.667 1.667-1.667s1.667 0.7 1.7 1.667S20.42 21.2 19.5 21.167z"/></svg>
