<svg xmlns="http://www.w3.org/2000/svg" viewBox="0 0 125 125"><rect fill="#FFFFFF" x="31" y="17.5" width="2" height="104"/><rect fill="#FFFFFF" x="32" y="28.5" width="88" height="2"/><path fill="#FFFFFF" d="M66 30.5H35v-11h31V30.5z M36 29.5h29v-9H36V29.5z"/><rect fill="#FFFFFF" x="40" y="23.5" width="14" height="2"/><rect fill="#FFFFFF" x="59.7" y="23.8" transform="matrix(0.7072 0.707 -0.707 0.7072 35.2557 -36.6248)" width="4.2" height="1"/><rect fill="#FFFFFF" x="61.3" y="22.2" transform="matrix(0.7071 0.7071 -0.7071 0.7071 35.2607 -36.627)" width="1" height="4.2"/><rect fill="#FFFFFF" x="9" y="22.5" width="15" height="2"/><rect fill="#FFFFFF" x="12" y="28.5" width="14" height="2"/><rect fill="#FFFFFF" x="12" y="34.5" width="15" height="2"/><rect fill="#FFFFFF" x="9" y="40.5" width="8" height="2"/><rect fill="#FFFFFF" x="9" y="58.5" width="9" height="2"/><rect fill="#FFFFFF" x="9" y="64.5" width="9" height="2"/><rect fill="#FFFFFF" x="12" y="46.5" width="11" height="2"/><rect fill="#FFFFFF" x="12" y="52.5" width="9" height="2"/><rect fill="#FFFFFF" x="55" y="9.5" width="20" height="2"/><rect fill="#FFFFFF" x="5" y="15.5" width="116" height="2"/><circle fill="#FFFFFF" cx="12.2" cy="10.5" r="1.6"/><circle fill="#FFFFFF" cx="17.1" cy="10.5" r="1.6"/><circle fill="#FFFFFF" cx="22" cy="10.5" r="1.6"/><path fill="#FFFFFF" d="M118.5 123.5H7.5c-2.481 0-4.5-2.019-4.5-4.5V7c0-2.481 2.019-4.5 4.5-4.5h111c2.481 0 4.5 2 4.5 4.5v112 C123 121.5 121 123.5 118.5 123.5z M7.5 5.5C6.673 5.5 6 6.2 6 7v112c0 0.8 0.7 1.5 1.5 1.5h111 c0.827 0 1.5-0.673 1.5-1.5V7c0-0.827-0.673-1.5-1.5-1.5H7.5z"/></svg>
