<svg xmlns="http://www.w3.org/2000/svg" viewBox="0 0 74 20"><path d="M55.278 9.642c-0.09-0.096-0.206-0.176-0.347-0.239c-0.141-0.063-0.302-0.096-0.483-0.096c-0.195 0-0.368 0.032-0.519 0.1 s-0.277 0.144-0.378 0.239c-0.101 0.097-0.178 0.205-0.232 0.325c-0.054 0.12-0.081 0.24-0.081 0.36h2.316 c0-0.12-0.024-0.24-0.07-0.36C55.437 9.8 55.4 9.7 55.3 9.642z"/><path d="M26.652 9.823c-0.111-0.144-0.25-0.261-0.417-0.351c-0.168-0.09-0.366-0.135-0.594-0.135c-0.228 0-0.426 0.045-0.594 0.1 c-0.168 0.09-0.307 0.207-0.418 0.351s-0.193 0.303-0.247 0.479c-0.054 0.177-0.081 0.349-0.081 0.5 c0 0.2 0 0.3 0.1 0.52c0.054 0.2 0.1 0.3 0.2 0.48s0.25 0.3 0.4 0.354c0.168 0.1 0.4 0.1 0.6 0.1 c0.228 0 0.426-0.045 0.594-0.135c0.168-0.09 0.307-0.208 0.417-0.354c0.111-0.146 0.193-0.307 0.247-0.48 c0.054-0.173 0.081-0.347 0.081-0.52c0-0.167-0.027-0.339-0.081-0.516C26.845 10.1 26.8 10 26.7 9.823z"/><path d="M70.986 0H2.014C0.906 0 0 0.9 0 1.967v16.066C0 19.1 0.9 20 2 20h68.972C72.094 20 73 19.1 73 18.033V1.967 C73 0.9 72.1 0 71 0z M17.812 10.726c0.097 0.3 0.2 0.5 0.4 0.718c0.181 0.2 0.4 0.4 0.6 0.5 c0.252 0.1 0.5 0.2 0.9 0.177c0.289 0 0.535-0.033 0.74-0.098c0.205-0.065 0.379-0.148 0.524-0.246 c0.145-0.099 0.265-0.202 0.362-0.31c0.097-0.108 0.186-0.202 0.267-0.28l0.886 0.748c-0.1 0.151-0.24 0.304-0.418 0.5 c-0.177 0.158-0.387 0.304-0.629 0.438c-0.241 0.134-0.507 0.244-0.795 0.329c-0.289 0.085-0.594 0.128-0.916 0.1 c-0.503 0-0.964-0.085-1.38-0.256c-0.416-0.171-0.775-0.408-1.077-0.714c-0.302-0.304-0.537-0.664-0.705-1.077 s-0.252-0.865-0.252-1.357c0-0.478 0.084-0.928 0.252-1.348c0.168-0.42 0.405-0.787 0.71-1.102c0.305-0.315 0.67-0.564 1.092-0.747 c0.423-0.183 0.889-0.276 1.4-0.276c0.329 0 0.6 0 0.9 0.104c0.275 0.1 0.5 0.2 0.8 0.3 c0.225 0.1 0.4 0.3 0.6 0.419c0.175 0.2 0.3 0.3 0.5 0.516l-0.896 0.777c-0.215-0.302-0.465-0.544-0.75-0.728 C20.577 7.6 20.2 7.5 19.8 7.49c-0.329 0-0.624 0.063-0.886 0.191c-0.262 0.129-0.485 0.299-0.67 0.5 c-0.185 0.213-0.326 0.462-0.423 0.747c-0.097 0.285-0.146 0.585-0.146 0.9S17.715 10.4 17.8 10.726z M27.992 11.8 c-0.124 0.298-0.297 0.56-0.518 0.787c-0.222 0.226-0.489 0.405-0.801 0.536c-0.312 0.132-0.656 0.197-1.032 0.2 c-0.376 0-0.72-0.065-1.032-0.197c-0.312-0.131-0.579-0.31-0.8-0.536c-0.222-0.227-0.394-0.489-0.519-0.787 c-0.124-0.299-0.186-0.615-0.186-0.949c0-0.335 0.062-0.651 0.186-0.95c0.124-0.298 0.297-0.558 0.519-0.782 c0.221-0.223 0.488-0.4 0.8-0.531c0.312-0.131 0.656-0.196 1.032-0.196c0.376 0 0.7 0.1 1 0.2 c0.312 0.1 0.6 0.3 0.8 0.531c0.221 0.2 0.4 0.5 0.5 0.782c0.124 0.3 0.2 0.6 0.2 0.9 C28.178 11.1 28.1 11.5 28 11.754z M33.525 13.116h-1.188v-2.793c0-0.295-0.082-0.523-0.247-0.684 c-0.165-0.16-0.378-0.241-0.639-0.241c-0.161 0-0.312 0.032-0.453 0.094c-0.141 0.062-0.262 0.149-0.362 0.3 c-0.101 0.111-0.18 0.241-0.236 0.388c-0.058 0.148-0.086 0.307-0.086 0.477v2.498h-1.188V8.502h1.138l0.03 0.5 c0.06-0.065 0.132-0.134 0.216-0.207c0.084-0.072 0.184-0.139 0.302-0.202s0.25-0.113 0.398-0.153 c0.147-0.038 0.316-0.059 0.503-0.059c0.59 0 1 0.2 1.4 0.517c0.308 0.3 0.5 0.8 0.5 1.392V13.116z M37.411 13.1 c-0.228 0.082-0.483 0.123-0.765 0.123c-0.289 0-0.534-0.041-0.735-0.123c-0.202-0.083-0.364-0.199-0.488-0.35 c-0.124-0.151-0.213-0.332-0.267-0.546c-0.054-0.213-0.081-0.448-0.081-0.703V9.446H34.27V8.502h0.805V7.008h1.188v1.495h1.268 v0.944h-1.268v2.017c0 0.3 0 0.5 0.1 0.604c0.09 0.1 0.2 0.2 0.4 0.212c0.188 0 0.337-0.027 0.448-0.079 c0.111-0.053 0.217-0.115 0.318-0.187l0.503 0.718C37.871 12.9 37.6 13.1 37.4 13.141z M39.959 13.116H38.77V8.502h1.188 V13.116z M39.999 7.775H38.73v-1.22h1.269V7.775z M45.577 13.116h-1.188v-2.793c0-0.295-0.082-0.523-0.247-0.684 c-0.165-0.16-0.378-0.241-0.639-0.241c-0.161 0-0.312 0.032-0.453 0.094c-0.141 0.062-0.262 0.149-0.362 0.3 c-0.101 0.111-0.18 0.241-0.236 0.388c-0.058 0.148-0.086 0.307-0.086 0.477v2.498h-1.188V8.502h1.138l0.03 0.5 c0.06-0.065 0.132-0.134 0.216-0.207c0.084-0.072 0.184-0.139 0.302-0.202s0.25-0.113 0.398-0.153 c0.147-0.038 0.316-0.059 0.503-0.059c0.59 0 1 0.2 1.4 0.517c0.308 0.3 0.5 0.8 0.5 1.392V13.116z M51.105 13.1 h-1.138l-0.03-0.522c-0.06 0.066-0.134 0.134-0.222 0.207c-0.087 0.073-0.188 0.139-0.302 0.202s-0.245 0.113-0.393 0.2 c-0.147 0.039-0.316 0.059-0.503 0.059c-0.59 0-1.04-0.172-1.349-0.516c-0.309-0.345-0.463-0.808-0.463-1.392V8.502h1.188v2.794 c0 0.3 0.1 0.5 0.2 0.683c0.165 0.2 0.4 0.2 0.6 0.241c0.161 0 0.312-0.031 0.453-0.093 c0.141-0.062 0.262-0.149 0.363-0.26c0.1-0.111 0.179-0.241 0.236-0.389c0.057-0.148 0.086-0.306 0.086-0.477V8.502h1.188V13.116z M56.773 11.158h-3.524c0 0.2 0 0.3 0.1 0.463c0.077 0.1 0.2 0.3 0.3 0.353c0.124 0.1 0.3 0.2 0.4 0.2 c0.158 0.1 0.3 0.1 0.5 0.079c0.228 0 0.428-0.021 0.599-0.064c0.172-0.042 0.317-0.091 0.438-0.148 c0.121-0.055 0.22-0.114 0.297-0.177c0.077-0.062 0.136-0.113 0.177-0.153l0.645 0.709c-0.02 0.019-0.076 0.073-0.166 0.2 c-0.091 0.088-0.222 0.182-0.393 0.28c-0.171 0.099-0.389 0.187-0.654 0.266c-0.265 0.079-0.583 0.118-0.952 0.1 c-0.376 0-0.718-0.062-1.027-0.187c-0.309-0.124-0.572-0.297-0.79-0.516c-0.218-0.22-0.386-0.484-0.503-0.792 c-0.118-0.307-0.177-0.648-0.177-1.023c0-0.34 0.059-0.657 0.177-0.949c0.117-0.291 0.282-0.546 0.493-0.762 c0.211-0.217 0.463-0.387 0.755-0.512c0.292-0.124 0.616-0.186 0.972-0.186c0.429 0 0.8 0.1 1.1 0.2 c0.298 0.2 0.5 0.4 0.7 0.605c0.181 0.2 0.3 0.5 0.4 0.846c0.08 0.3 0.1 0.6 0.1 0.963V11.158z"/></svg>
