<svg xmlns="http://www.w3.org/2000/svg" viewBox="0 0 300 300"><path d="M35.993 162.48h2.859v2.76h-2.859V162.48z"/><path d="M41.373 155.86h2.26l0.061 1.06c0.119-0.133 0.256-0.276 0.409-0.43s0.341-0.29 0.561-0.41s0.473-0.22 0.76-0.3 c0.286-0.08 0.616-0.12 0.99-0.12c1.24 0 2.2 0.5 2.8 1.36c0.48-0.493 0.971-0.844 1.471-1.05 c0.5-0.207 1.083-0.311 1.75-0.311c1.187 0 2.1 0.3 2.7 1.05c0.634 0.7 0.9 1.6 0.9 2.83v5.7h-2.36v-5.68 c0-0.601-0.149-1.063-0.449-1.391c-0.301-0.326-0.71-0.489-1.23-0.489c-0.32 0-0.613 0.063-0.88 0.2 c-0.267 0.127-0.497 0.304-0.69 0.53s-0.34 0.49-0.439 0.79c-0.101 0.3-0.15 0.623-0.15 0.97v5.08h-2.359v-5.68 c0-0.601-0.15-1.063-0.45-1.391c-0.3-0.326-0.71-0.489-1.23-0.489c-0.319 0-0.613 0.063-0.88 0.2 c-0.267 0.127-0.497 0.304-0.689 0.53c-0.193 0.227-0.341 0.49-0.44 0.79s-0.15 0.623-0.15 0.97v5.08h-2.359v-9.377H41.373z"/><path d="M58.433 151.9h2.521v2.479h-2.521V151.9z M58.513 155.86h2.36v9.38h-2.36V155.86z"/><path d="M63.293 155.86h2.26l0.061 1.06c0.119-0.133 0.263-0.272 0.43-0.42c0.166-0.146 0.366-0.283 0.6-0.41 c0.233-0.126 0.497-0.229 0.79-0.31s0.627-0.12 1-0.12c1.173 0 2.1 0.3 2.7 1.05c0.612 0.7 0.9 1.6 0.9 2.83v5.7h-2.36 v-5.68c0-0.601-0.163-1.063-0.49-1.391c-0.327-0.326-0.75-0.489-1.27-0.489c-0.32 0-0.62 0.063-0.9 0.2 c-0.28 0.127-0.52 0.304-0.72 0.53s-0.357 0.49-0.47 0.79c-0.114 0.3-0.171 0.623-0.171 0.97v5.08h-2.359v-9.379H63.293z"/><path d="M74.513 162.48h2.859v2.76h-2.859V162.48z"/><path d="M88.152 164c-0.439 0.467-0.96 0.84-1.56 1.12c-0.601 0.28-1.301 0.42-2.101 0.42s-1.514-0.12-2.14-0.359 c-0.627-0.24-1.153-0.58-1.58-1.021c-0.427-0.439-0.754-0.967-0.98-1.58s-0.34-1.293-0.34-2.04c0-0.68 0.123-1.323 0.37-1.93 s0.59-1.137 1.03-1.59c0.439-0.453 0.97-0.813 1.59-1.08s1.303-0.4 2.05-0.4c0.76 0 1.5 0.1 2.1 0.41s1.16 0.6 1.6 1.1 l-1.5 1.52c-0.268-0.307-0.58-0.547-0.94-0.72s-0.773-0.26-1.24-0.26c-0.453 0-0.847 0.083-1.18 0.2 c-0.334 0.167-0.61 0.383-0.83 0.649c-0.22 0.268-0.384 0.58-0.49 0.94c-0.106 0.359-0.16 0.727-0.16 1.1 c0 0.4 0.1 0.7 0.2 1.061s0.271 0.7 0.5 0.939s0.496 0.5 0.8 0.681c0.333 0.2 0.7 0.3 1.2 0.3 c0.467 0 0.894-0.09 1.28-0.271c0.387-0.18 0.713-0.423 0.979-0.729L88.152 164z"/><path d="M90.692 162.561c0.293 0.3 0.7 0.5 1.1 0.729c0.446 0.2 1 0.3 1.5 0.29c0.507 0 0.913-0.066 1.221-0.2 c0.306-0.133 0.46-0.353 0.46-0.659c0-0.134-0.027-0.257-0.08-0.37c-0.054-0.113-0.167-0.224-0.341-0.33 c-0.173-0.106-0.413-0.214-0.72-0.32s-0.72-0.22-1.24-0.34c-0.319-0.08-0.653-0.187-1-0.32c-0.347-0.133-0.67-0.316-0.97-0.55 s-0.547-0.513-0.74-0.84s-0.29-0.717-0.29-1.17c0-0.467 0.113-0.884 0.341-1.25c0.227-0.367 0.522-0.674 0.89-0.92 c0.366-0.247 0.78-0.437 1.24-0.57c0.46-0.133 0.923-0.2 1.39-0.2c0.826 0 1.5 0.1 2.1 0.26c0.58 0.2 1.1 0.4 1.6 0.8 l-1.22 1.66c-0.253-0.187-0.587-0.356-1-0.51s-0.899-0.23-1.46-0.23c-0.56 0-0.95 0.084-1.17 0.25c-0.22 0.167-0.33 0.37-0.33 0.6 c0 0.3 0.2 0.5 0.6 0.689c0.367 0.2 0.9 0.3 1.7 0.53c0.48 0.1 0.9 0.2 1.3 0.4s0.707 0.4 1 0.6 c0.272 0.2 0.5 0.5 0.6 0.851c0.146 0.3 0.2 0.7 0.2 1.17s-0.106 0.863-0.319 1.229c-0.214 0.367-0.504 0.677-0.87 0.9 c-0.367 0.254-0.794 0.45-1.28 0.591c-0.487 0.14-1.004 0.21-1.55 0.21c-0.88 0-1.674-0.124-2.38-0.37 c-0.707-0.247-1.273-0.61-1.7-1.09L90.692 162.561z"/><path d="M100.252 162.561c0.293 0.3 0.7 0.5 1.1 0.729c0.446 0.2 1 0.3 1.5 0.29c0.507 0 0.913-0.066 1.221-0.2 c0.306-0.133 0.46-0.353 0.46-0.659c0-0.134-0.027-0.257-0.08-0.37c-0.054-0.113-0.167-0.224-0.341-0.33 c-0.173-0.106-0.413-0.214-0.72-0.32s-0.72-0.22-1.24-0.34c-0.319-0.08-0.653-0.187-1-0.32c-0.347-0.133-0.67-0.316-0.97-0.55 s-0.547-0.513-0.74-0.84s-0.29-0.717-0.29-1.17c0-0.467 0.113-0.884 0.341-1.25c0.227-0.367 0.522-0.674 0.89-0.92 c0.366-0.247 0.78-0.437 1.24-0.57c0.46-0.133 0.923-0.2 1.39-0.2c0.826 0 1.5 0.1 2.1 0.26c0.58 0.2 1.1 0.4 1.6 0.8 l-1.22 1.66c-0.253-0.187-0.587-0.356-1-0.51s-0.899-0.23-1.46-0.23c-0.56 0-0.95 0.084-1.17 0.25c-0.22 0.167-0.33 0.37-0.33 0.6 c0 0.3 0.2 0.5 0.6 0.689c0.367 0.2 0.9 0.3 1.7 0.53c0.48 0.1 0.9 0.2 1.3 0.4s0.707 0.4 1 0.6 c0.272 0.2 0.5 0.5 0.6 0.851c0.146 0.3 0.2 0.7 0.2 1.17s-0.106 0.863-0.319 1.229c-0.214 0.367-0.504 0.677-0.87 0.9 c-0.367 0.254-0.794 0.45-1.28 0.591c-0.487 0.14-1.004 0.21-1.55 0.21c-0.88 0-1.674-0.124-2.38-0.37 c-0.707-0.247-1.273-0.61-1.7-1.09L100.252 162.561z"/><path d="M120.275 103.782L99.043 82.549c0 0-0.976-0.549-1.543-0.549h-73c-0.828 0-1.5 0.671-1.5 1.5v135c0 0.8 0.7 1.5 1.5 1.5 h95c0.828 0 1.5-0.672 1.5-1.5v-113C121 104.8 120.3 103.8 120.3 103.782z M116.251 104H99V86.749L116.251 104z M118 217H26 V85h70v20.5c0 0.8 0.7 1.5 1.5 1.5H118V217z"/><path d="M170.033 158.35h7.149v6.9h-7.149V158.35z"/><path d="M204.132 162.15c-1.1 1.167-2.399 2.1-3.899 2.8s-3.25 1.05-5.25 1.05s-3.784-0.3-5.351-0.9 c-1.567-0.6-2.884-1.449-3.95-2.55c-1.066-1.1-1.883-2.416-2.449-3.95c-0.567-1.532-0.851-3.232-0.851-5.1 c0-1.7 0.308-3.308 0.925-4.825s1.476-2.841 2.575-3.975c1.101-1.133 2.425-2.033 3.976-2.7c1.55-0.666 3.258-1 5.125-1 c1.899 0 3.6 0.3 5.2 1.025s2.9 1.6 4 2.774l-3.75 3.8c-0.667-0.766-1.449-1.366-2.35-1.8c-0.9-0.433-1.934-0.649-3.1-0.649 c-1.134 0-2.117 0.208-2.95 0.625c-0.834 0.417-1.525 0.958-2.075 1.625s-0.959 1.449-1.225 2.35c-0.268 0.9-0.4 1.817-0.4 2.8 c0 0.9 0.1 1.8 0.4 2.65c0.266 0.9 0.7 1.6 1.2 2.35s1.241 1.3 2.1 1.7c0.833 0.4 1.8 0.6 3 0.6 c1.166 0 2.232-0.225 3.199-0.675s1.783-1.058 2.45-1.825L204.132 162.15z"/><path d="M210.481 158.55c0.733 0.7 1.7 1.3 2.8 1.825c1.116 0.5 2.4 0.7 3.8 0.725c1.266 0 2.282-0.166 3.05-0.5 c0.767-0.332 1.149-0.883 1.149-1.649c0-0.333-0.066-0.642-0.199-0.925c-0.134-0.283-0.418-0.559-0.851-0.825 c-0.434-0.267-1.033-0.533-1.8-0.8c-0.768-0.267-1.8-0.551-3.1-0.851c-0.801-0.2-1.634-0.466-2.5-0.8 c-0.867-0.333-1.676-0.791-2.426-1.375c-0.75-0.583-1.367-1.283-1.85-2.1c-0.483-0.816-0.725-1.792-0.725-2.926 c0-1.166 0.282-2.207 0.85-3.125c0.566-0.916 1.308-1.683 2.225-2.3c0.917-0.616 1.95-1.091 3.101-1.425 c1.149-0.333 2.308-0.5 3.475-0.5c2.066 0 3.8 0.2 5.3 0.65s2.758 1.1 3.9 1.949l-3.05 4.2 c-0.634-0.467-1.468-0.892-2.5-1.275c-1.034-0.383-2.25-0.574-3.65-0.574c-1.399 0-2.375 0.208-2.925 0.6 s-0.825 0.925-0.825 1.524c0 0.7 0.5 1.3 1.4 1.726s2.342 0.9 4.3 1.324c1.2 0.3 2.3 0.6 3.2 1 c0.95 0.4 1.8 0.9 2.5 1.5c0.683 0.6 1.2 1.3 1.6 2.125c0.366 0.8 0.6 1.8 0.6 2.926s-0.268 2.158-0.8 3.1 c-0.534 0.918-1.259 1.692-2.175 2.325c-0.918 0.634-1.984 1.125-3.2 1.476c-1.218 0.35-2.509 0.524-3.875 0.5 c-2.2 0-4.184-0.309-5.95-0.925c-1.768-0.616-3.184-1.525-4.25-2.725L210.481 158.55z"/><path d="M234.381 158.55c0.733 0.7 1.7 1.3 2.8 1.825c1.116 0.5 2.4 0.7 3.8 0.725c1.266 0 2.282-0.166 3.05-0.5 c0.767-0.332 1.149-0.883 1.149-1.649c0-0.333-0.066-0.642-0.199-0.925c-0.134-0.283-0.418-0.559-0.851-0.825 c-0.434-0.267-1.033-0.533-1.8-0.8c-0.768-0.267-1.8-0.551-3.1-0.851c-0.801-0.2-1.634-0.466-2.5-0.8 c-0.867-0.333-1.676-0.791-2.426-1.375c-0.75-0.583-1.367-1.283-1.85-2.1c-0.483-0.816-0.725-1.792-0.725-2.926 c0-1.166 0.282-2.207 0.85-3.125c0.566-0.916 1.308-1.683 2.225-2.3c0.917-0.616 1.95-1.091 3.101-1.425 c1.149-0.333 2.308-0.5 3.475-0.5c2.066 0 3.8 0.2 5.3 0.65s2.758 1.1 3.9 1.949l-3.05 4.2 c-0.634-0.467-1.468-0.892-2.5-1.275c-1.034-0.383-2.25-0.574-3.65-0.574c-1.399 0-2.375 0.208-2.925 0.6 s-0.825 0.925-0.825 1.524c0 0.7 0.5 1.3 1.4 1.726s2.342 0.9 4.3 1.324c1.2 0.3 2.3 0.6 3.2 1 c0.95 0.4 1.8 0.9 2.5 1.5c0.683 0.6 1.2 1.3 1.6 2.125c0.366 0.8 0.6 1.8 0.6 2.926s-0.268 2.158-0.8 3.1 c-0.534 0.918-1.259 1.692-2.175 2.325c-0.918 0.634-1.984 1.125-3.2 1.476c-1.218 0.35-2.509 0.524-3.875 0.5 c-2.2 0-4.184-0.309-5.95-0.925c-1.768-0.616-3.184-1.525-4.25-2.725L234.381 158.55z"/><path d="M277.394 85.176l-29.83-29.831c0 0-0.673-0.346-1.063-0.346h-103c-0.828 0-1.5 0.671-1.5 1.5v189c0 0.8 0.7 1.5 1.5 1.5 h133c0.828 0 1.5-0.672 1.5-1.5v-159C278 86 277.4 85.2 277.4 85.176z M248 60.024L272.975 85H248V60.024z M275 244H145 V58h100v28.5c0 0.8 0.7 1.5 1.5 1.5H275V244z"/></svg>
