<svg xmlns="http://www.w3.org/2000/svg" viewBox="0 0 20 20"><circle cx="6.7" cy="7.3" r="1.4"/><circle cx="13.6" cy="7.3" r="1.4"/><path d="M9.968 19.967c-5.5 0-9.975-4.475-9.975-9.975s4.475-9.975 9.975-9.975s9.975 4.5 10 9.975S15.468 20 10 20 z M9.968 1.545c-4.658 0-8.447 3.79-8.447 8.447s3.79 8.4 8.4 8.447s8.447-3.79 8.447-8.447S14.626 1.5 10 1.545z"/><path d="M10.024 16.13c-2.369 0-4.395-1.636-4.927-3.978l0.992-0.226c0.427 1.9 2 3.2 3.9 3.186s3.509-1.31 3.936-3.186 l0.992 0.226C14.42 14.5 12.4 16.1 10 16.13z"/></svg>
