<svg xmlns="http://www.w3.org/2000/svg" viewBox="0 0 163 41"><path d="M160.5 41H2.5C1.122 41 0 39.9 0 38.5v-36C0 1.1 1.1 0 2.5 0h158c1.379 0 2.5 1.1 2.5 2.5v36 C163 39.9 161.9 41 160.5 41z M2.5 1C1.673 1 1 1.7 1 2.5v36C1 39.3 1.7 40 2.5 40h158c0.827 0 1.5-0.673 1.5-1.5v-36 c0-0.827-0.673-1.5-1.5-1.5H2.5z"/><polygon points="21.8,13.8 25.8,13.8 21.8,9"/><path d="M20.833 14.75V9H9.583c-1.1 0-2 0.9-2 2v19c0 1.1 0.9 2 2 2h14.25c1.1 0 2-0.9 2-2V14.75H20.833z M14.264 21.6 l-2.119 1.327v0.031l2.119 1.328v1.062l-3.086-1.998V22.52l3.086-1.998V21.586z M16.305 26.862h-0.983l2.631-6.956h0.983 L16.305 26.862z M23.08 23.337l-3.087 1.998v-1.062l2.119-1.328v-0.031l-2.119-1.327v-1.063l3.087 1.998V23.337z"/></svg>
