<svg xmlns="http://www.w3.org/2000/svg" viewBox="0 0 100 100"><path fill="#00AEF0" d="M100,64.225C100,81.493,86.042,95.5,68.836,95.5S37.671,81.493,37.671,64.225s13.958-31.275,31.164-31.275 C86.042,32.951,100,46.958,100,64.225z"/><path fill="#00A651" d="M37.887,60.599c3.724,1.578,7.817,2.451,12.113,2.451c15.988,0,29.156-12.084,30.949-27.646 c-3.724-1.579-7.817-2.452-12.113-2.452C52.852,32.951,39.68,45.039,37.887,60.599z"/><path fill="#ED1C24" d="M31.164,32.951c-4.291,0-8.379,0.871-12.1,2.445c1.303,11.316,8.603,20.798,18.647,25.128 c0.033,0.014,0.098,0.042,0.098,0.042l0.077,0.033c0,0,0.006-0.055,0.01-0.083c1.018-8.635,5.546-16.191,12.108-21.199 C44.771,35.324,38.245,32.951,31.164,32.951z"/><path fill="#EC008C" d="M37.672,64.225c0-1.273,0.085-2.525,0.232-3.758c-0.002,0.016-0.005,0.032-0.007,0.048 c-0.003,0.028-0.01,0.083-0.01,0.083l-0.077-0.033c0,0-0.065-0.028-0.098-0.042c-10.045-4.33-17.345-13.812-18.647-25.128 C7.863,40.137,0,51.259,0,64.225C0,81.498,13.953,95.5,31.164,95.5c7.08,0,13.605-2.373,18.838-6.364 C42.512,83.423,37.672,74.391,37.672,64.225z"/><path fill="#FFF200" d="M50,0.5c-17.212,0-31.164,14.002-31.164,31.275c0,1.227,0.092,2.431,0.229,3.621 c3.72-1.574,7.808-2.445,12.1-2.445c7.081,0,13.607,2.374,18.84,6.366c0,0-0.001,0-0.001,0.001 c5.231-3.993,11.755-6.367,18.833-6.367c4.25,0,8.301,0.855,11.993,2.402c0.04,0.017,0.12,0.051,0.12,0.051l0.016-0.077 c0,0,0.01-0.093,0.015-0.139c0.122-1.121,0.184-2.259,0.184-3.412C81.164,14.502,67.212,0.5,50,0.5z"/><path fill="#2E3092" d="M62.329,64.225c0-1.224-0.086-2.438-0.229-3.633c-3.716,1.578-7.813,2.457-12.1,2.457 s-8.375-0.87-12.1-2.448c-0.133,1.195-0.229,2.4-0.229,3.624c0,10.154,4.849,19.161,12.329,24.869 C57.479,83.386,62.329,74.389,62.329,64.225z"/><path fill="#363639" d="M50,39.357c-6.574,5.02-11.099,12.583-12.1,21.245c3.725,1.568,7.812,2.448,12.1,2.448 s8.384-0.87,12.1-2.448C61.099,51.939,56.574,44.376,50,39.357z"/></svg>
