<svg xmlns="http://www.w3.org/2000/svg" viewBox="-400 -400 900 812.5" fill="#dddddd"><path display="none" d="M471.713-359.5h-843.427c-8.541,0-15.492,6.951-15.492,15.492v794.967h10.328v-717.509h244.421v717.509 h6.885v-717.509h602.448v717.509h10.328v-794.967C487.205-352.615,480.255-359.5,471.713-359.5z M476.877-273.436h-853.754v-70.573 c0-2.847,2.317-5.164,5.164-5.164h843.427c2.847,0,5.164,2.317,5.164,5.164V-273.436z"/><circle cx="-349.965" cy="-350" r="8"/><circle cx="-325" cy="-350" r="8"/><circle cx="-300.035" cy="-350" r="8"/><rect x="-31" y="-353" width="114" height="6"/><path d="M397.436-349.528c0.049,0.763-0.236,4.355,2.01,4.355c3.501,0,3.734,1.161,3.734,4.765c0,1.452,0,3.194,0,3.159l9.026-0.058 c0,0-0.035-7.572,0.006-9.169c0.04-1.597,3.788-3.874,3.788-9.402c0-4.3-0.859-8.371-8.541-8.371c-7.789,0-9.348,3.185-9.348,8.304 c0,2.129-2.111,3.238-2.111,4.202C396-350.78,397.387-350.292,397.436-349.528z"/><path d="M360-359.7l-11.636-5.8v29L360-339.945V-359.7z M351.882-348.596c-1.208-0.018-2.183-0.985-2.183-2.192 c0-1.218,0.992-2.204,2.211-2.204s2.211,0.87,2.327,2.32C354.122-349.559,353.035-348.703,351.882-348.596z"/><polygon points="342.115,-359.7 345.024,-359.7 345.024,-362.6 339.206,-362.6 339.206,-357.38 342.115,-355.06 "/><polygon points="342.546,-347.23 339.637,-344.91 339.637,-339.4 345.454,-339.4 345.454,-342.3 342.546,-342.3 "/><polygon points="333.818,-342.88 343.418,-351 333.818,-359.12 333.818,-353.9 328,-353.9 328,-348.1 333.818,-348.1 "/><path d="M446.059-335.753c7.817-0.118,13.941-6.268,13.941-13.999c0-7.712-6.332-14.083-14.106-13.995 c-7.677,0.026-13.894,6.28-13.894,13.995C432-342.021,438.242-335.634,446.059-335.753z M451.781-353.561l2.944-1.849 c1.046,1.706,1.799,3.682,1.799,5.659h-0.127c0,2.083-0.624,4.018-1.673,5.652l-2.944-1.849c0.708-1.096,1.13-2.4,1.13-3.806 S452.49-352.462,451.781-353.561z M446.023-339.383c-2.101,0-4.052-0.638-5.691-1.714l1.758-2.824 c1.105,0.847,2.531,1.13,3.936,1.172c1.291,0,2.483-0.376,3.518-0.988l1.839,2.824C449.81-339.963,447.991-339.383,446.023-339.383z M442.455-349.751c0-1.932,1.563-3.501,3.487-3.501c1.923,0,3.487,1.525,3.554,3.501h-0.067c0,1.928-1.564,3.501-3.487,3.501 C444.018-346.25,442.455-347.82,442.455-349.751z M445.938-360.25c1.966,0,3.655,0.565,5.343,1.412l-1.822,3.075 c-1.037-0.613-2.23-0.988-3.518-0.988c-1.426,0-2.747,0.435-3.852,1.172l-1.842-2.956 C441.886-359.611,443.838-360.25,445.938-360.25z M435.484-349.751c0-1.999,0.591-3.852,1.56-5.444l2.944,1.849 c-0.633,1.053-1.018,2.276-1.018,3.595c0,1.318,0.385,2.541,1.124,3.594l-2.944,1.977c-1.077-1.618-1.715-3.594-1.715-5.571H435.484 z"/><path d="M-380.414,412.5v-723H-150.5v723h6v-723h622v723h8v-791.362c0-7.72-6.28-14-14-14h-845.914c-7.72,0-14,6.28-14,14V412.5 H-380.414z M-380.414-378.862c0-3.309,2.691-6,6-6H471.5c3.309,0,6,2.691,6,6v62.362h-857.914V-378.862z"/></svg>
