<svg xmlns="http://www.w3.org/2000/svg" viewBox="-400 -400 900 812.5" fill="#dddddd"><path display="none" d="M471.713-359.5h-843.427c-8.541,0-15.492,6.951-15.492,15.492v794.967h10.328v-717.509h244.421v717.509 h6.885v-717.509h602.448v717.509h10.328v-794.967C487.205-352.615,480.255-359.5,471.713-359.5z M476.877-273.436h-853.754v-70.573 c0-2.847,2.317-5.164,5.164-5.164h843.427c2.847,0,5.164,2.317,5.164,5.164V-273.436z"/><circle cx="-349.965" cy="-350" r="8"/><circle cx="-325" cy="-350" r="8"/><circle cx="-300.035" cy="-350" r="8"/><rect x="-31" y="-353" width="114" height="6"/><path d="M397.436-349.528c0.049,0.763-0.236,4.355,2.01,4.355c3.501,0,3.734,1.161,3.734,4.765c0,1.452,0,3.194,0,3.159l9.026-0.058 c0,0-0.035-7.572,0.006-9.169c0.04-1.597,3.788-3.874,3.788-9.402c0-4.3-0.859-8.371-8.541-8.371c-7.789,0-9.348,3.185-9.348,8.304 c0,2.129-2.111,3.238-2.111,4.202C396-350.78,397.387-350.292,397.436-349.528z"/><path d="M360-359.7l-11.636-5.8v29L360-339.945V-359.7z M351.882-348.596c-1.208-0.018-2.183-0.985-2.183-2.192 c0-1.218,0.992-2.204,2.211-2.204s2.211,0.87,2.327,2.32C354.122-349.559,353.035-348.703,351.882-348.596z"/><polygon points="342.115,-359.7 345.024,-359.7 345.024,-362.6 339.206,-362.6 339.206,-357.38 342.115,-355.06 "/><polygon points="342.546,-347.23 339.637,-344.91 339.637,-339.4 345.454,-339.4 345.454,-342.3 342.546,-342.3 "/><polygon points="333.818,-342.88 343.418,-351 333.818,-359.12 333.818,-353.9 328,-353.9 328,-348.1 333.818,-348.1 "/><path d="M446.059-335.753c7.817-0.118,13.941-6.268,13.941-13.999c0-7.712-6.332-14.083-14.106-13.995 c-7.677,0.026-13.894,6.28-13.894,13.995C432-342.021,438.242-335.634,446.059-335.753z M451.781-353.561l2.944-1.849 c1.046,1.706,1.799,3.682,1.799,5.659h-0.127c0,2.083-0.624,4.018-1.673,5.652l-2.944-1.849c0.708-1.096,1.13-2.4,1.13-3.806 S452.49-352.462,451.781-353.561z M446.023-339.383c-2.101,0-4.052-0.638-5.691-1.714l1.758-2.824 c1.105,0.847,2.531,1.13,3.936,1.172c1.291,0,2.483-0.376,3.518-0.988l1.839,2.824C449.81-339.963,447.991-339.383,446.023-339.383z M442.455-349.751c0-1.932,1.563-3.501,3.487-3.501c1.923,0,3.487,1.525,3.554,3.501h-0.067c0,1.928-1.564,3.501-3.487,3.501 C444.018-346.25,442.455-347.82,442.455-349.751z M445.938-360.25c1.966,0,3.655,0.565,5.343,1.412l-1.822,3.075 c-1.037-0.613-2.23-0.988-3.518-0.988c-1.426,0-2.747,0.435-3.852,1.172l-1.842-2.956 C441.886-359.611,443.838-360.25,445.938-360.25z M435.484-349.751c0-1.999,0.591-3.852,1.56-5.444l2.944,1.849 c-0.633,1.053-1.018,2.276-1.018,3.595c0,1.318,0.385,2.541,1.124,3.594l-2.944,1.977c-1.077-1.618-1.715-3.594-1.715-5.571H435.484 z"/><rect x="-300.315" y="-260.671" width="56" height="6"/><rect x="-300.352" y="-187.033" width="119" height="6"/><rect x="-300.947" y="-113.394" width="74" height="6"/><rect x="-300.634" y="-39.756" width="64" height="6"/><polygon points="-337.586,-272.064 -342.272,-262.692 -352.648,-261.018 -344.95,-253.655 -346.958,-243.278 -337.586,-248.299 -328.214,-243.278 -329.887,-253.655 -322.189,-261.018 -332.9,-262.692 "/><path d="M-330.891-194.904c0.027,0.001,0.053,0.005,0.081,0.006c0.024,0,0.046-0.006,0.07-0.006H-330.891z"/><path d="M-330.811-194.898c-2.755,0.034-5.181,2.047-6.624,4.171c-1.456-2.142-3.909-4.177-6.694-4.177 c-4.469,0-8.09,3.622-8.09,8.033c0,8.368,12.719,15.732,14.728,17.928c2.356-2.571,14.785-8.863,14.785-17.928 C-322.651-191.37-326.165-194.702-330.811-194.898z"/><path d="M-329.994-45.539c0-5.168-4.204-9.375-9.372-9.375c-5.168,0-9.376,4.207-9.376,9.375v5.188h-2.651v21.757h24.267v-21.757 h-2.869V-45.539z M-337.586-30.346v7.397h-3.347v-7.397c-1.044-0.592-1.777-1.67-1.777-2.959c0-1.908,1.546-3.451,3.451-3.451 s3.451,1.674,3.347,3.347C-335.808-32.07-336.582-31.066-337.586-30.346z M-333.342-40.351h-12.053v-5.188 c0-3.324,2.705-6.028,6.028-6.028c3.324,0,6.025,2.678,6.025,6.025c0,0.084,0.107,5.104,0.107,5.191H-333.342z"/><path d="M-345.395-119.177c0-3.324,2.705-6.028,6.028-6.028c2.584,0,4.686,1.674,5.69,3.936h3.488 c-0.957-4.161-4.673-7.284-9.118-7.284c-5.168,0-9.376,4.207-9.376,9.375v5.188h-2.651v21.757h24.267v-21.757h-18.329V-119.177z M-339.259-110.394c1.905,0,3.451,1.674,3.347,3.347c0.104,1.339-0.669,2.343-1.674,3.063v7.397h-3.347v-7.397 c-1.044-0.592-1.777-1.67-1.777-2.959C-342.71-108.851-341.164-110.394-339.259-110.394z"/><path d="M-380.414,412.5v-723H-150.5v723h6v-723h622v723h8v-791.362c0-7.72-6.28-14-14-14h-845.914c-7.72,0-14,6.28-14,14V412.5 H-380.414z M-380.414-378.862c0-3.309,2.691-6,6-6H471.5c3.309,0,6,2.691,6,6v62.362h-857.914V-378.862z"/></svg>
