<svg xmlns="http://www.w3.org/2000/svg" viewBox="0 0 300 300"><path fill="#FFFFFF" d="M272.5 266h-245c-2.481 0-4.5-2.019-4.5-4.5v-223c0-2.481 2.019-4.5 4.5-4.5h245c2.481 0 4.5 2 4.5 4.5v223 C277 264 275 266 272.5 266z M27.5 37c-0.827 0-1.5 0.673-1.5 1.5v223c0 0.8 0.7 1.5 1.5 1.5h245 c0.827 0 1.5-0.673 1.5-1.5v-223c0-0.827-0.673-1.5-1.5-1.5H27.5z"/><rect fill="#FFFFFF" x="24" y="59" width="251" height="2"/><rect fill="#FFFFFF" x="97" y="61" width="2" height="203"/><rect fill="#FFFFFF" x="98" y="106" width="177" height="2"/><circle fill="#FFFFFF" cx="33.5" cy="48.5" r="2.8"/><circle fill="#FFFFFF" cx="42.2" cy="48.5" r="2.8"/><circle fill="#FFFFFF" cx="50.9" cy="48.5" r="2.8"/><rect fill="#FFFFFF" x="133" y="47" width="33" height="2"/><path fill="#FFFFFF" d="M252.203 53c0 0-0.012-2.608 0.002-3.158c0.014-0.55 1.319-1.334 1.319-3.238c0-1.481-0.299-2.883-2.974-2.883 c-2.712 0-3.255 1.097-3.255 2.86c0 0.733-0.735 1.115-0.735 1.447s0.483 0.5 0.5 0.763s-0.082 1.5 0.7 1.5 c1.219 0 1.3 0.4 1.3 1.641c0 0.5 0 1.1 0 1.088L252.203 53L252.203 53z"/><rect fill="#FFFFFF" x="50" y="73" width="17" height="2"/><rect fill="#FFFFFF" x="50" y="95" width="35.8" height="2"/><rect fill="#FFFFFF" x="50" y="117" width="22" height="2"/><rect fill="#FFFFFF" x="50" y="139" width="19.2" height="2"/><path fill="#FFFFFF" d="M230 43v10l4-1.188V45L230 43z M231.219 48.833c-0.42 0-0.76-0.34-0.76-0.76s0.341-0.76 0.76-0.76s0.76 0.3 0.8 0.8 C231.979 48.5 231.6 48.8 231.2 48.833z"/><polygon fill="#FFFFFF" points="227,45.8 228,46.6 228,45 229,45 229,44 227,44"/><polygon fill="#FFFFFF" points="228,49.3 227,50.1 227,52 229,52 229,51 228,51"/><polygon fill="#FFFFFF" points="228.3,48 225,45.2 225,47 223,47 223,49 225,49 225,50.8"/><path fill="#FFFFFF" d="M263.936 43.542c-2.738 0-4.958 2.22-4.958 4.958s2.22 5 5 4.958s4.958-2.22 4.958-4.958 S266.674 43.5 263.9 43.542z M267.655 48.5c0 0.738-0.222 1.423-0.595 2.002l-1.047-0.655c0.252-0.388 0.402-0.85 0.402-1.348 s-0.15-0.959-0.402-1.348l1.047-0.655C267.432 47.1 267.7 47.8 267.7 48.5z M260.217 48.5c0-0.708 0.21-1.364 0.555-1.928 l1.047 0.655c-0.225 0.373-0.362 0.806-0.362 1.273s0.137 0.9 0.4 1.273l-1.047 0.7 C260.427 49.9 260.2 49.2 260.2 48.5z M265.176 48.5c0 0.683-0.556 1.24-1.24 1.24s-1.24-0.556-1.24-1.24 s0.556-1.24 1.24-1.24S265.176 47.8 265.2 48.5z M265.187 46.371c-0.369-0.217-0.793-0.35-1.251-0.35 c-0.507 0-0.977 0.154-1.37 0.415l-0.655-1.047c0.583-0.381 1.277-0.607 2.024-0.607c0.699 0 1.3 0.2 1.9 0.5 L265.187 46.371z M262.566 50.565c0.393 0.3 0.9 0.4 1.4 0.415c0.459 0 0.883-0.133 1.251-0.35l0.654 1 c-0.559 0.337-1.206 0.542-1.906 0.542c-0.747 0-1.441-0.226-2.024-0.607L262.566 50.565z"/><polygon fill="#FFFFFF" points="39,69.7 40.4,72.5 43.6,73 41.3,75.2 41.8,78.3 39,76.8 36.2,78.3 36.8,75.2 34.5,73 37.6,72.5"/><path fill="#FFFFFF" d="M41.045 92.752c-0.832 0-1.565 0.608-2 1.248c-0.435-0.64-1.168-1.248-2-1.248c-1.335 0-2.417 1.082-2.417 2.4 c0 2.5 3.8 4.7 4.4 5.356c0.704-0.768 4.417-2.648 4.417-5.356C43.462 93.8 42.4 92.8 41 92.752z"/><path fill="#FFFFFF" d="M41.268 138.926v-1.55c0-1.544-1.256-2.801-2.8-2.801s-2.801 1.257-2.801 2.801v1.55h-0.792v6.5h7.25v-6.5H41.268z M39 141.915v2.21h-1v-2.21c-0.312-0.177-0.531-0.499-0.531-0.884c0-0.57 0.462-1.031 1.031-1.031s1.031 0.5 1 1 C39.531 141.4 39.3 141.7 39 141.915z M40.268 138.926h-3.601v-1.55c0-0.993 0.808-1.801 1.801-1.801s1.8 0.8 1.8 1.8 C40.268 137.4 40.3 138.9 40.3 138.926z"/><path fill="#FFFFFF" d="M36.667 116.926v-1.55c0-0.993 0.808-1.801 1.801-1.801c0.772 0 1.4 0.5 1.7 1.176h1.042 c-0.286-1.243-1.396-2.176-2.724-2.176c-1.544 0-2.801 1.257-2.801 2.801v1.55h-0.792v6.5h7.25v-6.5H36.667z M39 119.915v2.21h-1 v-2.21c-0.312-0.177-0.531-0.499-0.531-0.884c0-0.57 0.462-1.031 1.031-1.031s1.031 0.5 1 1 C39.531 119.4 39.3 119.7 39 119.915z"/><path fill="#FFFFFF" d="M266 202.5H108c-1.378 0-2.5-1.121-2.5-2.5v-36c0-1.379 1.122-2.5 2.5-2.5h158c1.379 0 2.5 1.1 2.5 2.5v36 C268.5 201.4 267.4 202.5 266 202.5z M108 162.5c-0.827 0-1.5 0.673-1.5 1.5v36c0 0.8 0.7 1.5 1.5 1.5h158 c0.827 0 1.5-0.673 1.5-1.5v-36c0-0.827-0.673-1.5-1.5-1.5H108z"/><path fill="#FFFFFF" d="M261.653 193.5c-0.565 0-1.063 1.391-1.358 1.803c-0.295-0.412-0.793-1.803-1.358-1.803c-0.907 0-1.642 0.696-1.642 1.6 c0 1.6 2.6 3 3 3.445c0.479-0.494 3-1.703 3-3.445C263.295 194.2 262.6 193.5 261.7 193.5z"/><path fill="#FFFFFF" d="M125.5 182h-15c-0.276 0-0.5-0.224-0.5-0.5v-15c0-0.276 0.224-0.5 0.5-0.5h15c0.276 0 0.5 0.2 0.5 0.5v15 C126 181.8 125.8 182 125.5 182z M111 181h14v-14h-14V181z"/><rect fill="#FFFFFF" x="106" y="188.5" width="162" height="1"/><path fill="#FFFFFF" d="M266 249.5H108c-1.378 0-2.5-1.121-2.5-2.5v-36c0-1.379 1.122-2.5 2.5-2.5h158c1.379 0 2.5 1.1 2.5 2.5v36 C268.5 248.4 267.4 249.5 266 249.5z M108 209.5c-0.827 0-1.5 0.673-1.5 1.5v36c0 0.8 0.7 1.5 1.5 1.5h158 c0.827 0 1.5-0.673 1.5-1.5v-36c0-0.827-0.673-1.5-1.5-1.5H108z"/><path fill="#FFFFFF" d="M261.653 240.5c-0.565 0-1.063 1.391-1.358 1.803c-0.295-0.412-0.793-1.803-1.358-1.803c-0.907 0-1.642 0.696-1.642 1.6 c0 1.6 2.6 3 3 3.445c0.479-0.494 3-1.703 3-3.445C263.295 241.2 262.6 240.5 261.7 240.5z"/><path fill="#FFFFFF" d="M125.5 229h-15c-0.276 0-0.5-0.224-0.5-0.5v-15c0-0.276 0.224-0.5 0.5-0.5h15c0.276 0 0.5 0.2 0.5 0.5v15 C126 228.8 125.8 229 125.5 229z M111 228h14v-14h-14V228z"/><rect fill="#FFFFFF" x="106" y="235.5" width="162" height="1"/><path fill="#FFFFFF" d="M115.637 217.348h2.29c0.353 0 0.7 0 0.9 0.135c0.27 0.1 0.5 0.2 0.7 0.4 c0.18 0.2 0.3 0.3 0.4 0.55c0.094 0.2 0.1 0.4 0.1 0.686c0 0.233-0.043 0.437-0.13 0.61s-0.188 0.318-0.305 0.4 s-0.233 0.203-0.35 0.26c-0.117 0.057-0.208 0.085-0.275 0.085c0.12 0 0.3 0.1 0.4 0.11c0.16 0.1 0.3 0.2 0.5 0.3 c0.144 0.1 0.3 0.3 0.4 0.495c0.1 0.2 0.1 0.5 0.1 0.744c0 0.36-0.063 0.662-0.19 0.905s-0.302 0.44-0.525 0.6 c-0.224 0.15-0.487 0.257-0.79 0.32c-0.304 0.063-0.632 0.095-0.985 0.095h-2.29V217.348z M117.867 220 c0.126 0 0.25-0.014 0.37-0.04c0.12-0.026 0.229-0.073 0.325-0.14s0.173-0.15 0.23-0.25c0.057-0.101 0.085-0.227 0.085-0.38 s-0.03-0.28-0.09-0.381c-0.06-0.1-0.139-0.18-0.235-0.239c-0.097-0.061-0.205-0.102-0.325-0.125s-0.24-0.035-0.36-0.035h-1.02v1.59 H117.867z M117.917 222.948c0.12 0 0.251-0.009 0.395-0.025c0.143-0.017 0.278-0.057 0.405-0.12c0.127-0.063 0.233-0.156 0.32-0.28 c0.086-0.123 0.13-0.291 0.13-0.505c0-0.2-0.042-0.361-0.125-0.484c-0.083-0.124-0.187-0.221-0.31-0.29 c-0.124-0.07-0.258-0.118-0.405-0.146c-0.147-0.026-0.284-0.04-0.41-0.04h-1.07v1.891h1.07 C117.917 222.9 117.9 222.9 117.9 222.948z"/><path fill="#FFFFFF" d="M115.65 170.348h4.48v1.33h-2.97v1.51h2.26v1.29h-2.26v2.54h-1.51V170.348z"/></svg>
