<svg xmlns="http://www.w3.org/2000/svg" viewBox="0 0 20 20"><path fill="#FFFFFF" d="M17.426 8.104c-0.76-2.758-3.019-4.992-6.018-5.575c-0.501-0.097-1-0.144-1.493-0.144c-1.684 0-3.282 0.553-4.587 1.5 c-0.037 0.027-0.11 0.082-0.11 0.082l1.015 1.686c0 0 0.083-0.068 0.126-0.101c0.991-0.773 2.228-1.23 3.556-1.23 c0.373 0 0.8 0 1.1 0.109c1.529 0.3 2.9 1.2 3.7 2.464c0.264 0.4 0.5 0.8 0.6 1.243l-2.533 0.1 l3.664 6.083l3.436-6.234L17.426 8.104z"/><path fill="#FFFFFF" d="M13.395 14.844C12.42 15.6 11.2 16 9.9 16c-0.373 0-0.751-0.036-1.121-0.109c-1.529-0.297-2.851-1.172-3.722-2.464 c-0.234-0.346-0.419-0.714-0.571-1.092l2.601-0.055L3.455 6.196L0.019 12.43l2.477-0.053c0.8 2.7 3 4.9 5.9 5.4 c0.502 0.1 1 0.1 1.5 0.144c1.627 0 3.174-0.516 4.455-1.415c0.047-0.033 0.139-0.1 0.139-0.1l-0.991-1.696 C13.535 14.7 13.4 14.8 13.4 14.844z"/></svg>
