<svg xmlns="http://www.w3.org/2000/svg" viewBox="0 0 300 300"><path fill="#FFFFFF" d="M209.5 247h-133c-0.829 0-1.5-0.672-1.5-1.5v-189c0-0.829 0.671-1.5 1.5-1.5h103c0.828 0 1.5 0.7 1.5 1.5V85h28.5 c0.828 0 1.5 0.7 1.5 1.5v159C211 246.3 210.3 247 209.5 247z M78 244h130V88h-28.5c-0.828 0-1.5-0.671-1.5-1.5V58H78V244z"/><path fill="#FFFFFF" d="M92.4 158.1h7.149v6.9H92.4V158.1z"/><path fill="#FFFFFF" d="M108.249 158.3c0.733 0.7 1.7 1.3 2.8 1.825c1.116 0.5 2.4 0.7 3.8 0.725c1.266 0 2.282-0.166 3.05-0.5 c0.767-0.332 1.149-0.883 1.149-1.649c0-0.333-0.066-0.642-0.199-0.925c-0.134-0.283-0.418-0.559-0.851-0.825 c-0.434-0.267-1.033-0.533-1.8-0.8c-0.768-0.267-1.8-0.551-3.1-0.851c-0.801-0.2-1.634-0.466-2.5-0.8 c-0.867-0.333-1.676-0.791-2.426-1.375c-0.75-0.583-1.367-1.283-1.85-2.1c-0.483-0.816-0.725-1.792-0.725-2.926 c0-1.166 0.282-2.207 0.85-3.125c0.566-0.916 1.308-1.683 2.225-2.3c0.917-0.616 1.95-1.091 3.101-1.425 c1.149-0.333 2.308-0.5 3.475-0.5c2.066 0 3.8 0.2 5.3 0.65s2.758 1.1 3.9 1.949l-3.05 4.2 c-0.634-0.467-1.468-0.892-2.5-1.275c-1.034-0.383-2.25-0.574-3.65-0.574c-1.399 0-2.375 0.208-2.925 0.6 s-0.825 0.925-0.825 1.524c0 0.7 0.5 1.3 1.4 1.726s2.342 0.9 4.3 1.324c1.2 0.3 2.3 0.6 3.2 1 c0.95 0.4 1.8 0.9 2.5 1.5c0.683 0.6 1.2 1.3 1.6 2.125c0.366 0.8 0.6 1.8 0.6 2.926s-0.268 2.158-0.8 3.1 c-0.534 0.918-1.259 1.692-2.175 2.325c-0.918 0.634-1.984 1.125-3.2 1.476c-1.218 0.35-2.509 0.524-3.875 0.5 c-2.2 0-4.184-0.309-5.95-0.925c-1.768-0.616-3.184-1.525-4.25-2.725L108.249 158.3z"/><path fill="#FFFFFF" d="M143.6 162.8c-0.634 0.768-1.6 1.45-2.9 2.05c-1.3 0.601-2.75 0.9-4.35 0.9c-0.967 0-1.925-0.15-2.875-0.45 s-1.817-0.758-2.6-1.375c-0.784-0.616-1.418-1.407-1.9-2.375c-0.483-0.966-0.725-2.1-0.725-3.399c0-1.333 0.25-2.525 0.75-3.575 s1.199-1.933 2.1-2.65c0.9-0.716 1.982-1.258 3.25-1.625c1.267-0.366 2.666-0.55 4.2-0.55c0.466 0 1 0 1.6 0 c0.566 0 1.1 0 1.6 0.074c0.6 0 1.2 0.1 1.9 0.101v-0.55c0-1.167-0.467-2.083-1.4-2.75s-2.149-1-3.649-1 c-1.667 0-3 0.217-4 0.649c-1 0.434-1.884 0.9-2.65 1.4l-2.7-4c0.467-0.333 1-0.675 1.601-1.025c0.6-0.35 1.3-0.666 2.1-0.95 c0.8-0.282 1.726-0.516 2.775-0.699s2.274-0.275 3.675-0.275c1.5 0 2.9 0.2 4.1 0.625c1.216 0.4 2.3 1 3.1 1.8 c0.866 0.8 1.5 1.6 2 2.7c0.466 1.1 0.7 2.2 0.7 3.425V165h-5.5L143.6 162.8z M143.6 154.4 c-0.6-0.033-1.184-0.066-1.75-0.101c-0.467-0.032-0.959-0.058-1.475-0.075c-0.518-0.016-0.959-0.024-1.325-0.024 c-1.9 0-3.233 0.375-4 1.125c-0.768 0.75-1.15 1.608-1.15 2.575c0 1 0.4 1.8 1.1 2.35s1.775 0.8 3.2 0.8 c0.7 0 1.375-0.116 2.025-0.35c0.649-0.232 1.225-0.55 1.725-0.95c0.5-0.399 0.908-0.866 1.226-1.399 c0.316-0.533 0.475-1.101 0.475-1.7V154.4H143.6z"/><path fill="#FFFFFF" d="M157.349 158.3c0.733 0.7 1.7 1.3 2.8 1.825c1.116 0.5 2.4 0.7 3.8 0.725c1.266 0 2.282-0.166 3.05-0.5 c0.767-0.332 1.149-0.883 1.149-1.649c0-0.333-0.066-0.642-0.199-0.925c-0.134-0.283-0.418-0.559-0.851-0.825 c-0.434-0.267-1.033-0.533-1.8-0.8c-0.768-0.267-1.8-0.551-3.1-0.851c-0.801-0.2-1.634-0.466-2.5-0.8 c-0.867-0.333-1.676-0.791-2.426-1.375c-0.75-0.583-1.367-1.283-1.85-2.1c-0.483-0.816-0.725-1.792-0.725-2.926 c0-1.166 0.282-2.207 0.85-3.125c0.566-0.916 1.308-1.683 2.225-2.3c0.917-0.616 1.95-1.091 3.101-1.425 c1.149-0.333 2.308-0.5 3.475-0.5c2.066 0 3.8 0.2 5.3 0.65s2.758 1.1 3.9 1.949l-3.05 4.2 c-0.634-0.467-1.468-0.892-2.5-1.275c-1.034-0.383-2.25-0.574-3.65-0.574c-1.399 0-2.375 0.208-2.925 0.6 s-0.825 0.925-0.825 1.524c0 0.7 0.5 1.3 1.4 1.726s2.342 0.9 4.3 1.324c1.2 0.3 2.3 0.6 3.2 1 c0.95 0.4 1.8 0.9 2.5 1.5c0.683 0.6 1.2 1.3 1.6 2.125c0.366 0.8 0.6 1.8 0.6 2.926s-0.268 2.158-0.8 3.1 c-0.534 0.918-1.259 1.692-2.175 2.325c-0.918 0.634-1.984 1.125-3.2 1.476c-1.218 0.35-2.509 0.524-3.875 0.5 c-2.2 0-4.184-0.309-5.95-0.925c-1.768-0.616-3.184-1.525-4.25-2.725L157.349 158.3z"/><path fill="#FFFFFF" d="M181.249 158.3c0.733 0.7 1.7 1.3 2.8 1.825c1.116 0.5 2.4 0.7 3.8 0.725c1.266 0 2.282-0.166 3.05-0.5 c0.767-0.332 1.149-0.883 1.149-1.649c0-0.333-0.066-0.642-0.199-0.925c-0.134-0.283-0.418-0.559-0.851-0.825 c-0.434-0.267-1.033-0.533-1.8-0.8c-0.768-0.267-1.8-0.551-3.1-0.851c-0.801-0.2-1.634-0.466-2.5-0.8 c-0.867-0.333-1.676-0.791-2.426-1.375c-0.75-0.583-1.367-1.283-1.85-2.1c-0.483-0.816-0.725-1.792-0.725-2.926 c0-1.166 0.282-2.207 0.85-3.125c0.566-0.916 1.308-1.683 2.225-2.3c0.917-0.616 1.95-1.091 3.101-1.425 c1.149-0.333 2.308-0.5 3.475-0.5c2.066 0 3.8 0.2 5.3 0.65s2.758 1.1 3.9 1.949l-3.05 4.2 c-0.634-0.467-1.468-0.892-2.5-1.275c-1.034-0.383-2.25-0.574-3.65-0.574c-1.399 0-2.375 0.208-2.925 0.6 s-0.825 0.925-0.825 1.524c0 0.7 0.5 1.3 1.4 1.726s2.342 0.9 4.3 1.324c1.2 0.3 2.3 0.6 3.2 1 c0.95 0.4 1.8 0.9 2.5 1.5c0.683 0.6 1.2 1.3 1.6 2.125c0.366 0.8 0.6 1.8 0.6 2.926s-0.268 2.158-0.8 3.1 c-0.534 0.918-1.259 1.692-2.175 2.325c-0.918 0.634-1.984 1.125-3.2 1.476c-1.218 0.35-2.509 0.524-3.875 0.5 c-2.2 0-4.184-0.309-5.95-0.925c-1.768-0.616-3.184-1.525-4.25-2.725L181.249 158.3z"/><rect fill="#FFFFFF" x="173.3" y="69.8" transform="matrix(0.7071 0.7071 -0.7071 0.7071 107.3785 -116.5862)" width="42.2" height="3"/></svg>
