<svg xmlns="http://www.w3.org/2000/svg" viewBox="0 0 300 300"><path fill="#FFFFFF" d="M272.5 266h-245c-2.481 0-4.5-2.019-4.5-4.5v-223c0-2.481 2.019-4.5 4.5-4.5h245c2.481 0 4.5 2 4.5 4.5v223 C277 264 275 266 272.5 266z M27.5 37c-0.827 0-1.5 0.673-1.5 1.5v223c0 0.8 0.7 1.5 1.5 1.5h245 c0.827 0 1.5-0.673 1.5-1.5v-223c0-0.827-0.673-1.5-1.5-1.5H27.5z"/><rect fill="#FFFFFF" x="24" y="59" width="251" height="2"/><circle fill="#FFFFFF" cx="33.5" cy="48.5" r="2.8"/><circle fill="#FFFFFF" cx="42.2" cy="48.5" r="2.8"/><circle fill="#FFFFFF" cx="50.9" cy="48.5" r="2.8"/><rect fill="#FFFFFF" x="133" y="47" width="33" height="2"/><path fill="#FFFFFF" d="M252.203 53c0 0-0.012-2.608 0.002-3.158c0.014-0.55 1.319-1.334 1.319-3.238c0-1.481-0.299-2.883-2.974-2.883 c-2.712 0-3.255 1.097-3.255 2.86c0 0.733-0.735 1.115-0.735 1.447s0.483 0.5 0.5 0.763s-0.082 1.5 0.7 1.5 c1.219 0 1.3 0.4 1.3 1.641c0 0.5 0 1.1 0 1.088L252.203 53L252.203 53z"/><path fill="#FFFFFF" d="M230 43v10l4-1.188V45L230 43z M231.219 48.833c-0.42 0-0.76-0.34-0.76-0.76s0.341-0.76 0.76-0.76s0.76 0.3 0.8 0.8 C231.979 48.5 231.6 48.8 231.2 48.833z"/><polygon fill="#FFFFFF" points="227,45.8 228,46.6 228,45 229,45 229,44 227,44"/><polygon fill="#FFFFFF" points="228,49.3 227,50.1 227,52 229,52 229,51 228,51"/><polygon fill="#FFFFFF" points="228.3,48 225,45.2 225,47 223,47 223,49 225,49 225,50.8"/><path fill="#FFFFFF" d="M263.936 43.542c-2.738 0-4.958 2.22-4.958 4.958s2.22 5 5 4.958s4.958-2.22 4.958-4.958 S266.674 43.5 263.9 43.542z M267.655 48.5c0 0.738-0.222 1.423-0.595 2.002l-1.047-0.655c0.252-0.388 0.402-0.85 0.402-1.348 s-0.15-0.959-0.402-1.348l1.047-0.655C267.432 47.1 267.7 47.8 267.7 48.5z M260.217 48.5c0-0.708 0.21-1.364 0.555-1.928 l1.047 0.655c-0.225 0.373-0.362 0.806-0.362 1.273s0.137 0.9 0.4 1.273l-1.047 0.7 C260.427 49.9 260.2 49.2 260.2 48.5z M265.176 48.5c0 0.683-0.556 1.24-1.24 1.24s-1.24-0.556-1.24-1.24 s0.556-1.24 1.24-1.24S265.176 47.8 265.2 48.5z M265.187 46.371c-0.369-0.217-0.793-0.35-1.251-0.35 c-0.507 0-0.977 0.154-1.37 0.415l-0.655-1.047c0.583-0.381 1.277-0.607 2.024-0.607c0.699 0 1.3 0.2 1.9 0.5 L265.187 46.371z M262.566 50.565c0.393 0.3 0.9 0.4 1.4 0.415c0.459 0 0.883-0.133 1.251-0.35l0.654 1 c-0.559 0.337-1.206 0.542-1.906 0.542c-0.747 0-1.441-0.226-2.024-0.607L262.566 50.565z"/><path fill="#FFFFFF" d="M44.829 79.942l-1.266 2.562h-0.09l-1.221-2.472l-1.718-3.377h-2.201V87.04h2.397v-4.824h0.06l0.935 1.794l0.92 1.6 h1.703l0.904-1.583l0.98-1.869h0.045v4.838h2.397V76.656h-2.201L44.829 79.942z M50.786 87.041h2.397V76.656h-2.397V87.041z M63.418 76.656h-2.683l-1.688 3.03l-1.688-3.03h-2.698l3.12 5.065l-3.316 5.321h2.698l1.884-3.286l1.884 3.286h2.698l-3.316-5.321 L63.418 76.656z M63.857 78.811h2.638v8.23h2.397v-8.23h2.623v-2.155h-7.657L63.857 78.811L63.857 78.811z M78.299 83.3 c0 1.191-0.874 1.628-1.658 1.628c-0.783 0-1.672-0.437-1.672-1.628v-6.692h-2.397v7.145c0 2.3 2 3.3 4.1 3.3 s4.07-1.131 4.07-3.407v-7.084H78.3C78.299 76.7 78.3 83.3 78.3 83.348z M90.374 79.957c0-1.628-0.889-3.301-3.18-3.301 h-4.673v10.385h2.397v-3.829h1.477l1.567 3.829h2.563l-1.854-4.236C89.711 82.2 90.4 81 90.4 79.957z M86.696 81.1 h-1.778v-2.321h1.778c0.859 0 1.3 0.5 1.3 1.161C87.947 80.6 87.6 81.1 86.7 81.117z M98.892 78.796v-2.141h-7.25 V87.04h7.25v-2.125h-4.853v-2.05h4.145V80.74h-4.145v-1.944H98.892z"/><path fill="#FFFFFF" d="M252.25 213H47.75c-1.378 0-2.5-1.121-2.5-2.5V109.614c0-1.378 1.122-2.5 2.5-2.5h204.5c1.379 0 2.5 1.1 2.5 2.5V210.5 C254.75 211.9 253.6 213 252.2 213z M47.75 108.114c-0.827 0-1.5 0.673-1.5 1.5V210.5c0 0.8 0.7 1.5 1.5 1.5h204.5 c0.827 0 1.5-0.673 1.5-1.5V109.614c0-0.827-0.673-1.5-1.5-1.5H47.75z"/><rect fill="#FFFFFF" x="45.8" y="158.5" width="208.5" height="1"/><rect fill="#FFFFFF" x="45.8" y="184.5" width="208.5" height="1"/><rect fill="#FFFFFF" x="45.8" y="132.5" width="208.5" height="1"/><path fill="#FFFFFF" d="M247.209 88.055c-2.822 0-5.119-2.296-5.119-5.119s2.297-5.119 5.119-5.119s5.119 2.3 5.1 5.1 S250.031 88.1 247.2 88.055z M247.209 78.817c-2.271 0-4.119 1.848-4.119 4.119s1.848 4.1 4.1 4.1 s4.119-1.848 4.119-4.119S249.48 78.8 247.2 78.817z"/><path fill="#FFFFFF" d="M252.792 88.055c-2.822 0-5.118-2.296-5.118-5.119s2.296-5.119 5.118-5.119s5.119 2.3 5.1 5.1 S255.614 88.1 252.8 88.055z M252.792 78.817c-2.271 0-4.118 1.848-4.118 4.119s1.848 4.1 4.1 4.1 c2.271 0 4.119-1.848 4.119-4.119S255.063 78.8 252.8 78.817z"/><path fill="#FFFFFF" d="M250 83.263c-2.822 0-5.119-2.296-5.119-5.119s2.297-5.119 5.119-5.119s5.119 2.3 5.1 5.119S252.822 83.3 250 83.3 z M250 74.025c-2.271 0-4.119 1.848-4.119 4.119s1.848 4.1 4.1 4.119s4.119-1.848 4.119-4.119S252.271 74 250 74.025z"/><path fill="#FFFFFF" d="M250 94c-7.168 0-13-5.832-13-13s5.832-13 13-13s13 5.8 13 13S257.168 94 250 94z M250 69c-6.617 0-12 5.383-12 12 s5.383 12 12 12s12-5.383 12-12S256.617 69 250 69z"/><path fill="#FFFFFF" d="M221.085 235.976c-0.09-0.096-0.205-0.176-0.345-0.239c-0.141-0.063-0.301-0.096-0.48-0.096 c-0.193 0-0.365 0.032-0.515 0.096s-0.274 0.144-0.375 0.239c-0.101 0.097-0.177 0.205-0.229 0.3 c-0.055 0.12-0.08 0.24-0.08 0.36h2.299c0-0.12-0.023-0.24-0.069-0.36C221.243 236.2 221.2 236.1 221.1 235.976z"/><path fill="#FFFFFF" d="M175.506 235.976c-0.09-0.096-0.205-0.176-0.346-0.239c-0.14-0.063-0.3-0.096-0.479-0.096 c-0.194 0-0.365 0.032-0.515 0.096c-0.15 0.063-0.275 0.144-0.375 0.239c-0.101 0.097-0.178 0.205-0.23 0.3 c-0.054 0.12-0.08 0.24-0.08 0.36h2.3c0-0.12-0.023-0.24-0.069-0.36C175.664 236.2 175.6 236.1 175.5 235.976z"/><path fill="#FFFFFF" d="M195.895 235.976c-0.09-0.096-0.205-0.176-0.344-0.239c-0.141-0.063-0.301-0.096-0.48-0.096 c-0.193 0-0.365 0.032-0.516 0.096c-0.149 0.063-0.274 0.144-0.375 0.239c-0.1 0.097-0.176 0.205-0.229 0.325s-0.08 0.24-0.08 0.4 h2.3c0-0.12-0.023-0.24-0.07-0.36S195.984 236.1 195.9 235.976z"/><path fill="#FFFFFF" d="M211.925 236.156c-0.11-0.144-0.248-0.261-0.415-0.351c-0.166-0.09-0.363-0.135-0.59-0.135s-0.424 0.045-0.59 0.1 c-0.167 0.09-0.305 0.207-0.415 0.351s-0.192 0.303-0.245 0.479s-0.08 0.349-0.08 0.516c0 0.2 0 0.3 0.1 0.5 c0.053 0.2 0.1 0.3 0.2 0.48s0.248 0.3 0.4 0.354c0.166 0.1 0.4 0.1 0.6 0.135s0.424-0.045 0.59-0.135 c0.167-0.09 0.305-0.208 0.415-0.354s0.192-0.307 0.245-0.48c0.053-0.173 0.08-0.347 0.08-0.52c0-0.167-0.027-0.339-0.08-0.516 S212.035 236.3 211.9 236.156z"/><path fill="#FFFFFF" d="M229.25 226.167h-68.5c-1.1 0-2 0.9-2 2V244.5c0 1.1 0.9 2 2 2h68.5c1.1 0 2-0.9 2-2v-16.333 C231.25 227.1 230.3 226.2 229.2 226.167z M170.851 239.501h-1.26v-5.56h-2.261v-1.11h5.78v1.11h-2.26L170.851 239.5 L170.851 239.501z M176.99 237.511h-3.5c0 0.2 0 0.3 0.1 0.471c0.076 0.1 0.2 0.3 0.3 0.4 c0.124 0.1 0.3 0.2 0.4 0.23c0.157 0.1 0.3 0.1 0.5 0.08c0.227 0 0.424-0.021 0.594-0.065 c0.171-0.043 0.315-0.093 0.436-0.15c0.12-0.056 0.219-0.116 0.295-0.18s0.135-0.115 0.176-0.155l0.64 0.7 c-0.021 0.02-0.075 0.074-0.165 0.165c-0.09 0.09-0.221 0.185-0.391 0.284c-0.17 0.101-0.387 0.19-0.649 0.3 c-0.264 0.08-0.579 0.12-0.945 0.12c-0.373 0-0.714-0.063-1.021-0.19c-0.307-0.126-0.568-0.302-0.784-0.524 c-0.217-0.224-0.384-0.492-0.5-0.806c-0.116-0.312-0.175-0.659-0.175-1.04c0-0.346 0.059-0.668 0.175-0.965 c0.116-0.296 0.28-0.555 0.489-0.774c0.211-0.221 0.461-0.394 0.75-0.521c0.291-0.126 0.612-0.189 0.966-0.189 c0.427 0 0.8 0.1 1.1 0.234c0.297 0.2 0.5 0.4 0.7 0.615c0.18 0.3 0.3 0.5 0.4 0.9 c0.079 0.3 0.1 0.6 0.1 0.979v0.17L176.99 237.511L176.99 237.511z M179.08 239.501h-1.18v-6.67h1.18V239.501z M181.42 239.501h-1.18v-6.67h1.18V239.501z M191.771 239.501h-1.181v-2.84c0-0.3-0.074-0.531-0.225-0.695 c-0.15-0.163-0.354-0.245-0.615-0.245c-0.16 0-0.307 0.032-0.439 0.096s-0.248 0.151-0.346 0.3 c-0.096 0.113-0.17 0.245-0.219 0.395c-0.051 0.15-0.076 0.312-0.076 0.485v2.54h-1.18v-2.84c0-0.3-0.074-0.531-0.225-0.695 c-0.15-0.163-0.355-0.245-0.615-0.245c-0.16 0-0.307 0.032-0.439 0.096c-0.134 0.063-0.249 0.151-0.346 0.3 c-0.096 0.113-0.17 0.245-0.22 0.395c-0.05 0.15-0.075 0.312-0.075 0.485v2.54h-1.18v-4.69h1.13l0.03 0.5 c0.06-0.066 0.128-0.138 0.205-0.215c0.076-0.076 0.17-0.145 0.279-0.205c0.11-0.06 0.236-0.11 0.381-0.15 c0.143-0.039 0.308-0.06 0.494-0.06c0.621 0 1.1 0.2 1.4 0.68c0.24-0.246 0.485-0.421 0.735-0.524s0.542-0.155 0.875-0.155 c0.593 0 1 0.2 1.4 0.525c0.317 0.3 0.5 0.8 0.5 1.415v2.847L191.771 239.501L191.771 239.501z M197.38 237.5 h-3.5c0 0.2 0 0.3 0.1 0.471c0.077 0.1 0.2 0.3 0.3 0.359c0.123 0.1 0.3 0.2 0.4 0.2 c0.156 0.1 0.3 0.1 0.5 0.08c0.227 0 0.426-0.021 0.596-0.065c0.17-0.043 0.314-0.093 0.435-0.15 c0.12-0.056 0.218-0.116 0.295-0.18s0.136-0.115 0.175-0.155l0.641 0.721c-0.02 0.02-0.075 0.074-0.165 0.2 c-0.091 0.09-0.22 0.185-0.39 0.284c-0.17 0.101-0.387 0.19-0.65 0.271s-0.578 0.12-0.945 0.12c-0.373 0-0.713-0.063-1.02-0.19 c-0.307-0.126-0.568-0.302-0.785-0.524c-0.217-0.224-0.384-0.492-0.5-0.806c-0.117-0.312-0.176-0.659-0.176-1.04 c0-0.346 0.059-0.668 0.176-0.965c0.116-0.296 0.279-0.555 0.49-0.774c0.209-0.221 0.459-0.394 0.75-0.521 c0.289-0.126 0.611-0.189 0.965-0.189c0.426 0 0.8 0.1 1.1 0.234c0.296 0.2 0.5 0.4 0.7 0.6 c0.181 0.3 0.3 0.5 0.4 0.86c0.08 0.3 0.1 0.6 0.1 0.979v0.17L197.38 237.511L197.38 237.511z M207.48 239.501h-1.18 v-2.84c0-0.3-0.075-0.531-0.225-0.695c-0.15-0.163-0.354-0.245-0.615-0.245c-0.16 0-0.307 0.032-0.44 0.1 c-0.133 0.063-0.248 0.151-0.345 0.265s-0.17 0.245-0.22 0.395c-0.051 0.15-0.075 0.312-0.075 0.485v2.54h-1.18v-2.84 c0-0.3-0.075-0.531-0.226-0.695c-0.149-0.163-0.354-0.245-0.615-0.245c-0.159 0-0.307 0.032-0.439 0.096s-0.248 0.151-0.345 0.3 s-0.171 0.245-0.22 0.395c-0.051 0.15-0.076 0.312-0.076 0.485v2.54h-1.18v-4.69h1.131l0.029 0.5 c0.061-0.066 0.129-0.138 0.205-0.215c0.076-0.076 0.17-0.145 0.28-0.205s0.236-0.11 0.38-0.15c0.143-0.039 0.309-0.06 0.495-0.06 c0.62 0 1.1 0.2 1.4 0.68c0.24-0.246 0.486-0.421 0.736-0.524s0.541-0.155 0.875-0.155c0.593 0 1 0.2 1.4 0.5 c0.317 0.3 0.5 0.8 0.5 1.415v2.847L207.48 239.501L207.48 239.501z M213.255 238.116c-0.123 0.303-0.295 0.569-0.515 0.8 c-0.221 0.229-0.485 0.412-0.795 0.545c-0.311 0.134-0.652 0.2-1.025 0.2s-0.715-0.066-1.025-0.2 c-0.31-0.133-0.574-0.315-0.795-0.545c-0.22-0.23-0.391-0.497-0.515-0.8c-0.124-0.304-0.185-0.625-0.185-0.965 c0-0.341 0.061-0.662 0.185-0.966c0.124-0.303 0.295-0.567 0.515-0.795c0.221-0.227 0.485-0.406 0.795-0.54 c0.311-0.133 0.652-0.199 1.025-0.199s0.715 0.1 1 0.199c0.31 0.1 0.6 0.3 0.8 0.5 c0.22 0.2 0.4 0.5 0.5 0.795c0.124 0.3 0.2 0.6 0.2 0.966C213.439 237.5 213.4 237.8 213.3 238.116z M217.29 235.921c-0.08-0.033-0.162-0.057-0.245-0.07c-0.084-0.013-0.182-0.02-0.295-0.02c-0.16 0-0.313 0.026-0.46 0.1 s-0.273 0.13-0.38 0.229c-0.107 0.101-0.191 0.221-0.256 0.36c-0.062 0.14-0.095 0.297-0.095 0.47v2.53h-1.18v-4.69h1.13 l0.03 0.591c0.054-0.067 0.121-0.141 0.204-0.221c0.084-0.08 0.182-0.153 0.296-0.22c0.113-0.066 0.245-0.123 0.395-0.17 c0.15-0.047 0.321-0.07 0.515-0.07c0.113 0 0.2 0 0.3 0.021s0.182 0 0.3 0.069L217.29 235.921z M222.57 237.511h-3.5 c0 0.2 0 0.3 0.1 0.471c0.076 0.1 0.2 0.3 0.3 0.359c0.124 0.1 0.3 0.2 0.4 0.2 c0.157 0.1 0.3 0.1 0.5 0.08c0.227 0 0.425-0.021 0.595-0.065c0.17-0.043 0.314-0.093 0.436-0.15 c0.119-0.056 0.218-0.116 0.295-0.18c0.076-0.063 0.135-0.115 0.175-0.155l0.64 0.721c-0.02 0.02-0.074 0.074-0.164 0.2 c-0.091 0.09-0.221 0.185-0.391 0.284c-0.17 0.101-0.387 0.19-0.65 0.271s-0.578 0.12-0.945 0.12c-0.373 0-0.713-0.063-1.02-0.19 c-0.307-0.126-0.568-0.302-0.785-0.524c-0.217-0.224-0.383-0.492-0.5-0.806c-0.116-0.312-0.175-0.659-0.175-1.04 c0-0.346 0.059-0.668 0.175-0.965c0.117-0.296 0.28-0.555 0.49-0.774c0.21-0.221 0.46-0.394 0.75-0.521 c0.29-0.126 0.611-0.189 0.965-0.189c0.427 0 0.8 0.1 1.1 0.234c0.296 0.2 0.5 0.4 0.7 0.6 c0.18 0.3 0.3 0.5 0.4 0.86c0.079 0.3 0.1 0.6 0.1 0.979v0.17L222.57 237.511L222.57 237.511z"/></svg>
