<svg xmlns="http://www.w3.org/2000/svg" viewBox="0 0 300 300"><path fill="#FFFFFF" d="M272.5 266h-245c-2.481 0-4.5-2.019-4.5-4.5v-223c0-2.481 2.019-4.5 4.5-4.5h245c2.481 0 4.5 2 4.5 4.5v223 C277 264 275 266 272.5 266z M27.5 37c-0.827 0-1.5 0.673-1.5 1.5v223c0 0.8 0.7 1.5 1.5 1.5h245 c0.827 0 1.5-0.673 1.5-1.5v-223c0-0.827-0.673-1.5-1.5-1.5H27.5z"/><rect fill="#FFFFFF" x="24" y="52" width="250" height="2"/><circle fill="#FFFFFF" cx="33.5" cy="44.5" r="2.8"/><circle fill="#FFFFFF" cx="42.2" cy="44.5" r="2.8"/><circle fill="#FFFFFF" cx="50.9" cy="44.5" r="2.8"/><rect fill="#FFFFFF" x="72" y="115" width="146" height="2"/><rect fill="#FFFFFF" x="72" y="121" width="153" height="2"/><rect fill="#FFFFFF" x="72" y="127" width="149" height="2"/><rect fill="#FFFFFF" x="72" y="133" width="141" height="2"/><rect fill="#FFFFFF" x="72" y="139" width="146" height="2"/><rect fill="#FFFFFF" x="72" y="145" width="153" height="2"/><rect fill="#FFFFFF" x="72" y="151" width="146" height="2"/><rect fill="#FFFFFF" x="72" y="157" width="70" height="2"/><rect fill="#FFFFFF" x="72" y="242" width="128" height="2"/><path fill="#FFFFFF" d="M225 235H72c-0.552 0-1-0.447-1-1v-62c0-0.553 0.448-1 1-1h153c0.553 0 1 0.4 1 1v62C226 234.6 225.6 235 225 235z M73 233h151v-60H73V233z"/></svg>
