<svg xmlns="http://www.w3.org/2000/svg" viewBox="0 0 300 300"><path fill="#FFFFFF" d="M272.5 266h-245c-2.481 0-4.5-2.019-4.5-4.5v-223c0-2.481 2.019-4.5 4.5-4.5h245c2.481 0 4.5 2 4.5 4.5v223 C277 264 275 266 272.5 266z M27.5 37c-0.827 0-1.5 0.673-1.5 1.5v223c0 0.8 0.7 1.5 1.5 1.5h245 c0.827 0 1.5-0.673 1.5-1.5v-223c0-0.827-0.673-1.5-1.5-1.5H27.5z"/><rect fill="#FFFFFF" x="24" y="52" width="250" height="2"/><rect fill="#FFFFFF" x="69" y="53" width="2" height="211"/><rect fill="#FFFFFF" x="70" y="66" width="204" height="2"/><circle fill="#FFFFFF" cx="33.5" cy="44.5" r="2.8"/><circle fill="#FFFFFF" cx="42.2" cy="44.5" r="2.8"/><circle fill="#FFFFFF" cx="50.9" cy="44.5" r="2.8"/><path fill="#FFFFFF" d="M121 68H75V56h46V68z M76 67h44V57H76V67z"/><rect fill="#FFFFFF" x="80" y="61" width="23" height="2"/><rect fill="#FFFFFF" x="111.8" y="61.5" transform="matrix(0.707 0.7072 -0.7072 0.707 77.2072 -62.3512)" width="4.2" height="1"/><rect fill="#FFFFFF" x="113.4" y="59.9" transform="matrix(0.7071 0.7071 -0.7071 0.7071 77.1867 -62.3451)" width="1" height="4.2"/><rect fill="#FFFFFF" x="31" y="60" width="26" height="2"/><rect fill="#FFFFFF" x="36" y="66" width="24" height="2"/><rect fill="#FFFFFF" x="36" y="72" width="26" height="2"/><rect fill="#FFFFFF" x="36" y="78" width="18" height="2"/><rect fill="#FFFFFF" x="36" y="84" width="21" height="2"/><rect fill="#FFFFFF" x="31" y="90" width="20" height="2"/><rect fill="#FFFFFF" x="36" y="96" width="9" height="2"/><rect fill="#FFFFFF" x="36" y="102" width="21" height="2"/><rect fill="#FFFFFF" x="36" y="108" width="13" height="2"/><rect fill="#FFFFFF" x="36" y="114" width="21" height="2"/><rect fill="#FFFFFF" x="31" y="120" width="13" height="2"/><rect fill="#FFFFFF" x="31" y="138" width="16" height="2"/><rect fill="#FFFFFF" x="31" y="144" width="15" height="2"/><rect fill="#FFFFFF" x="36" y="126" width="18" height="2"/><rect fill="#FFFFFF" x="36" y="132" width="15" height="2"/><rect fill="#FFFFFF" x="148" y="44" width="23" height="2"/></svg>
